<?xml version="1.0" standalone="no"?>
<!DOCTYPE svg PUBLIC "-//W3C//DTD SVG 1.1//EN" "http://www.w3.org/Graphics/SVG/1.1/DTD/svg11.dtd" >
<svg xmlns="http://www.w3.org/2000/svg" xmlns:xlink="http://www.w3.org/1999/xlink" version="1.1">
<metadata>
Created by FontForge 20190801 at Thu Feb  8 18:15:27 2018
 By www-data
Copyright (c) 2018 by TypeType. Designers Ivan Gladkikh, Pavel Emelyanov. Technical designers Marina Khodak, Vika Usmanova, Nadyr Rakhimov. All rights reserved.
</metadata>
<defs>
<font id="TTCommonsRegular" horiz-adv-x="490" >
  <font-face 
    font-family="TTCommonsRegular"
    font-weight="400"
    font-stretch="normal"
    units-per-em="1000"
    panose-1="2 0 5 6 3 0 0 2 0 4"
    ascent="700"
    descent="-300"
    x-height="450"
    cap-height="630"
    bbox="-170 -255 1438 850"
    underline-thickness="50"
    underline-position="-150"
    unicode-range="U+000D-FB06"
  />
<missing-glyph horiz-adv-x="0" 
 />
    <glyph glyph-name="ff" unicode="ff" horiz-adv-x="530" 
d="M510 450v-70h-100v-380h-75v380h-180v-380h-75v380h-55v70h55v15q0 66 38 108t92 42q13 0 24.5 -2.5t15.5 -4.5l5 -3v-65q-10 5 -25 5q-34 0 -54.5 -21.5t-20.5 -58.5v-15h180v35q0 66 38 108t92 42q13 0 24.5 -2.5t16.5 -4.5l4 -3v-65q-10 5 -25 5q-34 0 -54.5 -21.5
t-20.5 -58.5v-35h100z" />
    <glyph glyph-name="uniFB01" unicode="fi" horiz-adv-x="475" 
d="M410 450v-450h-75v380h-180v-380h-75v380h-55v70h55v35q0 66 38 108t92 42q13 0 24.5 -2.5t15.5 -4.5l5 -3v-65q-10 5 -25 5q-34 0 -54.5 -21.5t-20.5 -58.5v-35h255zM325 577q0 21 13.5 34.5t33.5 13.5q21 0 34.5 -13.5t13.5 -34.5q0 -20 -13.5 -33.5t-34.5 -13.5
q-20 0 -33.5 13.5t-13.5 33.5z" />
    <glyph glyph-name="uniFB02" unicode="fl" horiz-adv-x="485" 
d="M415 625v-625h-75v550q-30 20 -80 20q-48 0 -76.5 -27.5t-28.5 -72.5v-20h100v-70h-100v-380h-75v380h-55v70h55v20q0 73 51 121.5t129 48.5q22 0 42 -4t29 -8l9 -3h75z" />
    <glyph glyph-name="ffi" unicode="ffi" horiz-adv-x="730" 
d="M665 450v-450h-75v380h-180v-380h-75v380h-180v-380h-75v380h-55v70h55v15q0 66 38 108t92 42q13 0 24.5 -2.5t15.5 -4.5l5 -3v-65q-10 5 -25 5q-34 0 -54.5 -21.5t-20.5 -58.5v-15h180v35q0 66 38 108t92 42q13 0 24.5 -2.5t16.5 -4.5l4 -3v-65q-10 5 -25 5
q-34 0 -54.5 -21.5t-20.5 -58.5v-35h255zM580 577q0 21 13.5 34.5t33.5 13.5q21 0 34.5 -13.5t13.5 -34.5q0 -20 -13.5 -33.5t-34.5 -13.5q-20 0 -33.5 13.5t-13.5 33.5z" />
    <glyph glyph-name="ffl" unicode="ffl" horiz-adv-x="740" 
d="M670 625v-625h-75v550q-30 20 -80 20q-48 0 -76.5 -27.5t-28.5 -72.5v-20h100v-70h-100v-380h-75v380h-180v-380h-75v380h-55v70h55v15q0 66 38 108t92 42q13 0 24.5 -2.5t15.5 -4.5l5 -3v-65q-10 5 -25 5q-34 0 -54.5 -21.5t-20.5 -58.5v-15h180v20q0 73 51 121.5
t129 48.5q22 0 42 -4t29 -8l9 -3h75z" />
    <glyph glyph-name="f_f_j" unicode="ffj" horiz-adv-x="730" 
d="M590 -15v395h-180v-380h-75v380h-180v-380h-75v380h-55v70h55v15q0 66 38 108t92 42q13 0 24.5 -2.5t15.5 -4.5l5 -3v-65q-10 5 -25 5q-34 0 -54.5 -21.5t-20.5 -58.5v-15h180v35q0 66 38 108t92 42q13 0 24.5 -2.5t16.5 -4.5l4 -3v-65q-10 5 -25 5q-34 0 -54.5 -21.5
t-20.5 -58.5v-35h255v-465q0 -66 -38 -108t-92 -42q-13 0 -24.5 2.5t-16.5 4.5l-4 3v65q10 -5 25 -5q34 0 54.5 21.5t20.5 58.5zM580 577q0 21 13.5 34.5t33.5 13.5q21 0 34.5 -13.5t13.5 -34.5q0 -20 -13.5 -33.5t-34.5 -13.5q-20 0 -33.5 13.5t-13.5 33.5z" />
    <glyph glyph-name="f_j" unicode="fj" horiz-adv-x="475" 
d="M335 -15v395h-180v-380h-75v380h-55v70h55v15q0 66 38 108t92 42q13 0 24.5 -2.5t15.5 -4.5l5 -3v-65q-10 5 -25 5q-34 0 -54.5 -21.5t-20.5 -58.5v-15h255v-465q0 -66 -38 -108t-92 -42q-13 0 -24.5 2.5t-15.5 4.5l-5 3v65q10 -5 25 -5q34 0 54.5 21.5t20.5 58.5z
M325 577q0 21 13.5 34.5t33.5 13.5q21 0 34.5 -13.5t13.5 -34.5q0 -20 -13.5 -33.5t-34.5 -13.5q-20 0 -33.5 13.5t-13.5 33.5z" />
    <glyph glyph-name="f_t" unicode="ft" horiz-adv-x="565" 
d="M355 505v65h65v-120h100v-70h-100v-235q0 -37 20.5 -58.5t54.5 -21.5l25 5v-65q-15 -10 -45 -10q-54 0 -92 42t-38 108v235h-190v-380h-75v380h-55v70h55v35q0 66 38 108t92 42q13 0 24.5 -2.5t15.5 -4.5l5 -3v-65q-10 5 -25 5q-34 0 -54.5 -21.5t-20.5 -58.5v-35h145
q55 0 55 55z" />
    <glyph glyph-name="f_h" unicode="fh" horiz-adv-x="780" 
d="M545 455q73 0 124 -55t51 -140v-260h-75v260q0 55 -32 90t-78 35q-53 0 -86.5 -34.5t-33.5 -90.5v-260h-75v550q-30 20 -80 20q-48 0 -76.5 -27.5t-28.5 -72.5v-20h100v-70h-100v-380h-75v380h-55v70h55v20q0 73 51 121.5t129 48.5q22 0 42 -4t29 -8l9 -3h75v-230
q6 7 16.5 17t44 26.5t69.5 16.5z" />
    <glyph glyph-name="f_k" unicode="fk" horiz-adv-x="690" 
d="M415 625v-625h-75v550q-30 20 -80 20q-48 0 -76.5 -27.5t-28.5 -72.5v-20h100v-70h-100v-380h-75v380h-55v70h55v20q0 73 51 121.5t129 48.5q22 0 42 -4t29 -8l9 -3h75zM695 0h-90l-190 235l170 215h85l-170 -210z" />
    <glyph glyph-name="f_b" unicode="fb" horiz-adv-x="795" 
d="M415 50l-20 -50h-55v550q-30 20 -80 20q-48 0 -76.5 -27.5t-28.5 -72.5v-20h100v-70h-100v-380h-75v380h-55v70h55v20q0 73 51 121.5t129 48.5q22 0 42 -4t29 -8l9 -3h75v-230q2 2 5.5 6.5t16 14.5t27 18t38 14.5t48.5 6.5q88 0 149 -65t61 -165t-61 -165t-149 -65
q-25 0 -48.5 5.5t-38.5 13.5t-26.5 16.5t-16.5 13.5zM405 225q0 -70 41 -115t99 -45t99 45t41 115t-41 115t-99 45t-99 -45t-41 -115z" />
    <glyph glyph-name="f_f_h" unicode="ffh" horiz-adv-x="1035" 
d="M800 455q73 0 124 -55t51 -140v-260h-75v260q0 55 -32 90t-78 35q-53 0 -86.5 -34.5t-33.5 -90.5v-260h-75v550q-30 20 -80 20q-48 0 -76.5 -27.5t-28.5 -72.5v-20h100v-70h-100v-380h-75v380h-180v-380h-75v380h-55v70h55v15q0 66 38 108t92 42q13 0 24.5 -2.5
t15.5 -4.5l5 -3v-65q-10 5 -25 5q-34 0 -54.5 -21.5t-20.5 -58.5v-15h180v20q0 73 51 121.5t129 48.5q22 0 42 -4t29 -8l9 -3h75v-230q5 7 15 17t43.5 26.5t71.5 16.5z" />
    <glyph glyph-name="f_f_k" unicode="ffk" horiz-adv-x="945" 
d="M670 625v-625h-75v550q-30 20 -80 20q-48 0 -76.5 -27.5t-28.5 -72.5v-20h100v-70h-100v-380h-75v380h-180v-380h-75v380h-55v70h55v15q0 66 38 108t92 42q13 0 24.5 -2.5t15.5 -4.5l5 -3v-65q-10 5 -25 5q-34 0 -54.5 -21.5t-20.5 -58.5v-15h180v20q0 73 51 121.5
t129 48.5q22 0 42 -4t29 -8l9 -3h75zM950 0h-90l-190 235l170 215h85l-170 -210z" />
    <glyph glyph-name="f_f_b" unicode="ffb" horiz-adv-x="1050" 
d="M670 625v-230q2 2 5.5 6.5t16 14.5t27 18t38 14.5t48.5 6.5q88 0 149 -65t61 -165t-61 -165t-149 -65q-40 0 -73.5 13.5t-47.5 27.5l-14 14l-20 -50h-55v550q-30 20 -80 20q-48 0 -76.5 -27.5t-28.5 -72.5v-20h100v-70h-100v-380h-75v380h-180v-380h-75v380h-55v70h55v15
q0 66 38 108t92 42q13 0 24.5 -2.5t15.5 -4.5l5 -3v-65q-10 5 -25 5q-34 0 -54.5 -21.5t-20.5 -58.5v-15h180v20q0 73 51 121.5t129 48.5q22 0 42 -4t29 -8l9 -3h75zM660 225q0 -70 41 -115t99 -45t99 45t41 115t-41 115t-99 45t-99 -45t-41 -115z" />
    <glyph glyph-name=".notdef" horiz-adv-x="0" 
 />
    <glyph glyph-name=".null" horiz-adv-x="0" 
 />
    <glyph glyph-name=".null" horiz-adv-x="0" 
 />
    <glyph glyph-name="nonmarkingreturn" horiz-adv-x="333" 
 />
    <glyph glyph-name="CR" unicode="&#xd;" horiz-adv-x="0" 
 />
    <glyph glyph-name="space" unicode=" " horiz-adv-x="215" 
 />
    <glyph glyph-name="exclam" unicode="!" horiz-adv-x="260" 
d="M180 630l-20 -480h-60l-20 480h100zM80 45q0 23 14 36.5t36 13.5t36 -13.5t14 -36.5t-14 -36.5t-36 -13.5t-36 13.5t-14 36.5z" />
    <glyph glyph-name="quotedbl" unicode="&#x22;" horiz-adv-x="305" 
d="M50 445v185h70v-185h-70zM185 445v185h70v-185h-70z" />
    <glyph glyph-name="numbersign" unicode="#" horiz-adv-x="600" 
d="M20 180l15 60h115l30 150h-120l15 60h115l35 180h60l-35 -180h150l35 180h60l-35 -180h120l-15 -60h-115l-30 -150h120l-15 -60h-115l-35 -180h-60l35 180h-150l-35 -180h-60l35 180h-120zM240 390l-30 -150h150l30 150h-150z" />
    <glyph glyph-name="dollar" unicode="$" horiz-adv-x="495" 
d="M215 -90v87q-81 10 -128 61t-47 127h80q0 -57 33.5 -88.5t96.5 -31.5q61 0 95.5 28.5t34.5 71.5q0 42 -34.5 68t-83.5 40.5t-98.5 32.5t-84 57.5t-34.5 101.5q0 59 48 108t122 59v88h70v-88q69 -12 114.5 -65t45.5 -122h-80q0 52 -33 86t-82 34q-54 0 -89.5 -30.5
t-35.5 -69.5q0 -42 34.5 -68t83.5 -40.5t98.5 -32.5t84 -57.5t34.5 -101.5q0 -63 -47.5 -110.5t-127.5 -57.5v-87h-70z" />
    <glyph glyph-name="percent" unicode="%" horiz-adv-x="600" 
d="M135 0h-55l385 630h55zM80 505q0 -33 22.5 -56.5t52.5 -23.5t52.5 23.5t22.5 56.5t-22.5 56.5t-52.5 23.5t-52.5 -23.5t-22.5 -56.5zM280 505q0 -53 -36 -89t-89 -36t-89 36t-36 89t36 89t89 36t89 -36t36 -89zM370 125q0 -33 22.5 -56.5t52.5 -23.5t52.5 23.5t22.5 56.5
t-22.5 56.5t-52.5 23.5t-52.5 -23.5t-22.5 -56.5zM570 125q0 -53 -36 -89t-89 -36t-89 36t-36 89t36 89t89 36t89 -36t36 -89z" />
    <glyph glyph-name="ampersand" unicode="&#x26;" horiz-adv-x="530" 
d="M560 0h-95l-85 85q-2 -4 -7 -10t-21 -21.5t-34.5 -27.5t-47.5 -21.5t-60 -9.5q-74 0 -119.5 42.5t-45.5 107.5q0 29 11.5 58t27.5 49t32 36t28 24l11 8l-45 50q-6 5 -14 14.5t-22 39.5t-14 61q0 57 45 101t105 44t102.5 -42.5t42.5 -102.5q0 -31 -16.5 -62.5t-32.5 -46.5
l-16 -16l-44 -40l129 -130l60 100h85l-95 -150zM170 400l35 -35l40 35q40 35 40 85q0 31 -21 53t-54 22t-56.5 -22.5t-23.5 -52.5q0 -20 10 -41.5t20 -32.5zM210 60q32 0 64.5 17.5t49.5 34.5l16 18l-135 140l-9 -6t-20.5 -16.5t-26 -26t-20.5 -34.5t-9 -42q0 -35 25 -60
t65 -25z" />
    <glyph glyph-name="quotesingle" unicode="'" horiz-adv-x="170" 
d="M50 445v185h70v-185h-70z" />
    <glyph glyph-name="parenleft" unicode="(" horiz-adv-x="265" 
d="M125 225q0 -57 12.5 -118t30 -106.5t35 -83t29.5 -57.5l13 -20l-50 -35q-6 7 -15.5 20.5t-33.5 56.5t-42.5 89.5t-33.5 115.5t-15 138t14.5 137.5t35 117t41 87.5t34.5 59l15 19l50 -35q-5 -7 -13 -20.5t-28.5 -55.5t-36.5 -85t-29 -105t-13 -119z" />
    <glyph glyph-name="parenright" unicode=")" horiz-adv-x="265" 
d="M140 225q0 57 -12.5 118t-30 106.5t-35 83t-30.5 57.5l-12 20l50 35q6 -7 15.5 -20.5t33.5 -56.5t42.5 -89.5t33.5 -115.5t15 -138t-14.5 -137.5t-35 -117t-41 -87.5t-35.5 -59l-14 -19l-50 35q5 7 13 20.5t28.5 55.5t36.5 85t29 105t13 119z" />
    <glyph glyph-name="asterisk" unicode="*" horiz-adv-x="330" 
d="M165 446l-50 -91l-55 35l70 85l-105 25l20 55l95 -35l-5 110h60l-5 -110l95 35l20 -55l-105 -25l70 -85l-55 -35z" />
    <glyph glyph-name="plus" unicode="+" horiz-adv-x="440" 
d="M255 60h-70v165h-155v65h155v165h70v-165h155v-65h-155v-165z" />
    <glyph glyph-name="comma" unicode="," horiz-adv-x="170" 
d="M85 -5q-23 0 -36.5 13.5t-13.5 36.5t13.5 36.5t36.5 13.5t36.5 -13.5t13.5 -36.5q0 -42 -20 -77t-40 -49l-20 -14l-10 15q35 30 40 75z" />
    <glyph glyph-name="hyphen" unicode="-" horiz-adv-x="345" 
d="M310 290v-65h-275v65h275z" />
    <glyph glyph-name="period" unicode="." horiz-adv-x="170" 
d="M35 45q0 23 13.5 36.5t36.5 13.5t36.5 -13.5t13.5 -36.5t-13.5 -36.5t-36.5 -13.5t-36.5 13.5t-13.5 36.5z" />
    <glyph glyph-name="slash" unicode="/" horiz-adv-x="330" 
d="M330 630l-260 -810h-70l260 810h70z" />
    <glyph glyph-name="zero" unicode="0" horiz-adv-x="560" 
d="M115 315q0 -121 48 -185.5t117 -64.5t117 64.5t48 185.5t-48 185.5t-117 64.5t-117 -64.5t-48 -185.5zM525 315q0 -148 -71.5 -234t-173.5 -86t-173.5 86t-71.5 234t71.5 234t173.5 86t173.5 -86t71.5 -234z" />
    <glyph glyph-name="one" unicode="1" horiz-adv-x="310" 
d="M180 630h50v-630h-80v520l-90 -60l-35 60z" />
    <glyph glyph-name="two" unicode="2" horiz-adv-x="480" 
d="M150 70h285v-70h-390v60l250 275q7 7 17 18.5t26.5 44.5t16.5 62q0 46 -31.5 75.5t-83.5 29.5t-86 -33.5t-34 -86.5h-80q0 79 57.5 134.5t142.5 55.5t140 -51t55 -124q0 -40 -21.5 -82.5t-42.5 -65.5l-21 -22z" />
    <glyph glyph-name="three" unicode="3" horiz-adv-x="485" 
d="M115 470h-80q8 70 61.5 117.5t133.5 47.5q85 0 140 -51t55 -124q0 -25 -9.5 -48t-22.5 -37t-26 -25t-23 -16l-9 -4q4 -2 11.5 -5t26.5 -16.5t33.5 -29.5t26.5 -44t12 -60q0 -73 -59.5 -126.5t-150.5 -53.5q-83 0 -138 47t-67 118h80q8 -40 41.5 -67.5t83.5 -27.5
q58 0 94 32t36 78q0 47 -35.5 78.5t-94.5 31.5h-35v70h30q52 0 83.5 29.5t31.5 75.5t-31.5 75.5t-83.5 29.5q-47 0 -79 -28t-36 -67z" />
    <glyph glyph-name="four" unicode="4" horiz-adv-x="480" 
d="M455 205v-70h-70v-135h-80v135h-280v65l265 430h95v-425h70zM115 205h190v310z" />
    <glyph glyph-name="five" unicode="5" horiz-adv-x="500" 
d="M260 415q83 0 141.5 -60.5t58.5 -149.5q0 -90 -60 -150t-150 -60q-83 0 -138 47t-67 118h80q8 -40 41.5 -67.5t83.5 -27.5q56 0 93 38.5t37 101.5t-36.5 101.5t-93.5 38.5q-25 0 -46.5 -7.5t-34.5 -18.5t-22.5 -22.5t-12.5 -18.5l-4 -8h-70l40 360h320v-75h-250l-20 -180
q4 4 13 11t37.5 18t59.5 11z" />
    <glyph glyph-name="six" unicode="6" horiz-adv-x="495" 
d="M250 -5q-90 0 -152.5 62.5t-62.5 152.5q0 36 13.5 73.5t27.5 56.5l14 20l180 270h85l-140 -210q15 5 35 5q90 0 152.5 -62.5t62.5 -152.5t-62.5 -152.5t-152.5 -62.5zM115 210q0 -62 39 -103.5t96 -41.5t96 41t39 104q0 60 -39 100t-96 40t-96 -40t-39 -100z" />
    <glyph glyph-name="seven" unicode="7" horiz-adv-x="440" 
d="M35 630h380v-55l-265 -575h-85l260 560h-290v70z" />
    <glyph glyph-name="eight" unicode="8" 
d="M245 -5q-92 0 -151 54t-59 131q0 34 11.5 62.5t27.5 46t32 29.5t28 17l11 5q-3 1 -9 3.5t-20.5 13.5t-26 24t-20.5 37t-9 52q0 65 54 115t131 50t131 -50t54 -115q0 -44 -21.5 -76.5t-42.5 -43.5l-21 -10q4 -2 11.5 -5t26.5 -16.5t33.5 -30t26.5 -45.5t12 -63
q0 -77 -59 -131t-151 -54zM245 300q-59 0 -94.5 -32.5t-35.5 -82.5q0 -53 35.5 -86.5t94.5 -33.5t94.5 33.5t35.5 86.5q0 50 -35.5 82.5t-94.5 32.5zM245 370q44 0 74.5 28.5t30.5 66.5q0 42 -30 71t-75 29t-75 -29t-30 -71q0 -38 30.5 -66.5t74.5 -28.5z" />
    <glyph glyph-name="nine" unicode="9" horiz-adv-x="495" 
d="M245 635q90 0 152.5 -62.5t62.5 -152.5q0 -36 -14 -73.5t-28 -56.5l-13 -20l-180 -270h-85l140 210q-15 -5 -35 -5q-90 0 -152.5 62.5t-62.5 152.5t62.5 152.5t152.5 62.5zM380 420q0 62 -39 103.5t-96 41.5t-96 -41t-39 -104q0 -60 39 -100t96 -40t96 40t39 100z" />
    <glyph glyph-name="colon" unicode=":" horiz-adv-x="170" 
d="M35 45q0 23 13.5 36.5t36.5 13.5t36.5 -13.5t13.5 -36.5t-13.5 -36.5t-36.5 -13.5t-36.5 13.5t-13.5 36.5zM35 400q0 22 13.5 36t36.5 14t36.5 -14t13.5 -36t-13.5 -36t-36.5 -14t-36.5 14t-13.5 36z" />
    <glyph glyph-name="semicolon" unicode=";" horiz-adv-x="170" 
d="M35 400q0 22 13.5 36t36.5 14t36.5 -14t13.5 -36t-13.5 -36t-36.5 -14t-36.5 14t-13.5 36zM85 -5q-23 0 -36.5 13.5t-13.5 36.5t13.5 36.5t36.5 13.5t36.5 -13.5t13.5 -36.5q0 -42 -20 -77t-40 -49l-20 -14l-10 15q35 30 40 75z" />
    <glyph glyph-name="less" unicode="&#x3c;" horiz-adv-x="440" 
d="M130 220l265 -140v-75l-350 190v50l350 190v-75z" />
    <glyph glyph-name="equal" unicode="=" horiz-adv-x="435" 
d="M30 385h375v-70h-375v70zM30 130v70h375v-70h-375z" />
    <glyph glyph-name="greater" unicode="&#x3e;" horiz-adv-x="440" 
d="M45 80l265 140l-265 140v75l350 -190v-50l-350 -190v75z" />
    <glyph glyph-name="question" unicode="?" horiz-adv-x="430" 
d="M395 469q0 -44 -15 -76t-36.5 -52.5t-42.5 -41t-36 -53t-15 -76.5v-5h-80v5q0 53 15 91t36 60t42.5 41t36.5 45.5t15 61.5q0 42 -27 69t-68 27q-50 0 -77.5 -31.5t-27.5 -93.5v-10h-80v10q0 92 50.5 143.5t134.5 51.5q75 0 125 -47t50 -119zM160 45q0 23 14 36.5t36 13.5
t36 -13.5t14 -36.5t-14 -36.5t-36 -13.5t-36 13.5t-14 36.5z" />
    <glyph glyph-name="at" unicode="@" horiz-adv-x="740" 
d="M470 116q-4 -7 -13 -17t-39 -27t-63 -17q-61 0 -105.5 48.5t-44.5 121.5t44.5 121.5t105.5 48.5q20 0 38 -5.5t29.5 -13.5t20.5 -16.5t13 -13.5l4 -6l15 50h45v-197q0 -41 15.5 -62t39.5 -21q70 0 70 125q0 109 -80.5 189.5t-189.5 80.5q-110 0 -190 -82.5t-80 -197.5
t80 -197.5t190 -82.5q36 0 71 11t52 22l17 12l30 -50q-9 -6 -25 -14t-60.5 -22t-84.5 -14q-139 0 -237 98t-98 237t98 237t237 98q138 0 236.5 -96.5t98.5 -228.5q0 -86 -38 -133t-97 -47q-21 0 -39.5 6.5t-30 15.5t-20 17.5t-11.5 15.5zM265 225q0 -48 29 -79t71 -31
q44 0 72 29.5t28 80.5t-28 80.5t-72 29.5q-42 0 -71 -31t-29 -79z" />
    <glyph glyph-name="A" unicode="A" horiz-adv-x="550" 
d="M465 0l-60 155h-260l-60 -155h-85l240 630h70l240 -630h-85zM275 500l-105 -275h210z" />
    <glyph glyph-name="B" unicode="B" horiz-adv-x="560" 
d="M425 335q4 -2 10.5 -5t22.5 -16.5t28.5 -29.5t23 -44t10.5 -60q0 -72 -58 -126t-142 -54h-240v630h235q78 0 129 -49t51 -121q0 -40 -17.5 -71t-35.5 -43zM160 560v-195h155q44 0 74.5 28.5t30.5 66.5q0 42 -30 71t-75 29h-155zM160 70h160q52 0 86 33t34 82q0 46 -34 78
t-86 32h-160v-225z" />
    <glyph glyph-name="C" unicode="C" horiz-adv-x="630" 
d="M330 565q-85 0 -150 -72t-65 -178t65 -178t150 -72q72 0 120.5 41t64.5 104h85q-28 -95 -98.5 -155t-171.5 -60q-118 0 -206.5 93.5t-88.5 226.5t88.5 226.5t206.5 93.5q97 0 167 -60.5t98 -154.5h-85q-16 63 -63.5 104t-116.5 41z" />
    <glyph glyph-name="D" unicode="D" horiz-adv-x="595" 
d="M160 70h95q88 0 154 71t66 174t-66 174t-154 71h-95v-490zM555 315q0 -134 -87.5 -224.5t-212.5 -90.5h-175v630h175q125 0 212.5 -90.5t87.5 -224.5z" />
    <glyph glyph-name="E" unicode="E" horiz-adv-x="540" 
d="M160 70h330v-70h-410v630h400v-70h-320v-200h295v-70h-295v-220z" />
    <glyph glyph-name="F" unicode="F" horiz-adv-x="500" 
d="M465 560h-305v-210h250v-70h-250v-280h-80v630h385v-70z" />
    <glyph glyph-name="G" unicode="G" horiz-adv-x="675" 
d="M335 565q-85 0 -150 -72t-65 -178t65 -178t150 -72q74 0 132 56t58 124h-185v70h265v-315h-60l-20 75l-8.5 -8.5t-24 -19.5t-39 -24.5t-52.5 -19t-66 -8.5q-118 0 -206.5 93.5t-88.5 226.5t88.5 226.5t206.5 93.5q101 0 167 -55t98 -150h-85q-42 135 -180 135z" />
    <glyph glyph-name="H" unicode="H" horiz-adv-x="625" 
d="M465 630h80v-630h-80v285h-305v-285h-80v630h80v-275h305v275z" />
    <glyph glyph-name="I" unicode="I" horiz-adv-x="240" 
d="M160 630v-630h-80v630h80z" />
    <glyph glyph-name="J" unicode="J" horiz-adv-x="460" 
d="M310 631h80v-461q0 -72 -54.5 -123.5t-135.5 -51.5t-135.5 51.5t-54.5 123.5h80q4 -45 34.5 -75t75.5 -30q48 0 79 30t31 75v461z" />
    <glyph glyph-name="K" unicode="K" horiz-adv-x="515" 
d="M160 630v-630h-80v630h80zM425 0l-265 320l245 310h95l-250 -310l270 -320h-95z" />
    <glyph glyph-name="L" unicode="L" horiz-adv-x="470" 
d="M160 70h300v-70h-380v630h80v-560z" />
    <glyph glyph-name="M" unicode="M" horiz-adv-x="760" 
d="M380 125l235 505h65v-630h-80v425l-195 -425h-50l-195 425v-425h-80v630h65z" />
    <glyph glyph-name="N" unicode="N" horiz-adv-x="625" 
d="M465 630h80v-630h-70l-315 475v-475h-80v630h70l315 -475v475z" />
    <glyph glyph-name="O" unicode="O" horiz-adv-x="660" 
d="M115 315q0 -106 65 -178t150 -72t150 72t65 178t-65 178t-150 72t-150 -72t-65 -178zM625 315q0 -133 -88.5 -226.5t-206.5 -93.5t-206.5 93.5t-88.5 226.5t88.5 226.5t206.5 93.5t206.5 -93.5t88.5 -226.5z" />
    <glyph glyph-name="P" unicode="P" horiz-adv-x="535" 
d="M80 630h215q82 0 141 -58t59 -137t-59 -137t-141 -58h-135v-240h-80v630zM160 310h135q49 0 84.5 36.5t35.5 88.5t-35.5 88.5t-84.5 36.5h-135v-250z" />
    <glyph glyph-name="Q" unicode="Q" horiz-adv-x="670" 
d="M565 -25l-75 75q-7 -6 -20.5 -15t-55.5 -24.5t-84 -15.5q-118 0 -206.5 93.5t-88.5 226.5t88.5 226.5t206.5 93.5t206.5 -93.5t88.5 -226.5q0 -38 -8 -74t-20 -60.5t-24 -43.5t-20 -28l-8 -9l70 -70zM115 315q0 -106 65 -178t150 -72q29 0 56.5 8.5t40.5 17.5l13 9
l-65 65l50 55l70 -70q6 7 14 19.5t22 55.5t14 90q0 106 -65 178t-150 72t-150 -72t-65 -178z" />
    <glyph glyph-name="R" unicode="R" horiz-adv-x="555" 
d="M430 0l-150 260h-120v-260h-80v630h235q78 0 134 -55t56 -130q0 -41 -14.5 -74.5t-34.5 -52t-40.5 -31.5t-35.5 -17l-14 -5l154 -265h-90zM160 560v-230h155q45 0 77.5 33.5t32.5 81.5t-32.5 81.5t-77.5 33.5h-155z" />
    <glyph glyph-name="S" unicode="S" horiz-adv-x="495" 
d="M45 465q0 66 59 118t146 52q82 0 138.5 -55.5t56.5 -134.5h-80q0 52 -33 86t-82 34q-54 0 -89.5 -30.5t-35.5 -69.5q0 -42 34.5 -68t83.5 -40.5t98.5 -32.5t84 -57.5t34.5 -101.5q0 -70 -58 -120t-152 -50q-96 0 -153 53t-57 137h80q0 -57 33.5 -88.5t96.5 -31.5
q61 0 95.5 28.5t34.5 71.5q0 42 -34.5 68t-83.5 40.5t-98.5 32.5t-84 57.5t-34.5 101.5z" />
    <glyph glyph-name="T" unicode="T" 
d="M475 630v-70h-190v-560h-80v560h-190v70h460z" />
    <glyph glyph-name="U" unicode="U" horiz-adv-x="600" 
d="M300 -5q-101 0 -165.5 63.5t-64.5 161.5v410h80v-410q0 -71 41 -113t109 -42t109 42t41 113v410h80v-410q0 -98 -64.5 -161.5t-165.5 -63.5z" />
    <glyph glyph-name="V" unicode="V" horiz-adv-x="560" 
d="M550 630l-230 -630h-80l-230 630h85l185 -515l185 515h85z" />
    <glyph glyph-name="W" unicode="W" horiz-adv-x="780" 
d="M520 0l-130 455l-130 -455h-55l-195 630h85l140 -455l130 455h50l130 -455l140 455h85l-195 -630h-55z" />
    <glyph glyph-name="X" unicode="X" horiz-adv-x="520" 
d="M10 0l205 320l-195 310h90l150 -240l150 240h90l-195 -310l205 -320h-95l-155 250l-155 -250h-95z" />
    <glyph glyph-name="Y" unicode="Y" horiz-adv-x="500" 
d="M210 245l-200 385h85l155 -300l155 300h85l-200 -385v-245h-80v245z" />
    <glyph glyph-name="Z" unicode="Z" horiz-adv-x="485" 
d="M440 580l-310 -510h325v-70h-425v50l310 510h-300v70h400v-50z" />
    <glyph glyph-name="bracketleft" unicode="[" horiz-adv-x="285" 
d="M150 565v-680h115v-65h-185v810h185v-65h-115z" />
    <glyph glyph-name="backslash" unicode="\" horiz-adv-x="330" 
d="M260 -180l-260 810h70l260 -810h-70z" />
    <glyph glyph-name="bracketright" unicode="]" horiz-adv-x="285" 
d="M135 -115v680h-115v65h185v-810h-185v65h115z" />
    <glyph glyph-name="asciicircum" unicode="^" horiz-adv-x="380" 
d="M340 345h-60l-90 190l-90 -190h-60l135 285h30z" />
    <glyph glyph-name="underscore" unicode="_" horiz-adv-x="260" 
d="M280 -105v-60h-300v60h300z" />
    <glyph glyph-name="grave" unicode="`" horiz-adv-x="195" 
d="M105 630l60 -120h-50l-85 120h75z" />
    <glyph glyph-name="a" unicode="a" horiz-adv-x="465" 
d="M235 455q74 0 122 -45t48 -110v-300h-55l-20 50q-5 -6 -15 -15t-45 -24.5t-75 -15.5q-66 0 -108 39t-42 96q0 70 63 107.5t222 37.5v25q0 34 -27.5 59.5t-67.5 25.5q-74 0 -90 -65h-80q8 59 53 97t117 38zM195 65q57 0 96 32.5t39 72.5v35q-126 0 -168 -19t-42 -61
q0 -24 21 -42t54 -18z" />
    <glyph glyph-name="b" unicode="b" horiz-adv-x="525" 
d="M135 225q0 -70 41 -115t99 -45t99 45t41 115t-41 115t-99 45t-99 -45t-41 -115zM145 50l-20 -50h-55v630h75v-235q2 2 5.5 6.5t16 14.5t27 18t38 14.5t48.5 6.5q88 0 149 -65t61 -165t-61 -165t-149 -65q-25 0 -48.5 5.5t-38.5 13.5t-26.5 16.5t-16.5 13.5z" />
    <glyph glyph-name="c" unicode="c" horiz-adv-x="470" 
d="M245 385q-54 0 -94.5 -45.5t-40.5 -114.5t40.5 -114.5t94.5 -45.5q43 0 75.5 27.5t44.5 67.5h75q-16 -70 -69 -117.5t-126 -47.5q-88 0 -149 65t-61 165t61 165t149 65q73 0 126 -47.5t69 -117.5h-75q-12 40 -44.5 67.5t-75.5 27.5z" />
    <glyph glyph-name="d" unicode="d" horiz-adv-x="525" 
d="M390 225q0 70 -41 115t-99 45t-99 -45t-41 -115t41 -115t99 -45t99 45t41 115zM400 0l-20 50q-5 -6 -15 -15t-45 -24.5t-75 -15.5q-88 0 -149 65t-61 165t61 165t149 65q40 0 73.5 -15t47.5 -30l14 -15v235h75v-630h-55z" />
    <glyph glyph-name="e" unicode="e" horiz-adv-x="475" 
d="M350 120h80q-25 -54 -72 -89.5t-113 -35.5q-88 0 -149 65t-61 165q0 99 60.5 164.5t144.5 65.5t142 -63t58 -162l-5 -40h-320q4 -49 43 -87t87 -38q64 0 105 55zM240 385q-45 0 -81.5 -37t-43.5 -93h245q-7 59 -40.5 94.5t-79.5 35.5z" />
    <glyph glyph-name="f" unicode="f" horiz-adv-x="275" 
d="M255 450v-70h-100v-380h-75v380h-55v70h55v35q0 66 38 108t92 42q13 0 24.5 -2.5t15.5 -4.5l5 -3v-65q-10 5 -25 5q-34 0 -54.5 -21.5t-20.5 -58.5v-35h100z" />
    <glyph glyph-name="g" unicode="g" horiz-adv-x="505" 
d="M370 15v60q-2 -2 -5 -6.5t-15 -14.5t-25.5 -18t-36.5 -14.5t-48 -6.5q-87 0 -146 62t-59 158t59 158t146 62q40 0 72.5 -13.5t45.5 -27.5l12 -14l20 50h55v-435q0 -80 -55.5 -132.5t-144.5 -52.5q-75 0 -122 37.5t-63 97.5h75q28 -65 110 -65q55 0 90 33t35 82zM110 235
q0 -66 39 -108t96 -42t96 42t39 108t-39 108t-96 42t-96 -42t-39 -108z" />
    <glyph glyph-name="h" unicode="h" horiz-adv-x="510" 
d="M275 455q73 0 124 -55t51 -140v-260h-75v260q0 55 -32 90t-78 35q-53 0 -86.5 -34.5t-33.5 -90.5v-260h-75v630h75v-235q5 7 15 17t43.5 26.5t71.5 16.5z" />
    <glyph glyph-name="i" unicode="i" horiz-adv-x="205" 
d="M140 450v-450h-75v450h75zM55 577q0 21 13.5 34.5t33.5 13.5q21 0 34.5 -13.5t13.5 -34.5q0 -20 -13.5 -33.5t-34.5 -13.5q-20 0 -33.5 13.5t-13.5 33.5z" />
    <glyph glyph-name="j" unicode="j" horiz-adv-x="205" 
d="M65 -15v465h75v-465q0 -66 -38 -108t-92 -42q-13 0 -24.5 2.5t-15.5 4.5l-5 3v65q10 -5 25 -5q34 0 54.5 21.5t20.5 58.5zM55 577q0 21 13.5 34.5t33.5 13.5q21 0 34.5 -13.5t13.5 -34.5q0 -20 -13.5 -33.5t-34.5 -13.5q-20 0 -33.5 13.5t-13.5 33.5z" />
    <glyph glyph-name="k" unicode="k" horiz-adv-x="420" 
d="M145 630v-630h-75v630h75zM425 0h-90l-190 235l170 215h85l-170 -210z" />
    <glyph glyph-name="l" unicode="l" horiz-adv-x="215" 
d="M145 630v-630h-75v630h75z" />
    <glyph glyph-name="m" unicode="m" horiz-adv-x="720" 
d="M510 455q62 0 106 -51t44 -134v-270h-75v270q0 54 -25.5 84.5t-64.5 30.5t-67 -32t-28 -83v-270h-75v270q0 54 -25.5 84.5t-64.5 30.5q-38 0 -66.5 -33t-28.5 -82v-270h-75v450h55l20 -50q1 2 4 6t13 13.5t22 16.5t31 13t40 6q40 0 71 -20t43 -40l11 -20q2 3 5 8.5
t15 19.5t26.5 24.5t38 19t50.5 8.5z" />
    <glyph glyph-name="n" unicode="n" horiz-adv-x="505" 
d="M270 455q73 0 124 -55t51 -140v-260h-75v260q0 55 -32 90t-78 35q-53 0 -86.5 -34.5t-33.5 -90.5v-260h-75v450h55l20 -50q5 6 15 15t43.5 24.5t71.5 15.5z" />
    <glyph glyph-name="o" unicode="o" 
d="M110 225q0 -69 40.5 -114.5t94.5 -45.5t94.5 45.5t40.5 114.5t-40.5 114.5t-94.5 45.5t-94.5 -45.5t-40.5 -114.5zM455 225q0 -100 -61 -165t-149 -65t-149 65t-61 165t61 165t149 65t149 -65t61 -165z" />
    <glyph glyph-name="p" unicode="p" horiz-adv-x="520" 
d="M130 225q0 -70 41 -115t99 -45t99 45t41 115t-41 115t-99 45t-99 -45t-41 -115zM120 450l20 -50q5 6 15 15t45 24.5t75 15.5q88 0 149 -65t61 -165t-61 -165t-149 -65q-40 0 -73.5 15t-47.5 30l-14 15v-215h-75v610h55z" />
    <glyph glyph-name="q" unicode="q" horiz-adv-x="520" 
d="M390 225q0 70 -41 115t-99 45t-99 -45t-41 -115t41 -115t99 -45t99 45t41 115zM380 400l20 50h55v-610h-75v215q-2 -2 -5.5 -6.5t-16 -14.5t-27 -18t-38 -14.5t-48.5 -6.5q-88 0 -149 65t-61 165t61 165t149 65q40 0 73.5 -13.5t47.5 -27.5z" />
    <glyph glyph-name="r" unicode="r" horiz-adv-x="300" 
d="M280 455v-75h-20q-53 0 -86.5 -34.5t-33.5 -90.5v-255h-75v450h55l20 -50q5 6 15 15t43.5 24.5t71.5 15.5h10z" />
    <glyph glyph-name="s" unicode="s" horiz-adv-x="395" 
d="M360 130q0 -58 -42.5 -96.5t-112.5 -38.5q-73 0 -117 39t-48 101h75q4 -31 27 -50.5t63 -19.5q36 0 58 19t22 46t-24 41.5t-58.5 22t-69.5 17.5t-59 38.5t-24 75.5q0 54 42 92t108 38q70 0 110.5 -37t44.5 -98h-75q-8 65 -80 65q-32 0 -53.5 -18t-21.5 -42
q0 -27 24 -41.5t58.5 -22t69.5 -17.5t59 -38.5t24 -75.5z" />
    <glyph glyph-name="t" unicode="t" horiz-adv-x="320" 
d="M110 505v65h65v-120h100v-70h-100v-235q0 -37 20.5 -58.5t54.5 -21.5l25 5v-65q-15 -10 -45 -10q-54 0 -92 42t-38 108v235h-80v70h35q55 0 55 55z" />
    <glyph glyph-name="u" unicode="u" horiz-adv-x="510" 
d="M240 -5q-73 0 -124 55t-51 140v260h75v-260q0 -55 32 -90t78 -35q53 0 86.5 34.5t33.5 90.5v260h75v-450h-55l-20 50q-5 -6 -15 -15t-43.5 -24.5t-71.5 -15.5z" />
    <glyph glyph-name="v" unicode="v" horiz-adv-x="450" 
d="M360 450h80l-180 -450h-70l-180 450h80l135 -345z" />
    <glyph glyph-name="w" unicode="w" horiz-adv-x="640" 
d="M320 320l-100 -320h-60l-150 450h80l105 -320l100 320h50l100 -320l105 320h80l-150 -450h-60z" />
    <glyph glyph-name="x" unicode="x" horiz-adv-x="410" 
d="M400 450l-150 -220l160 -230h-85l-120 175l-120 -175h-85l160 230l-150 220h85l110 -165l110 165h85z" />
    <glyph glyph-name="y" unicode="y" horiz-adv-x="450" 
d="M185 10l-175 440h80l135 -345l135 345h80l-195 -490q-27 -68 -56.5 -96.5t-73.5 -28.5l-30 5v60q32 0 49.5 14t30.5 46z" />
    <glyph glyph-name="z" unicode="z" horiz-adv-x="380" 
d="M30 65l220 315h-220v70h310v-65l-220 -315h230v-70h-320v65z" />
    <glyph glyph-name="braceleft" unicode="{" horiz-adv-x="300" 
d="M45 195v60q55 0 55 55v195q0 60 33.5 92.5t96.5 32.5h50v-65h-52q-25 0 -41.5 -17t-16.5 -43v-195q0 -31 -15 -52.5t-30 -27.5l-15 -5q2 -1 6.5 -2t14.5 -7.5t18 -15t14.5 -24.5t6.5 -36v-195q0 -26 16.5 -43t41.5 -17h52v-65h-50q-63 0 -96.5 32.5t-33.5 92.5v195
q0 55 -55 55z" />
    <glyph glyph-name="bar" unicode="|" horiz-adv-x="310" 
d="M190 630v-790h-70v790h70z" />
    <glyph glyph-name="braceright" unicode="}" horiz-adv-x="300" 
d="M255 255v-60q-55 0 -55 -55v-195q0 -60 -33.5 -92.5t-96.5 -32.5h-50v65h52q25 0 41.5 17t16.5 43v195q0 31 15 52.5t30 27.5l15 5q-2 1 -6.5 2t-14.5 7.5t-18 15t-14.5 24.5t-6.5 36v195q0 26 -16.5 43t-41.5 17h-52v65h50q63 0 96.5 -32.5t33.5 -92.5v-195
q0 -55 55 -55z" />
    <glyph glyph-name="asciitilde" unicode="~" horiz-adv-x="440" 
d="M115 270q-23 0 -39 -18t-16 -47h-60q0 63 31 96.5t84 33.5q38 0 112 -35t93 -35q27 0 43.5 17.5t16.5 47.5h60q0 -63 -31.5 -96.5t-88.5 -33.5q-34 0 -108 35t-97 35z" />
    <glyph glyph-name="nbspace" unicode="&#xa0;" horiz-adv-x="215" 
 />
    <glyph glyph-name="exclamdown" unicode="&#xa1;" horiz-adv-x="260" 
d="M160 300l20 -460h-100l20 460h60zM80 405q0 23 14 36.5t36 13.5t36 -13.5t14 -36.5t-14 -36.5t-36 -13.5t-36 13.5t-14 36.5z" />
    <glyph glyph-name="cent" unicode="&#xa2;" horiz-adv-x="470" 
d="M245 385q-54 0 -94.5 -45.5t-40.5 -114.5t40.5 -114.5t94.5 -45.5q43 0 75.5 27.5t44.5 67.5h75q-30 -129 -155 -160v-90h-75v90q-75 12 -125 71.5t-50 153.5t50 153.5t125 71.5v90h75v-90q125 -31 155 -160h-75q-12 40 -44.5 67.5t-75.5 27.5z" />
    <glyph glyph-name="sterling" unicode="&#xa3;" horiz-adv-x="525" 
d="M190 250v-110q0 -22 -10 -39.5t-20 -24.5l-10 -6h335v-70h-435v70q23 0 41.5 20.5t18.5 49.5v110h-55v70h55v130q0 76 56.5 130.5t138.5 54.5q74 0 130 -53t60 -122h-80q-4 45 -34.5 75t-75.5 30q-49 0 -82 -33t-33 -82v-130h170v-70h-170z" />
    <glyph glyph-name="currency" unicode="&#xa4;" horiz-adv-x="550" 
d="M25 250v70h75v310h210q85 0 142.5 -55.5t57.5 -134.5t-57.5 -134.5t-142.5 -55.5h-130v-80h190v-70h-190v-100h-80v100h-75v70h75v80h-75zM180 320h130q52 0 86 34t34 86q0 53 -33.5 86.5t-86.5 33.5h-130v-240z" />
    <glyph glyph-name="yen" unicode="&#xa5;" horiz-adv-x="510" 
d="M430 240h-135v-65h134v-70h-134v-105h-80v105h-135v70h135v65h-135v70h100l-165 320h85l155 -300l155 300h85l-165 -320h100v-70z" />
    <glyph glyph-name="brokenbar" unicode="&#xa6;" horiz-adv-x="320" 
d="M120 630h70v-310h-70v310zM120 -160v310h80v-310h-80z" />
    <glyph glyph-name="section" unicode="&#xa7;" horiz-adv-x="470" 
d="M425 245q0 -42 -26.5 -74.5t-52.5 -44.5l-26 -11q3 -1 8 -2.5t18 -9.5t23 -18t18 -29t8 -41q0 -54 -44.5 -94.5t-110.5 -40.5t-109 39t-51 101h70q4 -31 29 -53t61 -22q40 0 62.5 19.5t22.5 50.5q0 30 -29 50t-70 33t-82 30t-70 51.5t-29 85.5q0 27 11 50.5t26 38.5
t30.5 26t26.5 16l11 4q-3 1 -7 3t-15.5 10t-20 18.5t-15.5 30t-7 43.5q0 50 43 90t102 40q66 0 106.5 -36t48.5 -94h-70q-4 28 -26.5 46.5t-58.5 18.5q-33 0 -54 -19t-21 -46q0 -31 28 -52.5t67.5 -36t79 -32.5t67.5 -53t28 -86zM120 265q0 -41 27.5 -64t102.5 -46
q4 1 11 2.5t24 8t30 15.5t24 26t11 38q0 42 -28 67.5t-102 47.5q-4 -1 -11 -2.5t-24 -9t-30 -17.5t-24 -27.5t-11 -38.5z" />
    <glyph glyph-name="dieresis" unicode="&#xa8;" horiz-adv-x="300" 
d="M75 535q-19 0 -32 13t-13 32t13 32t32 13t32 -13t13 -32t-13 -32t-32 -13zM225 535q-19 0 -32 13t-13 32t13 32t32 13t32 -13t13 -32t-13 -32t-32 -13z" />
    <glyph glyph-name="copyright" unicode="&#xa9;" horiz-adv-x="690" 
d="M100 315q0 -111 73 -188t172 -77t172 77t73 188t-73 188t-172 77t-172 -77t-73 -188zM250 315q0 -50 28.5 -82.5t66.5 -32.5q68 0 85 60h60q-12 -47 -51 -81t-89 -34q-61 0 -108 50t-47 120t47 120t108 50q50 0 89 -34t51 -81h-60q-17 60 -85 60q-38 0 -66.5 -32.5
t-28.5 -82.5zM650 315q0 -134 -90 -227t-215 -93t-215 93t-90 227t90 227t215 93t215 -93t90 -227z" />
    <glyph glyph-name="ordfeminine" unicode="&#xaa;" horiz-adv-x="280" 
d="M145 635q44 0 74.5 -28.5t30.5 -66.5v-160h-40l-10 30q-25 -35 -75 -35q-40 0 -65 20t-25 50q0 44 35.5 67t124.5 23v5q0 19 -14 32t-36 13q-40 0 -50 -30h-50q0 31 28.5 55.5t71.5 24.5zM195 480v15q-110 0 -110 -40q0 -35 50 -35q26 0 43 17t17 43z" />
    <glyph glyph-name="guillemotleft" unicode="&#xab;" horiz-adv-x="440" 
d="M110 225l110 -160h-75l-110 160l110 160h75zM295 225l110 -160h-75l-110 160l110 160h75z" />
    <glyph glyph-name="logicalnot" unicode="&#xac;" horiz-adv-x="440" 
d="M15 380h410v-200h-70v135h-340v65z" />
    <glyph glyph-name="uni00AD" unicode="&#xad;" horiz-adv-x="345" 
d="M310 290v-65h-275v65h275z" />
    <glyph glyph-name="registered" unicode="&#xae;" horiz-adv-x="690" 
d="M465 375q0 -21 -7.5 -38.5t-18.5 -27.5t-22.5 -17t-18.5 -10l-8 -2l85 -130h-60l-80 120h-40v-120h-55v330h115q45 0 77.5 -31.5t32.5 -73.5zM295 320h60q23 0 39 16t16 39t-16 39t-39 16h-60v-110zM100 315q0 -111 73 -188t172 -77t172 77t73 188t-73 188t-172 77
t-172 -77t-73 -188zM650 315q0 -134 -90 -227t-215 -93t-215 93t-90 227t90 227t215 93t215 -93t90 -227z" />
    <glyph glyph-name="macron" unicode="&#xaf;" horiz-adv-x="300" 
d="M270 600v-60h-240v60h240z" />
    <glyph glyph-name="degree" unicode="&#xb0;" horiz-adv-x="310" 
d="M95 515q0 -26 18.5 -45.5t41.5 -19.5t41.5 19.5t18.5 45.5t-18.5 45.5t-41.5 19.5t-41.5 -19.5t-18.5 -45.5zM275 515q0 -49 -35.5 -84.5t-84.5 -35.5t-84.5 35.5t-35.5 84.5t35.5 84.5t84.5 35.5t84.5 -35.5t35.5 -84.5z" />
    <glyph glyph-name="plusminus" unicode="&#xb1;" horiz-adv-x="440" 
d="M410 30h-380v65h155v170h-155v65h155v165h70v-165h155v-65h-155v-170h155v-65z" />
    <glyph glyph-name="twosuperior" unicode="&#xb2;" horiz-adv-x="255" 
d="M195 575l-88 -95h118v-50h-195v40l110 115q30 30 30 50q0 40 -45 40t-45 -45h-50q0 41 27 68t68 27q44 0 72 -26t28 -64q0 -30 -30 -60z" />
    <glyph glyph-name="threesuperior" unicode="&#xb3;" horiz-adv-x="265" 
d="M195 585q4 -2 11 -6t18 -22t11 -42q0 -38 -28 -64t-72 -26q-48 0 -76.5 26.5t-28.5 68.5h50q0 -19 14 -32t36 -13t36 12t14 28q0 19 -14 32t-36 13h-26v45h26q18 0 29 10t11 25t-11 25t-29 10q-45 0 -45 -40h-50q0 38 27 64t68 26q40 0 67.5 -25.5t27.5 -59.5
q0 -18 -7.5 -31.5t-15.5 -18.5z" />
    <glyph glyph-name="acute" unicode="&#xb4;" horiz-adv-x="195" 
d="M30 510l60 120h75l-85 -120h-50z" />
    <glyph glyph-name="mu" unicode="&#xb5;" horiz-adv-x="510" 
d="M240 -5q-14 0 -27.5 2.5t-23.5 6t-19 8t-15.5 8.5t-10.5 7.5t-6 6.5l-3 2v-196h-70v610h75v-260q0 -55 32 -90t78 -35q53 0 86.5 34.5t33.5 90.5v260h75v-450h-55l-20 50q-5 -6 -15 -15t-43.5 -24.5t-71.5 -15.5z" />
    <glyph glyph-name="paragraph" unicode="&#xb6;" horiz-adv-x="500" 
d="M190 630h235v-720h-65v653h-105v-653h-65v430q-60 0 -105 44t-45 100q0 58 45 102t105 44z" />
    <glyph glyph-name="periodcentered" unicode="&#xb7;" horiz-adv-x="215" 
d="M60 315q0 23 14 36.5t36 13.5t36 -13.5t14 -36.5t-14 -36.5t-36 -13.5t-36 13.5t-14 36.5z" />
    <glyph glyph-name="cedilla" unicode="&#xb8;" horiz-adv-x="195" 
d="M120 0l-20 -40q30 -4 47.5 -21.5t17.5 -43.5q0 -28 -23.5 -46.5t-66.5 -18.5l-45 5v40q20 -5 40 -5q21 0 33 9t12 21t-12 21t-33 9l-25 -5l31 75h44z" />
    <glyph glyph-name="onesuperior" unicode="&#xb9;" horiz-adv-x="205" 
d="M20 670l80 50h40v-290h-55v220l-40 -20z" />
    <glyph glyph-name="ordmasculine" unicode="&#xba;" horiz-adv-x="310" 
d="M85 505q0 -30 21.5 -52.5t48.5 -22.5t48.5 22.5t21.5 52.5t-21.5 52.5t-48.5 22.5t-48.5 -22.5t-21.5 -52.5zM280 505q0 -52 -38 -91t-87 -39t-87 39t-38 91t38 91t87 39t87 -39t38 -91z" />
    <glyph glyph-name="guillemotright" unicode="&#xbb;" horiz-adv-x="440" 
d="M220 65l110 160l-110 160h75l110 -160l-110 -160h-75zM35 65l110 160l-110 160h75l110 -160l-110 -160h-75z" />
    <glyph glyph-name="onequarter" unicode="&#xbc;" horiz-adv-x="555" 
d="M20 580l80 50h40v-290h-55v220l-40 -20zM490 290v-185h35v-50h-35v-55h-55v55h-125v40l120 195h60zM370 105h65v105zM110 0h-65l385 630h65z" />
    <glyph glyph-name="onehalf" unicode="&#xbd;" horiz-adv-x="575" 
d="M20 580l80 50h40v-290h-55v220l-40 -20zM515 145l-88 -95h118v-50h-195v40l110 115q30 30 30 50q0 40 -45 40t-45 -45h-50q0 41 27 68t68 27q44 0 72 -26t28 -64q0 -30 -30 -60zM110 0h-65l385 630h65z" />
    <glyph glyph-name="threequarters" unicode="&#xbe;" horiz-adv-x="615" 
d="M195 495q4 -2 11 -6t18 -22t11 -42q0 -38 -28 -64t-72 -26q-48 0 -76.5 26.5t-28.5 68.5h50q0 -19 14 -32t36 -13t36 12t14 28q0 19 -14 32t-36 13h-26v45h26q18 0 29 10t11 25t-11 25t-29 10q-45 0 -45 -40h-50q0 38 27 64t68 26q40 0 67.5 -25.5t27.5 -59.5
q0 -18 -7.5 -31.5t-15.5 -18.5zM550 290v-185h35v-50h-35v-55h-55v55h-125v40l120 195h60zM430 105h65v105zM170 0h-65l385 630h65z" />
    <glyph glyph-name="questiondown" unicode="&#xbf;" horiz-adv-x="430" 
d="M40 1q0 44 15 75t36 50t42.5 38t36.5 50.5t15 75.5v5h80v-5q0 -53 -15 -90t-36 -57.5t-42.5 -38t-36.5 -43t-15 -60.5q0 -40 26 -68t69 -28q50 0 77.5 31.5t27.5 93.5v10h80v-10q0 -92 -50.5 -143.5t-134.5 -51.5q-77 0 -126 48t-49 118zM275 405q0 -23 -13.5 -36.5
t-36.5 -13.5t-36.5 13.5t-13.5 36.5t13.5 36.5t36.5 13.5t36.5 -13.5t13.5 -36.5z" />
    <glyph glyph-name="Agrave" unicode="&#xc0;" horiz-adv-x="550" 
d="M465 0l-60 155h-260l-60 -155h-85l240 630h70l240 -630h-85zM275 500l-105 -275h210zM230 825l60 -120h-50l-85 120h75z" />
    <glyph glyph-name="Aacute" unicode="&#xc1;" horiz-adv-x="550" 
d="M465 0l-60 155h-260l-60 -155h-85l240 630h70l240 -630h-85zM275 500l-105 -275h210zM255 705l60 120h75l-85 -120h-50z" />
    <glyph glyph-name="Acircumflex" unicode="&#xc2;" horiz-adv-x="550" 
d="M465 0l-60 155h-260l-60 -155h-85l240 630h70l240 -630h-85zM275 500l-105 -275h210zM310 820l90 -120h-75l-50 70l-50 -70h-75l90 120h70z" />
    <glyph glyph-name="Atilde" unicode="&#xc3;" horiz-adv-x="550" 
d="M465 0l-60 155h-260l-60 -155h-85l240 630h70l240 -630h-85zM275 500l-105 -275h210zM330 745q16 0 28 16t12 44h45q0 -54 -24.5 -84.5t-60.5 -30.5q-20 0 -37.5 10t-27 22.5t-22 22.5t-23.5 10q-16 0 -28 -16t-12 -44h-45q0 54 24.5 84.5t60.5 30.5q20 0 37.5 -10
t27 -22.5t22 -22.5t23.5 -10z" />
    <glyph glyph-name="Adieresis" unicode="&#xc4;" horiz-adv-x="550" 
d="M465 0l-60 155h-260l-60 -155h-85l240 630h70l240 -630h-85zM275 500l-105 -275h210zM200 715q-19 0 -32 13t-13 32t13 32t32 13t32 -13t13 -32t-13 -32t-32 -13zM350 715q-19 0 -32 13t-13 32t13 32t32 13t32 -13t13 -32t-13 -32t-32 -13z" />
    <glyph glyph-name="Aring" unicode="&#xc5;" horiz-adv-x="550" 
d="M465 0l-60 155h-260l-60 -155h-85l240 630h70l240 -630h-85zM275 500l-105 -275h210zM240 765q0 -15 10 -25t25 -10t25 10t10 25t-10 25t-25 10t-25 -10t-10 -25zM355 765q0 -34 -23 -57t-57 -23t-57 23t-23 57t23 57t57 23t57 -23t23 -57z" />
    <glyph glyph-name="AE" unicode="&#xc6;" horiz-adv-x="805" 
d="M465 70h290v-70h-370v160h-235l-90 -160h-90l355 630h420v-70h-280v-200h255v-70h-255v-220zM375 560l-185 -330h195v330h-10z" />
    <glyph glyph-name="Ccedilla" unicode="&#xc7;" horiz-adv-x="635" 
d="M335 565q-85 0 -150 -72t-65 -178t65 -178t150 -72q72 0 120.5 41t64.5 104h85q-27 -94 -94 -152.5t-161 -62.5l-15 -35q30 -4 47.5 -21.5t17.5 -43.5q0 -28 -23.5 -46.5t-66.5 -18.5l-45 5v40q20 -5 40 -5q21 0 33 9t12 21t-12 21t-33 9l-25 -5l30 70
q-109 12 -189.5 102.5t-80.5 217.5q0 133 88.5 226.5t206.5 93.5q97 0 167 -60.5t98 -154.5h-85q-16 63 -63.5 104t-116.5 41z" />
    <glyph glyph-name="Egrave" unicode="&#xc8;" horiz-adv-x="540" 
d="M160 70h330v-70h-410v630h400v-70h-320v-200h295v-70h-295v-220zM260 825l60 -120h-50l-85 120h75z" />
    <glyph glyph-name="Eacute" unicode="&#xc9;" horiz-adv-x="540" 
d="M160 70h330v-70h-410v630h400v-70h-320v-200h295v-70h-295v-220zM250 705l60 120h75l-85 -120h-50z" />
    <glyph glyph-name="Ecircumflex" unicode="&#xca;" horiz-adv-x="540" 
d="M160 70h330v-70h-410v630h400v-70h-320v-200h295v-70h-295v-220zM315 820l90 -120h-75l-50 70l-50 -70h-75l90 120h70z" />
    <glyph glyph-name="Edieresis" unicode="&#xcb;" horiz-adv-x="540" 
d="M160 70h330v-70h-410v630h400v-70h-320v-200h295v-70h-295v-220zM205 715q-19 0 -32 13t-13 32t13 32t32 13t32 -13t13 -32t-13 -32t-32 -13zM355 715q-19 0 -32 13t-13 32t13 32t32 13t32 -13t13 -32t-13 -32t-32 -13z" />
    <glyph glyph-name="Igrave" unicode="&#xcc;" horiz-adv-x="240" 
d="M160 630v-630h-80v630h80zM80 825l60 -120h-50l-85 120h75z" />
    <glyph glyph-name="Iacute" unicode="&#xcd;" horiz-adv-x="240" 
d="M160 630v-630h-80v630h80zM95 705l60 120h75l-85 -120h-50z" />
    <glyph glyph-name="Icircumflex" unicode="&#xce;" horiz-adv-x="240" 
d="M160 630v-630h-80v630h80zM155 820l90 -120h-75l-50 70l-50 -70h-75l90 120h70z" />
    <glyph glyph-name="Idieresis" unicode="&#xcf;" horiz-adv-x="240" 
d="M160 630v-630h-80v630h80zM50 715q-19 0 -32 13t-13 32t13 32t32 13t32 -13t13 -32t-13 -32t-32 -13zM200 715q-19 0 -32 13t-13 32t13 32t32 13t32 -13t13 -32t-13 -32t-32 -13z" />
    <glyph glyph-name="Eth" unicode="&#xd0;" horiz-adv-x="620" 
d="M580 315q0 -134 -87.5 -224.5t-212.5 -90.5h-175v275h-90v70h90v285h175q125 0 212.5 -90.5t87.5 -224.5zM185 70h95q88 0 154 71t66 174t-66 174t-154 71h-95v-215h120v-70h-120v-205z" />
    <glyph glyph-name="Ntilde" unicode="&#xd1;" horiz-adv-x="625" 
d="M465 630h80v-630h-70l-315 475v-475h-80v630h70l315 -475v475zM370 755q16 0 28 16t12 44h45q0 -54 -24.5 -84.5t-60.5 -30.5q-20 0 -37.5 10t-27 22.5t-22 22.5t-23.5 10q-16 0 -28 -16t-12 -44h-45q0 54 24.5 84.5t60.5 30.5q20 0 37.5 -10t27 -22.5t22 -22.5t23.5 -10
z" />
    <glyph glyph-name="Ograve" unicode="&#xd2;" horiz-adv-x="660" 
d="M115 315q0 -106 65 -178t150 -72t150 72t65 178t-65 178t-150 72t-150 -72t-65 -178zM625 315q0 -133 -88.5 -226.5t-206.5 -93.5t-206.5 93.5t-88.5 226.5t88.5 226.5t206.5 93.5t206.5 -93.5t88.5 -226.5zM295 825l60 -120h-50l-85 120h75z" />
    <glyph glyph-name="Oacute" unicode="&#xd3;" horiz-adv-x="660" 
d="M115 315q0 -106 65 -178t150 -72t150 72t65 178t-65 178t-150 72t-150 -72t-65 -178zM625 315q0 -133 -88.5 -226.5t-206.5 -93.5t-206.5 93.5t-88.5 226.5t88.5 226.5t206.5 93.5t206.5 -93.5t88.5 -226.5zM305 705l60 120h75l-85 -120h-50z" />
    <glyph glyph-name="Ocircumflex" unicode="&#xd4;" horiz-adv-x="660" 
d="M115 315q0 -106 65 -178t150 -72t150 72t65 178t-65 178t-150 72t-150 -72t-65 -178zM625 315q0 -133 -88.5 -226.5t-206.5 -93.5t-206.5 93.5t-88.5 226.5t88.5 226.5t206.5 93.5t206.5 -93.5t88.5 -226.5zM365 820l90 -120h-75l-50 70l-50 -70h-75l90 120h70z" />
    <glyph glyph-name="Otilde" unicode="&#xd5;" horiz-adv-x="660" 
d="M115 315q0 -106 65 -178t150 -72t150 72t65 178t-65 178t-150 72t-150 -72t-65 -178zM625 315q0 -133 -88.5 -226.5t-206.5 -93.5t-206.5 93.5t-88.5 226.5t88.5 226.5t206.5 93.5t206.5 -93.5t88.5 -226.5zM385 755q16 0 28 16t12 44h45q0 -54 -24.5 -84.5t-60.5 -30.5
q-20 0 -37.5 10t-27 22.5t-22 22.5t-23.5 10q-16 0 -28 -16t-12 -44h-45q0 54 24.5 84.5t60.5 30.5q20 0 37.5 -10t27 -22.5t22 -22.5t23.5 -10z" />
    <glyph glyph-name="Odieresis" unicode="&#xd6;" horiz-adv-x="660" 
d="M115 315q0 -106 65 -178t150 -72t150 72t65 178t-65 178t-150 72t-150 -72t-65 -178zM625 315q0 -133 -88.5 -226.5t-206.5 -93.5t-206.5 93.5t-88.5 226.5t88.5 226.5t206.5 93.5t206.5 -93.5t88.5 -226.5zM255 715q-19 0 -32 13t-13 32t13 32t32 13t32 -13t13 -32
t-13 -32t-32 -13zM405 715q-19 0 -32 13t-13 32t13 32t32 13t32 -13t13 -32t-13 -32t-32 -13z" />
    <glyph glyph-name="multiply" unicode="&#xd7;" horiz-adv-x="440" 
d="M265 254l115 -115l-45 -45l-115 115l-115 -115l-45 45l115 115l-115 115l45 45l115 -115l115 115l45 -45z" />
    <glyph glyph-name="Oslash" unicode="&#xd8;" horiz-adv-x="670" 
d="M150 185l325 320q-6 7 -16.5 17t-47 26.5t-76.5 16.5q-85 0 -150 -72t-65 -178q0 -36 7.5 -68.5t14.5 -46.5zM630 315q0 -133 -88.5 -226.5t-206.5 -93.5q-56 0 -104.5 20t-69.5 40l-21 20l-70 -65l-50 50l75 70q-6 8 -15 23.5t-24.5 64t-15.5 97.5q0 133 88.5 226.5
t206.5 93.5q56 0 104.5 -20t69.5 -40l21 -20l70 65l50 -50l-75 -70q6 -8 15 -23.5t24.5 -64t15.5 -97.5zM520 445l-325 -320q6 -7 16.5 -17t47 -26.5t76.5 -16.5q85 0 150 72t65 178q0 36 -7.5 68.5t-14.5 46.5z" />
    <glyph glyph-name="Ugrave" unicode="&#xd9;" horiz-adv-x="600" 
d="M300 -5q-101 0 -165.5 63.5t-64.5 161.5v410h80v-410q0 -71 41 -113t109 -42t109 42t41 113v410h80v-410q0 -98 -64.5 -161.5t-165.5 -63.5zM275 825l60 -120h-50l-85 120h75z" />
    <glyph glyph-name="Uacute" unicode="&#xda;" horiz-adv-x="600" 
d="M300 -5q-101 0 -165.5 63.5t-64.5 161.5v410h80v-410q0 -71 41 -113t109 -42t109 42t41 113v410h80v-410q0 -98 -64.5 -161.5t-165.5 -63.5zM265 705l60 120h75l-85 -120h-50z" />
    <glyph glyph-name="Ucircumflex" unicode="&#xdb;" horiz-adv-x="600" 
d="M300 -5q-101 0 -165.5 63.5t-64.5 161.5v410h80v-410q0 -71 41 -113t109 -42t109 42t41 113v410h80v-410q0 -98 -64.5 -161.5t-165.5 -63.5zM330 820l90 -120h-75l-50 70l-50 -70h-75l90 120h70z" />
    <glyph glyph-name="Udieresis" unicode="&#xdc;" horiz-adv-x="600" 
d="M300 -5q-101 0 -165.5 63.5t-64.5 161.5v410h80v-410q0 -71 41 -113t109 -42t109 42t41 113v410h80v-410q0 -98 -64.5 -161.5t-165.5 -63.5zM225 715q-19 0 -32 13t-13 32t13 32t32 13t32 -13t13 -32t-13 -32t-32 -13zM375 715q-19 0 -32 13t-13 32t13 32t32 13t32 -13
t13 -32t-13 -32t-32 -13z" />
    <glyph glyph-name="Yacute" unicode="&#xdd;" horiz-adv-x="500" 
d="M210 245l-200 385h85l155 -300l155 300h85l-200 -385v-245h-80v245zM230 705l60 120h75l-85 -120h-50z" />
    <glyph glyph-name="Thorn" unicode="&#xde;" horiz-adv-x="585" 
d="M80 630h80v-110h180q82 0 141 -57t59 -133t-59 -133t-141 -57h-180v-140h-80v630zM160 210h180q49 0 84.5 35.5t35.5 84.5t-35.5 84.5t-84.5 35.5h-180v-240z" />
    <glyph glyph-name="germandbls" unicode="&#xdf;" horiz-adv-x="510" 
d="M365 335q4 -1 11 -4.5t25.5 -16t32 -29t25 -46t11.5 -64.5q0 -75 -49 -125t-121 -50h-50v65h50q41 0 68 31t27 79q0 51 -26.5 80.5t-68.5 29.5h-50v65q42 0 71 31t29 79t-29 79t-71 31q-41 0 -73 -32t-32 -73v-465h-75v465q0 68 53 119t127 51q75 0 125 -50t50 -125
q0 -40 -15 -71t-30 -43z" />
    <glyph glyph-name="agrave" unicode="&#xe0;" horiz-adv-x="465" 
d="M235 455q74 0 122 -45t48 -110v-300h-55l-20 50q-5 -6 -15 -15t-45 -24.5t-75 -15.5q-66 0 -108 39t-42 96q0 70 63 107.5t222 37.5v25q0 34 -27.5 59.5t-67.5 25.5q-74 0 -90 -65h-80q8 59 53 97t117 38zM195 65q57 0 96 32.5t39 72.5v35q-126 0 -168 -19t-42 -61
q0 -24 21 -42t54 -18zM205 644l60 -120h-50l-85 120h75z" />
    <glyph glyph-name="aacute" unicode="&#xe1;" horiz-adv-x="465" 
d="M235 455q74 0 122 -45t48 -110v-300h-55l-20 50q-5 -6 -15 -15t-45 -24.5t-75 -15.5q-66 0 -108 39t-42 96q0 70 63 107.5t222 37.5v25q0 34 -27.5 59.5t-67.5 25.5q-74 0 -90 -65h-80q8 59 53 97t117 38zM195 65q57 0 96 32.5t39 72.5v35q-126 0 -168 -19t-42 -61
q0 -24 21 -42t54 -18zM215 524l60 120h75l-85 -120h-50z" />
    <glyph glyph-name="acircumflex" unicode="&#xe2;" horiz-adv-x="465" 
d="M235 455q74 0 122 -45t48 -110v-300h-55l-20 50q-5 -6 -15 -15t-45 -24.5t-75 -15.5q-66 0 -108 39t-42 96q0 70 63 107.5t222 37.5v25q0 34 -27.5 59.5t-67.5 25.5q-74 0 -90 -65h-80q8 59 53 97t117 38zM195 65q57 0 96 32.5t39 72.5v35q-126 0 -168 -19t-42 -61
q0 -24 21 -42t54 -18zM275 640l90 -120h-75l-50 70l-50 -70h-75l90 120h70z" />
    <glyph glyph-name="atilde" unicode="&#xe3;" horiz-adv-x="465" 
d="M235 455q74 0 122 -45t48 -110v-300h-55l-20 50q-5 -6 -15 -15t-45 -24.5t-75 -15.5q-66 0 -108 39t-42 96q0 70 63 107.5t222 37.5v25q0 34 -27.5 59.5t-67.5 25.5q-74 0 -90 -65h-80q8 59 53 97t117 38zM195 65q57 0 96 32.5t39 72.5v35q-126 0 -168 -19t-42 -61
q0 -24 21 -42t54 -18zM295 565q16 0 28 16t12 44h45q0 -54 -24.5 -84.5t-60.5 -30.5q-20 0 -37.5 10t-27 22.5t-22 22.5t-23.5 10q-16 0 -28 -16t-12 -44h-45q0 54 24.5 84.5t60.5 30.5q20 0 37.5 -10t27 -22.5t22 -22.5t23.5 -10z" />
    <glyph glyph-name="adieresis" unicode="&#xe4;" horiz-adv-x="465" 
d="M235 455q74 0 122 -45t48 -110v-300h-55l-20 50q-5 -6 -15 -15t-45 -24.5t-75 -15.5q-66 0 -108 39t-42 96q0 70 63 107.5t222 37.5v25q0 34 -27.5 59.5t-67.5 25.5q-74 0 -90 -65h-80q8 59 53 97t117 38zM195 65q57 0 96 32.5t39 72.5v35q-126 0 -168 -19t-42 -61
q0 -24 21 -42t54 -18zM160 535q-19 0 -32 13t-13 32t13 32t32 13t32 -13t13 -32t-13 -32t-32 -13zM310 535q-19 0 -32 13t-13 32t13 32t32 13t32 -13t13 -32t-13 -32t-32 -13z" />
    <glyph glyph-name="aring" unicode="&#xe5;" horiz-adv-x="465" 
d="M235 455q74 0 122 -45t48 -110v-300h-55l-20 50q-5 -6 -15 -15t-45 -24.5t-75 -15.5q-66 0 -108 39t-42 96q0 70 63 107.5t222 37.5v25q0 34 -27.5 59.5t-67.5 25.5q-74 0 -90 -65h-80q8 59 53 97t117 38zM195 65q57 0 96 32.5t39 72.5v35q-126 0 -168 -19t-42 -61
q0 -24 21 -42t54 -18zM205 590q0 -15 10 -25t25 -10t25 10t10 25t-10 25t-25 10t-25 -10t-10 -25zM320 590q0 -34 -23 -57t-57 -23t-57 23t-23 57t23 57t57 23t57 -23t23 -57z" />
    <glyph glyph-name="ae" unicode="&#xe6;" horiz-adv-x="740" 
d="M615 120h80q-21 -53 -66.5 -89t-108.5 -36q-29 0 -56 9.5t-44 22.5t-30 26t-19 23l-6 9q-2 -4 -6.5 -10t-20 -21.5t-34 -27.5t-48 -21.5t-61.5 -9.5q-65 0 -107.5 37t-42.5 88q0 70 61.5 107.5t213.5 37.5v35q0 34 -26.5 59.5t-63.5 25.5q-69 0 -85 -65h-80q8 59 52 97
t113 38q42 0 77 -17.5t49 -35.5l14 -17q2 3 6 7.5t17.5 16.5t29 21.5t40.5 17t52 7.5q81 0 135.5 -60.5t54.5 -159.5l-5 -40h-300q4 -55 39 -92.5t81 -37.5q62 0 95 55zM515 385q-42 0 -76.5 -36.5t-38.5 -88.5h225q-4 55 -36 90t-74 35zM195 65q55 0 90 31t35 74v25
q-119 0 -159.5 -18.5t-40.5 -56.5q0 -20 21.5 -37.5t53.5 -17.5z" />
    <glyph glyph-name="ccedilla" unicode="&#xe7;" horiz-adv-x="470" 
d="M245 385q-54 0 -94.5 -45.5t-40.5 -114.5t40.5 -114.5t94.5 -45.5q43 0 75.5 27.5t44.5 67.5h75q-15 -68 -63.5 -114.5t-111.5 -50.5l-20 -35q30 -4 47.5 -21.5t17.5 -43.5q0 -28 -23.5 -46.5t-66.5 -18.5l-45 5v40q20 -5 40 -5q21 0 33 9t12 21t-12 21t-33 9l-25 -5
l30 70q-78 12 -131.5 74t-53.5 156q0 100 61 165t149 65q73 0 126 -47.5t69 -117.5h-75q-12 40 -44.5 67.5t-75.5 27.5z" />
    <glyph glyph-name="egrave" unicode="&#xe8;" horiz-adv-x="475" 
d="M350 120h80q-25 -54 -72 -89.5t-113 -35.5q-88 0 -149 65t-61 165q0 99 60.5 164.5t144.5 65.5t142 -63t58 -162l-5 -40h-320q4 -49 43 -87t87 -38q64 0 105 55zM240 385q-45 0 -81.5 -37t-43.5 -93h245q-7 59 -40.5 94.5t-79.5 35.5zM205 644l60 -120h-50l-85 120h75z
" />
    <glyph glyph-name="eacute" unicode="&#xe9;" horiz-adv-x="475" 
d="M350 120h80q-25 -54 -72 -89.5t-113 -35.5q-88 0 -149 65t-61 165q0 99 60.5 164.5t144.5 65.5t142 -63t58 -162l-5 -40h-320q4 -49 43 -87t87 -38q64 0 105 55zM240 385q-45 0 -81.5 -37t-43.5 -93h245q-7 59 -40.5 94.5t-79.5 35.5zM215 524l60 120h75l-85 -120h-50z
" />
    <glyph glyph-name="ecircumflex" unicode="&#xea;" horiz-adv-x="475" 
d="M350 120h80q-25 -54 -72 -89.5t-113 -35.5q-88 0 -149 65t-61 165q0 99 60.5 164.5t144.5 65.5t142 -63t58 -162l-5 -40h-320q4 -49 43 -87t87 -38q64 0 105 55zM240 385q-45 0 -81.5 -37t-43.5 -93h245q-7 59 -40.5 94.5t-79.5 35.5zM275 640l90 -120h-75l-50 70
l-50 -70h-75l90 120h70z" />
    <glyph glyph-name="edieresis" unicode="&#xeb;" horiz-adv-x="475" 
d="M350 120h80q-25 -54 -72 -89.5t-113 -35.5q-88 0 -149 65t-61 165q0 99 60.5 164.5t144.5 65.5t142 -63t58 -162l-5 -40h-320q4 -49 43 -87t87 -38q64 0 105 55zM240 385q-45 0 -81.5 -37t-43.5 -93h245q-7 59 -40.5 94.5t-79.5 35.5zM165 535q-19 0 -32 13t-13 32t13 32
t32 13t32 -13t13 -32t-13 -32t-32 -13zM315 535q-19 0 -32 13t-13 32t13 32t32 13t32 -13t13 -32t-13 -32t-32 -13z" />
    <glyph glyph-name="igrave" unicode="&#xec;" horiz-adv-x="205" 
d="M140 450v-450h-75v450h75zM70 640l60 -120h-50l-85 120h75z" />
    <glyph glyph-name="iacute" unicode="&#xed;" horiz-adv-x="205" 
d="M140 450v-450h-75v450h75zM75 520l60 120h75l-85 -120h-50z" />
    <glyph glyph-name="icircumflex" unicode="&#xee;" horiz-adv-x="205" 
d="M140 450v-450h-75v450h75zM135 640l90 -120h-75l-50 70l-50 -70h-75l90 120h70z" />
    <glyph glyph-name="idieresis" unicode="&#xef;" horiz-adv-x="205" 
d="M140 450v-450h-75v450h75zM25 535q-19 0 -32 13t-13 32t13 32t32 13t32 -13t13 -32t-13 -32t-32 -13zM175 535q-19 0 -32 13t-13 32t13 32t32 13t32 -13t13 -32t-13 -32t-32 -13z" />
    <glyph glyph-name="eth" unicode="&#xf0;" horiz-adv-x="510" 
d="M410 630l-70 -45q5 -4 13.5 -12.5t30 -39t38 -66t30 -94.5t13.5 -123q0 -118 -59.5 -186.5t-155.5 -68.5q-90 0 -152.5 63.5t-62.5 156.5t60.5 156.5t144.5 63.5q44 0 80.5 -15t50.5 -30l14 -15q-6 29 -17.5 57.5t-24.5 48t-25 34.5t-20 23l-8 7l-90 -60l-35 50l75 50
q-20 13 -46 24.5t-42 16.5l-17 4l25 60q85 -28 135 -65l80 55zM250 65q57 0 98.5 43.5t41.5 106.5t-41.5 106.5t-98.5 43.5t-98.5 -43.5t-41.5 -106.5t41.5 -106.5t98.5 -43.5z" />
    <glyph glyph-name="ntilde" unicode="&#xf1;" horiz-adv-x="505" 
d="M270 455q73 0 124 -55t51 -140v-260h-75v260q0 55 -32 90t-78 35q-53 0 -86.5 -34.5t-33.5 -90.5v-260h-75v450h55l20 -50q5 6 15 15t43.5 24.5t71.5 15.5zM315 575q16 0 28 16t12 44h45q0 -54 -24.5 -84.5t-60.5 -30.5q-20 0 -37.5 10t-27 22.5t-22 22.5t-23.5 10
q-16 0 -28 -16t-12 -44h-45q0 54 24.5 84.5t60.5 30.5q20 0 37.5 -10t27 -22.5t22 -22.5t23.5 -10z" />
    <glyph glyph-name="ograve" unicode="&#xf2;" 
d="M110 225q0 -69 40.5 -114.5t94.5 -45.5t94.5 45.5t40.5 114.5t-40.5 114.5t-94.5 45.5t-94.5 -45.5t-40.5 -114.5zM455 225q0 -100 -61 -165t-149 -65t-149 65t-61 165t61 165t149 65t149 -65t61 -165zM215 640l60 -120h-50l-85 120h75z" />
    <glyph glyph-name="oacute" unicode="&#xf3;" 
d="M110 225q0 -69 40.5 -114.5t94.5 -45.5t94.5 45.5t40.5 114.5t-40.5 114.5t-94.5 45.5t-94.5 -45.5t-40.5 -114.5zM455 225q0 -100 -61 -165t-149 -65t-149 65t-61 165t61 165t149 65t149 -65t61 -165zM225 520l60 120h75l-85 -120h-50z" />
    <glyph glyph-name="ocircumflex" unicode="&#xf4;" 
d="M110 225q0 -69 40.5 -114.5t94.5 -45.5t94.5 45.5t40.5 114.5t-40.5 114.5t-94.5 45.5t-94.5 -45.5t-40.5 -114.5zM455 225q0 -100 -61 -165t-149 -65t-149 65t-61 165t61 165t149 65t149 -65t61 -165zM280 640l90 -120h-75l-50 70l-50 -70h-75l90 120h70z" />
    <glyph glyph-name="otilde" unicode="&#xf5;" 
d="M110 225q0 -69 40.5 -114.5t94.5 -45.5t94.5 45.5t40.5 114.5t-40.5 114.5t-94.5 45.5t-94.5 -45.5t-40.5 -114.5zM455 225q0 -100 -61 -165t-149 -65t-149 65t-61 165t61 165t149 65t149 -65t61 -165zM300 565q16 0 28 16t12 44h45q0 -54 -24.5 -84.5t-60.5 -30.5
q-20 0 -37.5 10t-27 22.5t-22 22.5t-23.5 10q-16 0 -28 -16t-12 -44h-45q0 54 24.5 84.5t60.5 30.5q20 0 37.5 -10t27 -22.5t22 -22.5t23.5 -10z" />
    <glyph glyph-name="odieresis" unicode="&#xf6;" 
d="M110 225q0 -69 40.5 -114.5t94.5 -45.5t94.5 45.5t40.5 114.5t-40.5 114.5t-94.5 45.5t-94.5 -45.5t-40.5 -114.5zM455 225q0 -100 -61 -165t-149 -65t-149 65t-61 165t61 165t149 65t149 -65t61 -165zM170 535q-19 0 -32 13t-13 32t13 32t32 13t32 -13t13 -32t-13 -32
t-32 -13zM320 535q-19 0 -32 13t-13 32t13 32t32 13t32 -13t13 -32t-13 -32t-32 -13z" />
    <glyph glyph-name="divide" unicode="&#xf7;" horiz-adv-x="440" 
d="M405 290v-65h-370v65h370zM220 370q-22 0 -36 14t-14 36t14 36t36 14t36 -14t14 -36t-14 -36t-36 -14zM220 145q22 0 36 -13.5t14 -36.5t-14 -36.5t-36 -13.5t-36 13.5t-14 36.5t14 36.5t36 13.5z" />
    <glyph glyph-name="oslash" unicode="&#xf8;" horiz-adv-x="510" 
d="M135 155l205 195q-35 35 -85 35q-54 0 -94.5 -45.5t-40.5 -114.5q0 -16 4 -33.5t8 -27.5zM465 225q0 -100 -61 -165t-149 -65q-40 0 -75 13.5t-50 27.5l-15 14l-50 -50l-45 50l55 50q-30 50 -30 125q0 100 61 165t149 65q40 0 75 -13.5t50 -27.5l15 -14l50 50l45 -50
l-55 -50q30 -50 30 -125zM375 295l-205 -195q35 -35 85 -35q54 0 94.5 45.5t40.5 114.5q0 16 -4 33.5t-8 27.5z" />
    <glyph glyph-name="ugrave" unicode="&#xf9;" horiz-adv-x="505" 
d="M240 -5q-73 0 -124 55t-51 140v260h75v-260q0 -55 32 -90t78 -35q53 0 86.5 34.5t33.5 90.5v260h75v-450h-55l-20 50q-5 -6 -15 -15t-43.5 -24.5t-71.5 -15.5zM235 644l60 -120h-50l-85 120h75z" />
    <glyph glyph-name="uacute" unicode="&#xfa;" horiz-adv-x="505" 
d="M240 -5q-73 0 -124 55t-51 140v260h75v-260q0 -55 32 -90t78 -35q53 0 86.5 34.5t33.5 90.5v260h75v-450h-55l-20 50q-5 -6 -15 -15t-43.5 -24.5t-71.5 -15.5zM225 525l60 120h75l-85 -120h-50z" />
    <glyph glyph-name="ucircumflex" unicode="&#xfb;" horiz-adv-x="505" 
d="M240 -5q-73 0 -124 55t-51 140v260h75v-260q0 -55 32 -90t78 -35q53 0 86.5 34.5t33.5 90.5v260h75v-450h-55l-20 50q-5 -6 -15 -15t-43.5 -24.5t-71.5 -15.5zM285 640l90 -120h-75l-50 70l-50 -70h-75l90 120h70z" />
    <glyph glyph-name="udieresis" unicode="&#xfc;" horiz-adv-x="505" 
d="M240 -5q-73 0 -124 55t-51 140v260h75v-260q0 -55 32 -90t78 -35q53 0 86.5 34.5t33.5 90.5v260h75v-450h-55l-20 50q-5 -6 -15 -15t-43.5 -24.5t-71.5 -15.5zM175 535q-19 0 -32 13t-13 32t13 32t32 13t32 -13t13 -32t-13 -32t-32 -13zM325 535q-19 0 -32 13t-13 32
t13 32t32 13t32 -13t13 -32t-13 -32t-32 -13z" />
    <glyph glyph-name="yacute" unicode="&#xfd;" horiz-adv-x="450" 
d="M185 10l-175 440h80l135 -345l135 345h80l-195 -490q-27 -68 -56.5 -96.5t-73.5 -28.5l-30 5v60q32 0 49.5 14t30.5 46zM200 524l60 120h75l-85 -120h-50z" />
    <glyph glyph-name="thorn" unicode="&#xfe;" horiz-adv-x="530" 
d="M135 225q0 -70 41 -115t99 -45t99 45t41 115t-41 115t-99 45t-99 -45t-41 -115zM145 630v-235q2 2 5.5 6.5t16 14.5t27 18t38 14.5t48.5 6.5q88 0 149 -65t61 -165t-61 -165t-149 -65q-40 0 -74 15t-48 30l-13 15v-215h-75v790h75z" />
    <glyph glyph-name="ydieresis" unicode="&#xff;" horiz-adv-x="450" 
d="M185 10l-175 440h80l135 -345l135 345h80l-195 -490q-27 -68 -56.5 -96.5t-73.5 -28.5l-30 5v60q32 0 49.5 14t30.5 46zM150 535q-19 0 -32 13t-13 32t13 32t32 13t32 -13t13 -32t-13 -32t-32 -13zM300 535q-19 0 -32 13t-13 32t13 32t32 13t32 -13t13 -32t-13 -32
t-32 -13z" />
    <glyph glyph-name="Amacron" unicode="&#x100;" horiz-adv-x="550" 
d="M465 0l-60 155h-260l-60 -155h-85l240 630h70l240 -630h-85zM275 500l-105 -275h210zM395 775v-60h-240v60h240z" />
    <glyph glyph-name="amacron" unicode="&#x101;" horiz-adv-x="465" 
d="M235 455q74 0 122 -45t48 -110v-300h-55l-20 50q-5 -6 -15 -15t-45 -24.5t-75 -15.5q-66 0 -108 39t-42 96q0 70 63 107.5t222 37.5v25q0 34 -27.5 59.5t-67.5 25.5q-74 0 -90 -65h-80q8 59 53 97t117 38zM195 65q57 0 96 32.5t39 72.5v35q-126 0 -168 -19t-42 -61
q0 -24 21 -42t54 -18zM355 605v-60h-240v60h240z" />
    <glyph glyph-name="Abreve" unicode="&#x102;" horiz-adv-x="550" 
d="M465 0l-60 155h-260l-60 -155h-85l240 630h70l240 -630h-85zM275 500l-105 -275h210zM275 700q-47 0 -79.5 31.5t-40.5 78.5h60q4 -26 20.5 -43t39.5 -17t39.5 17t20.5 43h60q-8 -47 -40.5 -78.5t-79.5 -31.5z" />
    <glyph glyph-name="abreve" unicode="&#x103;" horiz-adv-x="465" 
d="M235 455q74 0 122 -45t48 -110v-300h-55l-20 50q-5 -6 -15 -15t-45 -24.5t-75 -15.5q-66 0 -108 39t-42 96q0 70 63 107.5t222 37.5v25q0 34 -27.5 59.5t-67.5 25.5q-74 0 -90 -65h-80q8 59 53 97t117 38zM195 65q57 0 96 32.5t39 72.5v35q-126 0 -168 -19t-42 -61
q0 -24 21 -42t54 -18zM240 520q-47 0 -79.5 31.5t-40.5 78.5h60q4 -26 21 -43t39 -17t39 17t21 43h60q-8 -47 -40.5 -78.5t-79.5 -31.5z" />
    <glyph glyph-name="Aogonek" unicode="&#x104;" horiz-adv-x="550" 
d="M465 0l-60 155h-260l-60 -155h-85l240 630h70l240 -630h-35q-35 -40 -35 -85q0 -19 13 -32t32 -13l40 5v-40q-20 -5 -40 -5q-44 0 -69.5 23.5t-25.5 61.5q0 20 9 41.5t17 32.5zM275 500l-105 -275h210z" />
    <glyph glyph-name="aogonek" unicode="&#x105;" horiz-adv-x="465" 
d="M350 0l-20 50q-5 -6 -15 -15t-45 -24.5t-75 -15.5q-66 0 -108 39t-42 96q0 70 63 107.5t222 37.5v25q0 34 -27.5 59.5t-67.5 25.5q-74 0 -90 -65h-80q8 59 53 97t117 38q74 0 122 -45t48 -110v-300h-5q-35 -40 -35 -85q0 -19 13 -32t32 -13l40 5v-40q-20 -5 -40 -5
q-44 0 -69.5 23.5t-25.5 61.5q0 20 8.5 41.5t17.5 32.5zM195 65q57 0 96 32.5t39 72.5v35q-126 0 -168 -19t-42 -61q0 -24 21 -42t54 -18z" />
    <glyph glyph-name="Cacute" unicode="&#x106;" horiz-adv-x="635" 
d="M335 565q-85 0 -150 -72t-65 -178t65 -178t150 -72q72 0 120.5 41t64.5 104h85q-28 -95 -98.5 -155t-171.5 -60q-118 0 -206.5 93.5t-88.5 226.5t88.5 226.5t206.5 93.5q97 0 167 -60.5t98 -154.5h-85q-16 63 -63.5 104t-116.5 41zM310 705l60 120h75l-85 -120h-50z" />
    <glyph glyph-name="cacute" unicode="&#x107;" horiz-adv-x="470" 
d="M245 385q-54 0 -94.5 -45.5t-40.5 -114.5t40.5 -114.5t94.5 -45.5q43 0 75.5 27.5t44.5 67.5h75q-16 -70 -69 -117.5t-126 -47.5q-88 0 -149 65t-61 165t61 165t149 65q73 0 126 -47.5t69 -117.5h-75q-12 40 -44.5 67.5t-75.5 27.5zM220 524l60 120h75l-85 -120h-50z" />
    <glyph glyph-name="Ccircumflex" unicode="&#x108;" horiz-adv-x="635" 
d="M335 565q-85 0 -150 -72t-65 -178t65 -178t150 -72q72 0 120.5 41t64.5 104h85q-28 -95 -98.5 -155t-171.5 -60q-118 0 -206.5 93.5t-88.5 226.5t88.5 226.5t206.5 93.5q97 0 167 -60.5t98 -154.5h-85q-16 63 -63.5 104t-116.5 41zM370 820l90 -120h-75l-50 70l-50 -70
h-75l90 120h70z" />
    <glyph glyph-name="ccircumflex" unicode="&#x109;" horiz-adv-x="470" 
d="M245 385q-54 0 -94.5 -45.5t-40.5 -114.5t40.5 -114.5t94.5 -45.5q43 0 75.5 27.5t44.5 67.5h75q-16 -70 -69 -117.5t-126 -47.5q-88 0 -149 65t-61 165t61 165t149 65q73 0 126 -47.5t69 -117.5h-75q-12 40 -44.5 67.5t-75.5 27.5zM280 640l90 -120h-75l-50 70l-50 -70
h-75l90 120h70z" />
    <glyph glyph-name="Ccaron" unicode="&#x10c;" horiz-adv-x="635" 
d="M335 565q-85 0 -150 -72t-65 -178t65 -178t150 -72q72 0 120.5 41t64.5 104h85q-28 -95 -98.5 -155t-171.5 -60q-118 0 -206.5 93.5t-88.5 226.5t88.5 226.5t206.5 93.5q97 0 167 -60.5t98 -154.5h-85q-16 63 -63.5 104t-116.5 41zM455 820l-90 -120h-70l-90 120h75
l50 -70l50 70h75z" />
    <glyph glyph-name="ccaron" unicode="&#x10d;" horiz-adv-x="470" 
d="M245 385q-54 0 -94.5 -45.5t-40.5 -114.5t40.5 -114.5t94.5 -45.5q43 0 75.5 27.5t44.5 67.5h75q-16 -70 -69 -117.5t-126 -47.5q-88 0 -149 65t-61 165t61 165t149 65q73 0 126 -47.5t69 -117.5h-75q-12 40 -44.5 67.5t-75.5 27.5zM370 640l-90 -120h-70l-90 120h75
l50 -70l50 70h75z" />
    <glyph glyph-name="Dcaron" unicode="&#x10e;" horiz-adv-x="595" 
d="M160 70h95q88 0 154 71t66 174t-66 174t-154 71h-95v-490zM555 315q0 -134 -87.5 -224.5t-212.5 -90.5h-175v630h175q125 0 212.5 -90.5t87.5 -224.5zM430 820l-90 -120h-70l-90 120h75l50 -70l50 70h75z" />
    <glyph glyph-name="dcaron" unicode="&#x10f;" horiz-adv-x="576" 
d="M510 510l35 120h71l-60 -120h-46zM390 225q0 70 -41 115t-99 45t-99 -45t-41 -115t41 -115t99 -45t99 45t41 115zM400 0l-20 50q-5 -6 -15 -15t-45 -24.5t-75 -15.5q-88 0 -149 65t-61 165t61 165t149 65q40 0 73.5 -15t47.5 -30l14 -15v235h75v-630h-55z" />
    <glyph glyph-name="Dcroat" unicode="&#x110;" horiz-adv-x="620" 
d="M580 315q0 -134 -87.5 -224.5t-212.5 -90.5h-175v275h-90v70h90v285h175q125 0 212.5 -90.5t87.5 -224.5zM185 70h95q88 0 154 71t66 174t-66 174t-154 71h-95v-215h120v-70h-120v-205z" />
    <glyph glyph-name="dcroat" unicode="&#x111;" horiz-adv-x="505" 
d="M230 485v65h125v80h75v-80h75v-65h-75v-485h-55l-20 50q-4 -6 -13 -15t-41.5 -24.5t-70.5 -15.5q-83 0 -141.5 60.5t-58.5 149.5t58.5 149.5t141.5 60.5q38 0 69 -13.5t43 -27.5l13 -14v125h-125zM105 205q0 -59 38.5 -99.5t91.5 -40.5t91.5 40.5t38.5 99.5t-38.5 99.5
t-91.5 40.5t-91.5 -40.5t-38.5 -99.5z" />
    <glyph glyph-name="Emacron" unicode="&#x112;" horiz-adv-x="540" 
d="M160 70h330v-70h-410v630h400v-70h-320v-200h295v-70h-295v-220zM400 785v-60h-240v60h240z" />
    <glyph glyph-name="emacron" unicode="&#x113;" horiz-adv-x="475" 
d="M350 120h80q-25 -54 -72 -89.5t-113 -35.5q-88 0 -149 65t-61 165q0 99 60.5 164.5t144.5 65.5t142 -63t58 -162l-5 -40h-320q4 -49 43 -87t87 -38q64 0 105 55zM240 385q-45 0 -81.5 -37t-43.5 -93h245q-7 59 -40.5 94.5t-79.5 35.5zM360 605v-60h-240v60h240z" />
    <glyph glyph-name="Edotaccent" unicode="&#x116;" horiz-adv-x="540" 
d="M160 70h330v-70h-410v630h400v-70h-320v-200h295v-70h-295v-220zM235 757q0 21 13.5 34.5t33.5 13.5q21 0 34.5 -13.5t13.5 -34.5q0 -20 -13.5 -33.5t-34.5 -13.5q-20 0 -33.5 13.5t-13.5 33.5z" />
    <glyph glyph-name="edotaccent" unicode="&#x117;" horiz-adv-x="475" 
d="M350 120h80q-25 -54 -72 -89.5t-113 -35.5q-88 0 -149 65t-61 165q0 99 60.5 164.5t144.5 65.5t142 -63t58 -162l-5 -40h-320q4 -49 43 -87t87 -38q64 0 105 55zM240 385q-45 0 -81.5 -37t-43.5 -93h245q-7 59 -40.5 94.5t-79.5 35.5zM195 577q0 21 13.5 34.5t33.5 13.5
q21 0 34.5 -13.5t13.5 -34.5q0 -20 -13.5 -33.5t-34.5 -13.5q-20 0 -33.5 13.5t-13.5 33.5z" />
    <glyph glyph-name="Eogonek" unicode="&#x118;" horiz-adv-x="540" 
d="M440 0h-360v630h400v-70h-320v-200h295v-70h-295v-220h330v-70q-35 -40 -35 -85q0 -19 13 -32t32 -13l40 5v-40q-20 -5 -40 -5q-44 0 -69.5 23.5t-25.5 61.5q0 20 8.5 41.5t17.5 32.5z" />
    <glyph glyph-name="eogonek" unicode="&#x119;" horiz-adv-x="475" 
d="M350 120h80q-48 -105 -155 -125q-30 -35 -30 -80q0 -19 13 -32t32 -13l40 5v-40q-20 -5 -40 -5q-44 0 -69.5 23.5t-25.5 61.5q0 20 7.5 40t15.5 30l7 10q-78 8 -134 72t-56 158q0 99 60.5 164.5t144.5 65.5t142 -63t58 -162l-5 -40h-320q4 -49 43 -87t87 -38q64 0 105 55
zM240 385q-45 0 -81.5 -37t-43.5 -93h245q-7 59 -40.5 94.5t-79.5 35.5z" />
    <glyph glyph-name="Ecaron" unicode="&#x11a;" horiz-adv-x="540" 
d="M160 70h330v-70h-410v630h400v-70h-320v-200h295v-70h-295v-220zM410 820l-90 -120h-70l-90 120h75l50 -70l50 70h75z" />
    <glyph glyph-name="ecaron" unicode="&#x11b;" horiz-adv-x="475" 
d="M350 120h80q-25 -54 -72 -89.5t-113 -35.5q-88 0 -149 65t-61 165q0 99 60.5 164.5t144.5 65.5t142 -63t58 -162l-5 -40h-320q4 -49 43 -87t87 -38q64 0 105 55zM240 385q-45 0 -81.5 -37t-43.5 -93h245q-7 59 -40.5 94.5t-79.5 35.5zM365 640l-90 -120h-70l-90 120h75
l50 -70l50 70h75z" />
    <glyph glyph-name="Gbreve" unicode="&#x11e;" horiz-adv-x="675" 
d="M335 565q-85 0 -150 -72t-65 -178t65 -178t150 -72q74 0 132 56t58 124h-185v70h265v-315h-60l-20 75l-8.5 -8.5t-24 -19.5t-39 -24.5t-52.5 -19t-66 -8.5q-118 0 -206.5 93.5t-88.5 226.5t88.5 226.5t206.5 93.5q101 0 167 -55t98 -150h-85q-42 135 -180 135zM340 700
q-47 0 -79.5 31.5t-40.5 78.5h60q4 -26 21 -43t39 -17t39 17t21 43h60q-8 -47 -40.5 -78.5t-79.5 -31.5z" />
    <glyph glyph-name="gbreve" unicode="&#x11f;" horiz-adv-x="505" 
d="M370 15v60q-2 -2 -5 -6.5t-15 -14.5t-25.5 -18t-36.5 -14.5t-48 -6.5q-87 0 -146 62t-59 158t59 158t146 62q40 0 72.5 -13.5t45.5 -27.5l12 -14l20 50h55v-435q0 -80 -55.5 -132.5t-144.5 -52.5q-75 0 -122 37.5t-63 97.5h75q28 -65 110 -65q55 0 90 33t35 82zM110 235
q0 -66 39 -108t96 -42t96 42t39 108t-39 108t-96 42t-96 -42t-39 -108zM245 520q-47 0 -79.5 31.5t-40.5 78.5h60q4 -26 20.5 -43t39.5 -17t39.5 17t20.5 43h60q-8 -47 -40.5 -78.5t-79.5 -31.5z" />
    <glyph glyph-name="Gcommaaccent" unicode="&#x122;" horiz-adv-x="675" 
d="M335 565q-85 0 -150 -72t-65 -178t65 -178t150 -72q74 0 132 56t58 124h-185v70h265v-315h-60l-20 75l-8.5 -8.5t-24 -19.5t-39 -24.5t-52.5 -19t-66 -8.5q-118 0 -206.5 93.5t-88.5 226.5t88.5 226.5t206.5 93.5q101 0 167 -55t98 -150h-85q-42 135 -180 135zM285 -115
q0 21 14.5 35.5t35.5 14.5t35.5 -14.5t14.5 -35.5q0 -27 -7.5 -51t-18.5 -39.5t-22.5 -27.5t-18.5 -17l-8 -5l-15 20q35 30 40 70q-21 0 -35.5 14.5t-14.5 35.5z" />
    <glyph glyph-name="gcommaaccent" unicode="&#x123;" horiz-adv-x="505" 
d="M305 570q0 -21 -14.5 -35.5t-35.5 -14.5t-35.5 14.5t-14.5 35.5q0 27 7.5 51t18.5 39.5t22.5 27.5t18.5 17l8 5l15 -20q-35 -30 -40 -70q21 0 35.5 -14.5t14.5 -35.5zM370 15v60q-2 -2 -5 -6.5t-15 -14.5t-25.5 -18t-36.5 -14.5t-48 -6.5q-87 0 -146 62t-59 158t59 158
t146 62q40 0 72.5 -13.5t45.5 -27.5l12 -14l20 50h55v-435q0 -80 -55.5 -132.5t-144.5 -52.5q-75 0 -122 37.5t-63 97.5h75q28 -65 110 -65q55 0 90 33t35 82zM110 235q0 -66 39 -108t96 -42t96 42t39 108t-39 108t-96 42t-96 -42t-39 -108z" />
    <glyph glyph-name="Imacron" unicode="&#x12a;" horiz-adv-x="240" 
d="M160 630v-630h-80v630h80zM240 780v-60h-240v60h240z" />
    <glyph glyph-name="imacron" unicode="&#x12b;" horiz-adv-x="205" 
d="M140 450v-450h-75v450h75zM220 605v-60h-240v60h240z" />
    <glyph glyph-name="Iogonek" unicode="&#x12e;" horiz-adv-x="240" 
d="M80 0v630h80v-630h-30q-35 -40 -35 -85q0 -19 13 -32t32 -13l40 5v-40q-20 -5 -40 -5q-44 0 -69.5 23.5t-25.5 61.5q0 20 8.5 41.5t17.5 32.5z" />
    <glyph glyph-name="iogonek" unicode="&#x12f;" horiz-adv-x="205" 
d="M140 450v-450h-75v450h75zM55 577q0 21 13.5 34.5t33.5 13.5q21 0 34.5 -13.5t13.5 -34.5q0 -20 -13.5 -33.5t-34.5 -13.5q-20 0 -33.5 13.5t-13.5 33.5zM70 0h50q-35 -40 -35 -85q0 -19 13 -32t32 -13l40 5v-40q-20 -5 -40 -5q-44 0 -69.5 23.5t-25.5 61.5
q0 20 8.5 41.5t17.5 32.5z" />
    <glyph glyph-name="Idotaccent" unicode="&#x130;" horiz-adv-x="240" 
d="M160 630v-630h-80v630h80zM75 757q0 21 13.5 34.5t33.5 13.5q21 0 34.5 -13.5t13.5 -34.5q0 -20 -13.5 -33.5t-34.5 -13.5q-20 0 -33.5 13.5t-13.5 33.5z" />
    <glyph glyph-name="dotlessi" unicode="&#x131;" horiz-adv-x="205" 
d="M140 450v-450h-75v450h75z" />
    <glyph glyph-name="ij" unicode="&#x133;" horiz-adv-x="435" 
d="M295 -15v30q-30 -20 -95 -20q-57 0 -96 41t-39 104v310h75v-310q0 -30 23.5 -52.5t56.5 -22.5q20 0 39 5t27 10l9 5v365h75v-465q0 -66 -38 -108t-92 -42q-13 0 -24.5 2.5t-15.5 4.5l-5 3v65q10 -5 25 -5q34 0 54.5 21.5t20.5 58.5zM285 577q0 21 13.5 34.5t33.5 13.5
q21 0 34.5 -13.5t13.5 -34.5q0 -20 -13.5 -33.5t-34.5 -13.5q-20 0 -33.5 13.5t-13.5 33.5zM55 577q0 21 13.5 34.5t33.5 13.5q21 0 34.5 -13.5t13.5 -34.5q0 -20 -13.5 -33.5t-34.5 -13.5q-20 0 -33.5 13.5t-13.5 33.5z" />
    <glyph glyph-name="Kcommaaccent" unicode="&#x136;" horiz-adv-x="515" 
d="M160 630v-630h-80v630h80zM425 0l-265 320l245 310h95l-250 -310l270 -320h-95zM225 -115q0 21 14.5 35.5t35.5 14.5t35.5 -14.5t14.5 -35.5q0 -27 -7.5 -51t-18.5 -39.5t-22.5 -27.5t-18.5 -17l-8 -5l-15 20q35 30 40 70q-21 0 -35.5 14.5t-14.5 35.5z" />
    <glyph glyph-name="kcommaaccent" unicode="&#x137;" horiz-adv-x="420" 
d="M145 630v-630h-75v630h75zM425 0h-90l-190 235l170 215h85l-170 -210zM180 -115q0 21 14.5 35.5t35.5 14.5t35.5 -14.5t14.5 -35.5q0 -42 -19 -77t-37 -49l-19 -14l-15 20q35 30 40 70q-21 0 -35.5 14.5t-14.5 35.5z" />
    <glyph glyph-name="Lacute" unicode="&#x139;" horiz-adv-x="470" 
d="M160 70h300v-70h-380v630h80v-560zM90 705l60 120h75l-85 -120h-50z" />
    <glyph glyph-name="lacute" unicode="&#x13a;" horiz-adv-x="215" 
d="M145 630v-630h-75v630h75zM80 705l60 120h75l-85 -120h-50z" />
    <glyph glyph-name="Lcommaaccent" unicode="&#x13b;" horiz-adv-x="470" 
d="M160 70h300v-70h-380v630h80v-560zM225 -115q0 21 14.5 35.5t35.5 14.5t35.5 -14.5t14.5 -35.5q0 -27 -7.5 -51t-18.5 -39.5t-22.5 -27.5t-18.5 -17l-8 -5l-15 20q35 30 40 70q-21 0 -35.5 14.5t-14.5 35.5z" />
    <glyph glyph-name="lcommaaccent" unicode="&#x13c;" horiz-adv-x="215" 
d="M145 630v-630h-75v630h75zM55 -115q0 21 14.5 35.5t35.5 14.5t35.5 -14.5t14.5 -35.5q0 -27 -7.5 -51t-18.5 -39.5t-22.5 -27.5t-18.5 -17l-8 -5l-15 20q35 30 40 70q-21 0 -35.5 14.5t-14.5 35.5z" />
    <glyph glyph-name="Lcaron" unicode="&#x13d;" horiz-adv-x="470" 
d="M225 510l35 120h70l-60 -120h-45zM160 70h300v-70h-380v630h80v-560z" />
    <glyph glyph-name="lcaron" unicode="&#x13e;" horiz-adv-x="260" 
d="M200 510l35 120h70l-60 -120h-45zM145 630v-630h-75v630h75z" />
    <glyph glyph-name="Lslash" unicode="&#x141;" horiz-adv-x="485" 
d="M175 70h300v-70h-380v195l-70 -45v80l70 45v355h80v-305l150 100v-80l-150 -100v-175z" />
    <glyph glyph-name="lslash" unicode="&#x142;" horiz-adv-x="250" 
d="M240 360l-80 -52v-308h-75v259l-75 -49v75l75 49v296h75v-247l80 52v-75z" />
    <glyph glyph-name="Nacute" unicode="&#x143;" horiz-adv-x="625" 
d="M465 630h80v-630h-70l-315 475v-475h-80v630h70l315 -475v475zM285 705l60 120h75l-85 -120h-50z" />
    <glyph glyph-name="nacute" unicode="&#x144;" horiz-adv-x="505" 
d="M270 455q73 0 124 -55t51 -140v-260h-75v260q0 55 -32 90t-78 35q-53 0 -86.5 -34.5t-33.5 -90.5v-260h-75v450h55l20 -50q5 6 15 15t43.5 24.5t71.5 15.5zM230 525l60 120h75l-85 -120h-50z" />
    <glyph glyph-name="Ncommaaccent" unicode="&#x145;" horiz-adv-x="625" 
d="M465 630h80v-630h-70l-315 475v-475h-80v630h70l315 -475v475zM260 -115q0 21 14.5 35.5t35.5 14.5t35.5 -14.5t14.5 -35.5q0 -42 -19 -77t-37 -49l-19 -14l-15 20q35 30 40 70q-21 0 -35.5 14.5t-14.5 35.5z" />
    <glyph glyph-name="ncommaaccent" unicode="&#x146;" horiz-adv-x="505" 
d="M270 455q73 0 124 -55t51 -140v-260h-75v260q0 55 -32 90t-78 35q-53 0 -86.5 -34.5t-33.5 -90.5v-260h-75v450h55l20 -50q5 6 15 15t43.5 24.5t71.5 15.5zM205 -115q0 21 14.5 35.5t35.5 14.5t35.5 -14.5t14.5 -35.5q0 -27 -7.5 -51t-18.5 -39.5t-22.5 -27.5t-18.5 -17
l-8 -5l-15 20q35 30 40 70q-21 0 -35.5 14.5t-14.5 35.5z" />
    <glyph glyph-name="Ncaron" unicode="&#x147;" horiz-adv-x="625" 
d="M465 630h80v-630h-70l-315 475v-475h-80v630h70l315 -475v475zM435 820l-90 -120h-70l-90 120h75l50 -70l50 70h75z" />
    <glyph glyph-name="ncaron" unicode="&#x148;" horiz-adv-x="505" 
d="M270 455q73 0 124 -55t51 -140v-260h-75v260q0 55 -32 90t-78 35q-53 0 -86.5 -34.5t-33.5 -90.5v-260h-75v450h55l20 -50q5 6 15 15t43.5 24.5t71.5 15.5zM380 640l-90 -120h-70l-90 120h75l50 -70l50 70h75z" />
    <glyph glyph-name="Omacron" unicode="&#x14c;" horiz-adv-x="660" 
d="M115 315q0 -106 65 -178t150 -72t150 72t65 178t-65 178t-150 72t-150 -72t-65 -178zM625 315q0 -133 -88.5 -226.5t-206.5 -93.5t-206.5 93.5t-88.5 226.5t88.5 226.5t206.5 93.5t206.5 -93.5t88.5 -226.5zM450 780v-60h-240v60h240z" />
    <glyph glyph-name="omacron" unicode="&#x14d;" 
d="M110 225q0 -69 40.5 -114.5t94.5 -45.5t94.5 45.5t40.5 114.5t-40.5 114.5t-94.5 45.5t-94.5 -45.5t-40.5 -114.5zM455 225q0 -100 -61 -165t-149 -65t-149 65t-61 165t61 165t149 65t149 -65t61 -165zM365 605v-60h-240v60h240z" />
    <glyph glyph-name="Ohungarumlaut" unicode="&#x150;" horiz-adv-x="660" 
d="M115 315q0 -106 65 -178t150 -72t150 72t65 178t-65 178t-150 72t-150 -72t-65 -178zM625 315q0 -133 -88.5 -226.5t-206.5 -93.5t-206.5 93.5t-88.5 226.5t88.5 226.5t206.5 93.5t206.5 -93.5t88.5 -226.5zM235 705l65 120h75l-90 -120h-50zM375 705l65 120h75l-90 -120
h-50z" />
    <glyph glyph-name="ohungarumlaut" unicode="&#x151;" 
d="M110 225q0 -69 40.5 -114.5t94.5 -45.5t94.5 45.5t40.5 114.5t-40.5 114.5t-94.5 45.5t-94.5 -45.5t-40.5 -114.5zM455 225q0 -100 -61 -165t-149 -65t-149 65t-61 165t61 165t149 65t149 -65t61 -165zM145 520l65 120h75l-90 -120h-50zM285 520l65 120h75l-90 -120h-50z
" />
    <glyph glyph-name="OE" unicode="&#x152;" horiz-adv-x="840" 
d="M490 70h295v-70h-450q-119 0 -207 92.5t-88 222.5t88.5 222.5t206.5 92.5h440v-70h-285v-200h260v-70h-260v-220zM120 315q0 -103 65 -174t150 -71h75v490h-75q-85 0 -150 -71t-65 -174z" />
    <glyph glyph-name="oe" unicode="&#x153;" horiz-adv-x="790" 
d="M240 455q31 0 59 -10t46.5 -23.5t32.5 -27.5t20 -24l7 -10q2 4 6 10.5t18.5 22.5t31.5 28.5t45 23t59 10.5q81 0 135.5 -61.5t54.5 -163.5l-5 -40h-300q4 -52 39.5 -88.5t80.5 -36.5q62 0 95 55h80q-21 -53 -66.5 -89t-108.5 -36q-31 0 -59 10t-46.5 23.5t-32.5 27.5
t-20 24l-7 10q-2 -4 -6.5 -10.5t-20 -22.5t-33 -28.5t-46 -23t-59.5 -10.5q-84 0 -144.5 65.5t-60.5 164.5t60.5 164.5t144.5 65.5zM110 225q0 -69 39.5 -114.5t90.5 -45.5t90.5 45.5t39.5 114.5t-39.5 114.5t-90.5 45.5t-90.5 -45.5t-39.5 -114.5zM565 385
q-42 0 -76.5 -37.5t-38.5 -92.5h225q-4 58 -35.5 94t-74.5 36z" />
    <glyph glyph-name="Racute" unicode="&#x154;" horiz-adv-x="555" 
d="M430 0l-150 260h-120v-260h-80v630h235q78 0 134 -55t56 -130q0 -41 -14.5 -74.5t-34.5 -52t-40.5 -31.5t-35.5 -17l-14 -5l154 -265h-90zM160 560v-230h155q45 0 77.5 33.5t32.5 81.5t-32.5 81.5t-77.5 33.5h-155zM250 705l60 120h75l-85 -120h-50z" />
    <glyph glyph-name="racute" unicode="&#x155;" horiz-adv-x="300" 
d="M280 455v-75h-20q-53 0 -86.5 -34.5t-33.5 -90.5v-255h-75v450h55l20 -50q5 6 15 15t43.5 24.5t71.5 15.5h10zM145 520l60 120h75l-85 -120h-50z" />
    <glyph glyph-name="Rcommaaccent" unicode="&#x156;" horiz-adv-x="555" 
d="M430 0l-150 260h-120v-260h-80v630h235q78 0 134 -55t56 -130q0 -41 -14.5 -74.5t-34.5 -52t-40.5 -31.5t-35.5 -17l-14 -5l154 -265h-90zM160 560v-230h155q45 0 77.5 33.5t32.5 81.5t-32.5 81.5t-77.5 33.5h-155zM235 -106q0 21 14.5 35.5t35.5 14.5t35.5 -14.5
t14.5 -35.5q0 -27 -7.5 -51t-18.5 -39.5t-22.5 -27.5t-18.5 -17l-8 -5l-15 20q35 30 40 70q-21 0 -35.5 14.5t-14.5 35.5z" />
    <glyph glyph-name="rcommaaccent" unicode="&#x157;" horiz-adv-x="300" 
d="M280 455v-75h-20q-53 0 -86.5 -34.5t-33.5 -90.5v-255h-75v450h55l20 -50q5 6 15 15t43.5 24.5t71.5 15.5h10zM55 -115q0 21 14.5 35.5t35.5 14.5t35.5 -14.5t14.5 -35.5q0 -27 -7.5 -51t-18.5 -39.5t-22.5 -27.5t-18.5 -17l-8 -5l-15 20q35 30 40 70q-21 0 -35.5 14.5
t-14.5 35.5z" />
    <glyph glyph-name="Rcaron" unicode="&#x158;" horiz-adv-x="555" 
d="M430 0l-150 260h-120v-260h-80v630h235q78 0 134 -55t56 -130q0 -41 -14.5 -74.5t-34.5 -52t-40.5 -31.5t-35.5 -17l-14 -5l154 -265h-90zM160 560v-230h155q45 0 77.5 33.5t32.5 81.5t-32.5 81.5t-77.5 33.5h-155zM405 820l-90 -120h-70l-90 120h75l50 -70l50 70h75z
" />
    <glyph glyph-name="rcaron" unicode="&#x159;" horiz-adv-x="300" 
d="M280 455v-75h-20q-53 0 -86.5 -34.5t-33.5 -90.5v-255h-75v450h55l20 -50q5 6 15 15t43.5 24.5t71.5 15.5h10zM300 640l-90 -120h-70l-90 120h75l50 -70l50 70h75z" />
    <glyph glyph-name="Sacute" unicode="&#x15a;" horiz-adv-x="495" 
d="M45 465q0 66 59 118t146 52q82 0 138.5 -55.5t56.5 -134.5h-80q0 52 -33 86t-82 34q-54 0 -89.5 -30.5t-35.5 -69.5q0 -42 34.5 -68t83.5 -40.5t98.5 -32.5t84 -57.5t34.5 -101.5q0 -70 -58 -120t-152 -50q-96 0 -153 53t-57 137h80q0 -57 33.5 -88.5t96.5 -31.5
q61 0 95.5 28.5t34.5 71.5q0 42 -34.5 68t-83.5 40.5t-98.5 32.5t-84 57.5t-34.5 101.5zM225 705l60 120h75l-85 -120h-50z" />
    <glyph glyph-name="sacute" unicode="&#x15b;" horiz-adv-x="395" 
d="M360 130q0 -58 -42.5 -96.5t-112.5 -38.5q-73 0 -117 39t-48 101h75q4 -31 27 -50.5t63 -19.5q36 0 58 19t22 46t-24 41.5t-58.5 22t-69.5 17.5t-59 38.5t-24 75.5q0 54 42 92t108 38q70 0 110.5 -37t44.5 -98h-75q-8 65 -80 65q-32 0 -53.5 -18t-21.5 -42
q0 -27 24 -41.5t58.5 -22t69.5 -17.5t59 -38.5t24 -75.5zM170 520l60 120h75l-85 -120h-50z" />
    <glyph glyph-name="Scedilla" unicode="&#x15e;" horiz-adv-x="495" 
d="M45 465q0 66 59 118t146 52q82 0 138.5 -55.5t56.5 -134.5h-80q0 52 -33 86t-82 34q-54 0 -89.5 -30.5t-35.5 -69.5q0 -42 34.5 -68t83.5 -40.5t98.5 -32.5t84 -57.5t34.5 -101.5q0 -65 -52.5 -114t-137.5 -56l-15 -35q30 -4 47.5 -21.5t17.5 -43.5q0 -28 -23.5 -46.5
t-66.5 -18.5l-45 5v40q20 -5 40 -5q21 0 33 9t12 21t-12 21t-33 9l-25 -5l30 70q-86 7 -138 59t-52 131h80q0 -57 33.5 -88.5t96.5 -31.5q61 0 95.5 28.5t34.5 71.5q0 42 -34.5 68t-83.5 40.5t-98.5 32.5t-84 57.5t-34.5 101.5z" />
    <glyph glyph-name="scedilla" unicode="&#x15f;" horiz-adv-x="395" 
d="M360 130q0 -52 -37.5 -90t-97.5 -45l-15 -35q30 -4 47.5 -21.5t17.5 -43.5q0 -28 -23.5 -46.5t-66.5 -18.5l-45 5v40q20 -5 40 -5q21 0 33 9t12 21t-12 21t-33 9l-25 -5l30 70q-60 4 -100.5 43.5t-44.5 96.5h75q4 -31 27 -50.5t63 -19.5q36 0 58 19t22 46t-24 41.5
t-58.5 22t-69.5 17.5t-59 38.5t-24 75.5q0 54 42 92t108 38q70 0 110.5 -37t44.5 -98h-75q-8 65 -80 65q-32 0 -53.5 -18t-21.5 -42q0 -27 24 -41.5t58.5 -22t69.5 -17.5t59 -38.5t24 -75.5z" />
    <glyph glyph-name="Scaron" unicode="&#x160;" horiz-adv-x="495" 
d="M45 465q0 66 59 118t146 52q82 0 138.5 -55.5t56.5 -134.5h-80q0 52 -33 86t-82 34q-54 0 -89.5 -30.5t-35.5 -69.5q0 -42 34.5 -68t83.5 -40.5t98.5 -32.5t84 -57.5t34.5 -101.5q0 -70 -58 -120t-152 -50q-96 0 -153 53t-57 137h80q0 -57 33.5 -88.5t96.5 -31.5
q61 0 95.5 28.5t34.5 71.5q0 42 -34.5 68t-83.5 40.5t-98.5 32.5t-84 57.5t-34.5 101.5zM375 820l-90 -120h-70l-90 120h75l50 -70l50 70h75z" />
    <glyph glyph-name="scaron" unicode="&#x161;" horiz-adv-x="395" 
d="M360 130q0 -58 -42.5 -96.5t-112.5 -38.5q-73 0 -117 39t-48 101h75q4 -31 27 -50.5t63 -19.5q36 0 58 19t22 46t-24 41.5t-58.5 22t-69.5 17.5t-59 38.5t-24 75.5q0 54 42 92t108 38q70 0 110.5 -37t44.5 -98h-75q-8 65 -80 65q-32 0 -53.5 -18t-21.5 -42
q0 -27 24 -41.5t58.5 -22t69.5 -17.5t59 -38.5t24 -75.5zM320 640l-90 -120h-70l-90 120h75l50 -70l50 70h75z" />
    <glyph glyph-name="Tcommaaccent" unicode="&#x162;" 
d="M475 630v-70h-190v-560h-80v560h-190v70h460zM195 -115q0 21 14.5 35.5t35.5 14.5t35.5 -14.5t14.5 -35.5q0 -27 -7.5 -51t-18.5 -39.5t-22.5 -27.5t-18.5 -17l-8 -5l-15 20q35 30 40 70q-21 0 -35.5 14.5t-14.5 35.5z" />
    <glyph glyph-name="tcommaaccent" unicode="&#x163;" horiz-adv-x="320" 
d="M110 505v65h65v-120h100v-70h-100v-235q0 -37 20.5 -58.5t54.5 -21.5l25 5v-65q-15 -10 -45 -10q-54 0 -92 42t-38 108v235h-80v70h35q55 0 55 55zM145 -115q0 21 14.5 35.5t35.5 14.5t35.5 -14.5t14.5 -35.5q0 -27 -7.5 -51t-18.5 -39.5t-22.5 -27.5t-18.5 -17l-8 -5
l-15 20q35 30 40 70q-21 0 -35.5 14.5t-14.5 35.5z" />
    <glyph glyph-name="Tcaron" unicode="&#x164;" 
d="M475 630v-70h-190v-560h-80v560h-190v70h460zM370 820l-90 -120h-70l-90 120h75l50 -70l50 70h75z" />
    <glyph glyph-name="tcaron" unicode="&#x165;" horiz-adv-x="330" 
d="M275 510l35 120h70l-60 -120h-45zM110 505v65h65v-120h100v-70h-100v-235q0 -37 20.5 -58.5t54.5 -21.5l25 5v-65q-15 -10 -45 -10q-54 0 -92 42t-38 108v235h-80v70h35q55 0 55 55z" />
    <glyph glyph-name="Umacron" unicode="&#x16a;" horiz-adv-x="600" 
d="M300 -5q-101 0 -165.5 63.5t-64.5 161.5v410h80v-410q0 -71 41 -113t109 -42t109 42t41 113v410h80v-410q0 -98 -64.5 -161.5t-165.5 -63.5zM420 780v-60h-240v60h240z" />
    <glyph glyph-name="umacron" unicode="&#x16b;" horiz-adv-x="505" 
d="M240 -5q-73 0 -124 55t-51 140v260h75v-260q0 -55 32 -90t78 -35q53 0 86.5 34.5t33.5 90.5v260h75v-450h-55l-20 50q-5 -6 -15 -15t-43.5 -24.5t-71.5 -15.5zM375 600v-60h-240v60h240z" />
    <glyph glyph-name="Uring" unicode="&#x16e;" horiz-adv-x="600" 
d="M300 -5q-101 0 -165.5 63.5t-64.5 161.5v410h80v-410q0 -71 41 -113t109 -42t109 42t41 113v410h80v-410q0 -98 -64.5 -161.5t-165.5 -63.5zM260 770q0 -15 10 -25t25 -10t25 10t10 25t-10 25t-25 10t-25 -10t-10 -25zM375 770q0 -34 -23 -57t-57 -23t-57 23t-23 57
t23 57t57 23t57 -23t23 -57z" />
    <glyph glyph-name="uring" unicode="&#x16f;" horiz-adv-x="505" 
d="M240 -5q-73 0 -124 55t-51 140v260h75v-260q0 -55 32 -90t78 -35q53 0 86.5 34.5t33.5 90.5v260h75v-450h-55l-20 50q-5 -6 -15 -15t-43.5 -24.5t-71.5 -15.5zM220 589q0 -15 10 -25t25 -10t25 10t10 25t-10 25t-25 10t-25 -10t-10 -25zM335 589q0 -34 -23 -57t-57 -23
t-57 23t-23 57t23 57t57 23t57 -23t23 -57z" />
    <glyph glyph-name="Uhungarumlaut" unicode="&#x170;" horiz-adv-x="600" 
d="M300 -5q-101 0 -165.5 63.5t-64.5 161.5v410h80v-410q0 -71 41 -113t109 -42t109 42t41 113v410h80v-410q0 -98 -64.5 -161.5t-165.5 -63.5zM200 705l65 120h75l-90 -120h-50zM340 705l65 120h75l-90 -120h-50z" />
    <glyph glyph-name="uhungarumlaut" unicode="&#x171;" horiz-adv-x="505" 
d="M240 -5q-73 0 -124 55t-51 140v260h75v-260q0 -55 32 -90t78 -35q53 0 86.5 34.5t33.5 90.5v260h75v-450h-55l-20 50q-5 -6 -15 -15t-43.5 -24.5t-71.5 -15.5zM160 525l65 120h75l-90 -120h-50zM300 525l65 120h75l-90 -120h-50z" />
    <glyph glyph-name="Uogonek" unicode="&#x172;" horiz-adv-x="600" 
d="M530 220q0 -92 -52.5 -150t-137.5 -70q-35 -45 -35 -85q0 -19 13 -32t32 -13l40 5v-40q-20 -5 -40 -5q-44 0 -69.5 23.5t-25.5 61.5q0 18 7.5 38t15.5 31l8 11q-91 4 -153.5 68t-62.5 157v410h80v-410q0 -71 41 -113t109 -42t109 42t41 113v410h80v-410z" />
    <glyph glyph-name="uogonek" unicode="&#x173;" horiz-adv-x="505" 
d="M390 0l-20 50q-5 -6 -15 -15t-43.5 -24.5t-71.5 -15.5q-73 0 -124 55t-51 140v260h75v-260q0 -55 32 -90t78 -35q53 0 86.5 34.5t33.5 90.5v260h75v-450h-5q-35 -40 -35 -85q0 -19 13 -32t32 -13l40 5v-40q-20 -5 -40 -5q-44 0 -69.5 23.5t-25.5 61.5q0 20 8.5 41.5
t17.5 32.5z" />
    <glyph glyph-name="Ydieresis" unicode="&#x178;" horiz-adv-x="500" 
d="M210 245l-200 385h85l155 -300l155 300h85l-200 -385v-245h-80v245zM175 715q-19 0 -32 13t-13 32t13 32t32 13t32 -13t13 -32t-13 -32t-32 -13zM325 715q-19 0 -32 13t-13 32t13 32t32 13t32 -13t13 -32t-13 -32t-32 -13z" />
    <glyph glyph-name="Zacute" unicode="&#x179;" horiz-adv-x="495" 
d="M445 580l-310 -510h325v-70h-425v50l310 510h-300v70h400v-50zM220 705l60 120h75l-85 -120h-50z" />
    <glyph glyph-name="zacute" unicode="&#x17a;" horiz-adv-x="390" 
d="M35 65l220 315h-220v70h310v-65l-220 -315h230v-70h-320v65zM165 525l60 120h75l-85 -120h-50z" />
    <glyph glyph-name="Zdotaccent" unicode="&#x17b;" horiz-adv-x="495" 
d="M445 580l-310 -510h325v-70h-425v50l310 510h-300v70h400v-50zM195 757q0 21 13.5 34.5t33.5 13.5q21 0 34.5 -13.5t13.5 -34.5q0 -20 -13.5 -33.5t-34.5 -13.5q-20 0 -33.5 13.5t-13.5 33.5z" />
    <glyph glyph-name="zdotaccent" unicode="&#x17c;" horiz-adv-x="390" 
d="M35 65l220 315h-220v70h310v-65l-220 -315h230v-70h-320v65zM145 577q0 21 13.5 34.5t33.5 13.5q21 0 34.5 -13.5t13.5 -34.5q0 -20 -13.5 -33.5t-34.5 -13.5q-20 0 -33.5 13.5t-13.5 33.5z" />
    <glyph glyph-name="Zcaron" unicode="&#x17d;" horiz-adv-x="495" 
d="M445 580l-310 -510h325v-70h-425v50l310 510h-300v70h400v-50zM370 820l-90 -120h-70l-90 120h75l50 -70l50 70h75z" />
    <glyph glyph-name="zcaron" unicode="&#x17e;" horiz-adv-x="390" 
d="M35 65l220 315h-220v70h310v-65l-220 -315h230v-70h-320v65zM315 640l-90 -120h-70l-90 120h75l50 -70l50 70h75z" />
    <glyph glyph-name="florin" unicode="&#x192;" horiz-adv-x="320" 
d="M190 310l-60 -325q-12 -64 -55.5 -107t-99.5 -43q-13 0 -24.5 2.5t-16.5 4.5l-4 3l15 65q10 -5 25 -5q69 0 85 80l60 325h-70l10 70h70l20 105q12 64 55.5 107t99.5 43q13 0 24.5 -2.5t15.5 -4.5l5 -3l-15 -65q-10 5 -25 5q-69 0 -85 -80l-20 -105h100l-10 -70h-100z" />
    <glyph glyph-name="Scommaaccent" unicode="&#x218;" horiz-adv-x="495" 
d="M45 465q0 66 59 118t146 52q82 0 138.5 -55.5t56.5 -134.5h-80q0 52 -33 86t-82 34q-54 0 -89.5 -30.5t-35.5 -69.5q0 -42 34.5 -68t83.5 -40.5t98.5 -32.5t84 -57.5t34.5 -101.5q0 -70 -58 -120t-152 -50q-96 0 -153 53t-57 137h80q0 -57 33.5 -88.5t96.5 -31.5
q61 0 95.5 28.5t34.5 71.5q0 42 -34.5 68t-83.5 40.5t-98.5 32.5t-84 57.5t-34.5 101.5zM195 -106q0 21 14.5 35.5t35.5 14.5t35.5 -14.5t14.5 -35.5q0 -27 -7.5 -51t-18.5 -39.5t-22.5 -27.5t-18.5 -17l-8 -5l-15 20q35 30 40 70q-21 0 -35.5 14.5t-14.5 35.5z" />
    <glyph glyph-name="scommaaccent" unicode="&#x219;" horiz-adv-x="395" 
d="M360 130q0 -58 -42.5 -96.5t-112.5 -38.5q-73 0 -117 39t-48 101h75q4 -31 27 -50.5t63 -19.5q36 0 58 19t22 46t-24 41.5t-58.5 22t-69.5 17.5t-59 38.5t-24 75.5q0 54 42 92t108 38q70 0 110.5 -37t44.5 -98h-75q-8 65 -80 65q-32 0 -53.5 -18t-21.5 -42
q0 -27 24 -41.5t58.5 -22t69.5 -17.5t59 -38.5t24 -75.5zM150 -115q0 21 14.5 35.5t35.5 14.5t35.5 -14.5t14.5 -35.5q0 -42 -19 -77t-37 -49l-19 -14l-15 20q35 30 40 70q-21 0 -35.5 14.5t-14.5 35.5z" />
    <glyph glyph-name="uni021A" unicode="&#x21a;" 
d="M475 630v-70h-190v-560h-80v560h-190v70h460zM200 -115q0 21 14.5 35.5t35.5 14.5t35.5 -14.5t14.5 -35.5q0 -42 -19 -77t-37 -49l-19 -14l-15 20q35 30 40 70q-21 0 -35.5 14.5t-14.5 35.5z" />
    <glyph glyph-name="uni021B" unicode="&#x21b;" horiz-adv-x="320" 
d="M110 505v65h65v-120h100v-70h-100v-235q0 -37 20.5 -58.5t54.5 -21.5l25 5v-65q-15 -10 -45 -10q-54 0 -92 42t-38 108v235h-80v70h35q55 0 55 55zM145 -115q0 21 14.5 35.5t35.5 14.5t35.5 -14.5t14.5 -35.5q0 -27 -7.5 -51t-18.5 -39.5t-22.5 -27.5t-18.5 -17l-8 -5
l-15 20q35 30 40 70q-21 0 -35.5 14.5t-14.5 35.5z" />
    <glyph glyph-name="afii57929" unicode="&#x2bc;" horiz-adv-x="160" 
d="M30 580q0 21 14.5 35.5t35.5 14.5t35.5 -14.5t14.5 -35.5q0 -27 -7.5 -51t-19 -39.5t-22.5 -27.5t-19 -17l-7 -5l-15 20q35 30 40 70q-21 0 -35.5 14.5t-14.5 35.5z" />
    <glyph glyph-name="circumflex" unicode="&#x2c6;" horiz-adv-x="310" 
d="M190 625l90 -120h-75l-50 70l-50 -70h-75l90 120h70z" />
    <glyph glyph-name="caron" unicode="&#x2c7;" horiz-adv-x="310" 
d="M280 625l-90 -120h-70l-90 120h75l50 -70l50 70h75z" />
    <glyph glyph-name="breve" unicode="&#x2d8;" horiz-adv-x="300" 
d="M150 515q-47 0 -79.5 31.5t-40.5 78.5h60q4 -26 21 -43t39 -17t39 17t21 43h60q-8 -47 -40.5 -78.5t-79.5 -31.5z" />
    <glyph glyph-name="dotaccent" unicode="&#x2d9;" horiz-adv-x="155" 
d="M30 577q0 21 13.5 34.5t33.5 13.5q21 0 34.5 -13.5t13.5 -34.5q0 -20 -13.5 -33.5t-34.5 -13.5q-20 0 -33.5 13.5t-13.5 33.5z" />
    <glyph glyph-name="ring" unicode="&#x2da;" horiz-adv-x="220" 
d="M75 580q0 -15 10 -25t25 -10t25 10t10 25t-10 25t-25 10t-25 -10t-10 -25zM190 580q0 -34 -23 -57t-57 -23t-57 23t-23 57t23 57t57 23t57 -23t23 -57z" />
    <glyph glyph-name="ogonek" unicode="&#x2db;" horiz-adv-x="195" 
d="M65 0h50q-35 -40 -35 -85q0 -19 13 -32t32 -13l40 5v-40q-20 -5 -40 -5q-44 0 -69.5 23.5t-25.5 61.5q0 20 9 41.5t17 32.5z" />
    <glyph glyph-name="tilde" unicode="&#x2dc;" horiz-adv-x="340" 
d="M225 565q16 0 28 16t12 44h45q0 -54 -24.5 -84.5t-60.5 -30.5q-20 0 -37.5 10t-27 22.5t-22 22.5t-23.5 10q-16 0 -28 -16t-12 -44h-45q0 54 24.5 84.5t60.5 30.5q20 0 37.5 -10t27 -22.5t22 -22.5t23.5 -10z" />
    <glyph glyph-name="hungarumlaut" unicode="&#x2dd;" horiz-adv-x="340" 
d="M30 510l65 120h75l-90 -120h-50zM170 510l65 120h75l-90 -120h-50z" />
    <glyph glyph-name="afii10023" unicode="&#x401;" horiz-adv-x="540" 
d="M160 70h330v-70h-410v630h400v-70h-320v-200h295v-70h-295v-220zM205 715q-19 0 -32 13t-13 32t13 32t32 13t32 -13t13 -32t-13 -32t-32 -13zM355 715q-19 0 -32 13t-13 32t13 32t32 13t32 -13t13 -32t-13 -32t-32 -13z" />
    <glyph glyph-name="afii10051" unicode="&#x402;" horiz-adv-x="615" 
d="M360 335q-56 0 -95.5 -39.5t-39.5 -95.5v-200h-80v560h-145v70h375v-70h-150v-230q6 8 17.5 20.5t49.5 33.5t78 21q88 0 146.5 -62.5t58.5 -162.5q0 -108 -59 -169t-161 -61v70q58 0 99 45t41 115t-38.5 112.5t-96.5 42.5z" />
    <glyph glyph-name="afii10052" unicode="&#x403;" horiz-adv-x="450" 
d="M440 560h-280v-560h-80v630h360v-70zM230 705l60 120h75l-85 -120h-50z" />
    <glyph glyph-name="afii10053" unicode="&#x404;" horiz-adv-x="625" 
d="M370 350v-70h-255q11 -90 73 -152.5t137 -62.5q72 0 120.5 37t64.5 93h85q-28 -87 -99 -143.5t-171 -56.5q-115 0 -202.5 93.5t-87.5 226.5t87.5 226.5t202.5 93.5q97 0 167 -58.5t98 -146.5h-85q-16 56 -64 95.5t-116 39.5q-75 0 -137 -62.5t-73 -152.5h255z" />
    <glyph glyph-name="afii10054" unicode="&#x405;" horiz-adv-x="495" 
d="M45 465q0 66 59 118t146 52q82 0 138.5 -55.5t56.5 -134.5h-80q0 52 -33 86t-82 34q-54 0 -89.5 -30.5t-35.5 -69.5q0 -42 34.5 -68t83.5 -40.5t98.5 -32.5t84 -57.5t34.5 -101.5q0 -70 -58 -120t-152 -50q-96 0 -153 53t-57 137h80q0 -57 33.5 -88.5t96.5 -31.5
q61 0 95.5 28.5t34.5 71.5q0 42 -34.5 68t-83.5 40.5t-98.5 32.5t-84 57.5t-34.5 101.5z" />
    <glyph glyph-name="afii10055" unicode="&#x406;" horiz-adv-x="240" 
d="M160 630v-630h-80v630h80z" />
    <glyph glyph-name="afii10056" unicode="&#x407;" horiz-adv-x="260" 
d="M170 630v-630h-80v630h80zM55 715q-19 0 -32 13t-13 32t13 32t32 13t32 -13t13 -32t-13 -32t-32 -13zM205 715q-19 0 -32 13t-13 32t13 32t32 13t32 -13t13 -32t-13 -32t-32 -13z" />
    <glyph glyph-name="afii10057" unicode="&#x408;" horiz-adv-x="460" 
d="M310 631h80v-461q0 -72 -54.5 -123.5t-135.5 -51.5t-135.5 51.5t-54.5 123.5h80q4 -45 34.5 -75t75.5 -30q48 0 79 30t31 75v461z" />
    <glyph glyph-name="afii10058" unicode="&#x409;" horiz-adv-x="895" 
d="M665 0h-220v560h-215l-30 -375q-7 -88 -54 -139t-116 -51l-35 5v65h10q49 0 80 32t35 88l35 445h370v-240h140q82 0 141 -58t59 -137t-59 -137t-141 -58zM665 320h-140v-250h140q49 0 84.5 36.5t35.5 88.5t-35.5 88.5t-84.5 36.5z" />
    <glyph glyph-name="afii10059" unicode="&#x40a;" horiz-adv-x="895" 
d="M665 0h-220v320h-285v-320h-80v630h80v-240h285v240h80v-240h140q82 0 141 -58t59 -137t-59 -137t-141 -58zM665 320h-140v-250h140q49 0 84.5 36.5t35.5 88.5t-35.5 88.5t-84.5 36.5z" />
    <glyph glyph-name="afii10060" unicode="&#x40b;" horiz-adv-x="625" 
d="M365 405q83 0 139 -58t56 -147v-200h-80v200q0 59 -36 97t-89 38t-91.5 -39.5t-38.5 -95.5v-200h-80v560h-145v70h375v-70h-150v-230q6 8 17.5 20.5t48 33.5t74.5 21z" />
    <glyph glyph-name="afii10061" unicode="&#x40c;" horiz-adv-x="525" 
d="M250 705l60 120h75l-85 -120h-50zM160 630v-630h-80v630h80zM425 0l-265 320l245 310h95l-250 -310l270 -320h-95z" />
    <glyph glyph-name="afii10062" unicode="&#x40e;" horiz-adv-x="510" 
d="M415 630h85l-220 -500q-32 -73 -67 -106.5t-83 -33.5q-12 0 -25.5 2.5t-21.5 5.5l-8 2v65q15 -5 35 -5q57 0 85 70l20 45l-205 455h90l160 -360zM255 705q-47 0 -79.5 31.5t-40.5 78.5h60q4 -26 20.5 -43t39.5 -17t39.5 17t20.5 43h60q-8 -47 -40.5 -78.5t-79.5 -31.5z
" />
    <glyph glyph-name="afii10145" unicode="&#x40f;" horiz-adv-x="615" 
d="M265 0h-185v630h80v-560h290v560h80v-630h-185v-130h-80v130z" />
    <glyph glyph-name="afii10017" unicode="&#x410;" horiz-adv-x="550" 
d="M465 0l-60 155h-260l-60 -155h-85l240 630h70l240 -630h-85zM275 500l-105 -275h210z" />
    <glyph glyph-name="afii10018" unicode="&#x411;" horiz-adv-x="555" 
d="M80 0v630h390v-80h-310v-180h165q82 0 136 -53t54 -132t-54 -132t-136 -53h-245zM325 300h-165v-230h165q49 0 79.5 31.5t30.5 83.5t-30.5 83.5t-79.5 31.5z" />
    <glyph glyph-name="afii10019" unicode="&#x412;" horiz-adv-x="560" 
d="M425 335q4 -2 10.5 -5t22.5 -16.5t28.5 -29.5t23 -44t10.5 -60q0 -72 -58 -126t-142 -54h-240v630h235q78 0 129 -49t51 -121q0 -40 -17.5 -71t-35.5 -43zM160 560v-195h155q44 0 74.5 28.5t30.5 66.5q0 42 -30 71t-75 29h-155zM160 70h160q52 0 86 33t34 82q0 46 -34 78
t-86 32h-160v-225z" />
    <glyph glyph-name="afii10020" unicode="&#x413;" horiz-adv-x="450" 
d="M440 560h-280v-560h-80v630h360v-70z" />
    <glyph glyph-name="afii10021" unicode="&#x414;" horiz-adv-x="605" 
d="M515 70h70v-200h-75v130h-435v-130h-75v200h35q2 2 6.5 5t15 14.5t19.5 25t17.5 35t11.5 45.5l50 435h360v-560zM435 70v490h-207l-43 -365q-4 -38 -16.5 -69t-22.5 -44l-11 -12h300z" />
    <glyph glyph-name="afii10022" unicode="&#x415;" horiz-adv-x="540" 
d="M160 70h330v-70h-410v630h400v-70h-320v-200h295v-70h-295v-220z" />
    <glyph glyph-name="afii10024" unicode="&#x416;" horiz-adv-x="740" 
d="M330 0v630h80v-630h-80zM330 320l-240 -320h-95l245 320l-225 310h95zM650 0l-240 320l220 310h95l-225 -310l245 -320h-95z" />
    <glyph glyph-name="afii10025" unicode="&#x417;" 
d="M115 460h-80q8 77 62 126t138 49q85 0 140 -51t55 -124q0 -40 -21.5 -72.5t-42.5 -45.5l-21 -12q4 -2 11 -5t25.5 -16.5t32 -29.5t25 -44t11.5 -60q0 -73 -59.5 -126.5t-150.5 -53.5t-147 48.5t-68 126.5h80q8 -47 42.5 -76t92.5 -29t94 32t36 78t-36 78t-94 32h-46v70
h41q52 0 83.5 29.5t31.5 75.5t-31.5 75.5t-83.5 29.5q-51 0 -83.5 -29.5t-36.5 -75.5z" />
    <glyph glyph-name="afii10026" unicode="&#x418;" horiz-adv-x="625" 
d="M545 0h-80v485l-315 -485h-70v630h80v-485l315 485h70v-630z" />
    <glyph glyph-name="afii10027" unicode="&#x419;" horiz-adv-x="625" 
d="M545 0h-80v485l-315 -485h-70v630h80v-485l315 485h70v-630zM315 700q-51 0 -84 30t-41 80h60q4 -27 21.5 -43.5t43.5 -16.5t43.5 16.5t21.5 43.5h60q-8 -50 -41 -80t-84 -30z" />
    <glyph glyph-name="afii10028" unicode="&#x41a;" horiz-adv-x="515" 
d="M160 630v-630h-80v630h80zM425 0l-265 320l245 310h95l-250 -310l270 -320h-95z" />
    <glyph glyph-name="afii10029" unicode="&#x41b;" horiz-adv-x="620" 
d="M155 630h385v-630h-80v560h-230l-30 -375q-7 -88 -54 -139t-116 -51l-35 5v65h10q49 0 80 32t35 88z" />
    <glyph glyph-name="afii10030" unicode="&#x41c;" horiz-adv-x="760" 
d="M380 125l235 505h65v-630h-80v425l-195 -425h-50l-195 425v-425h-80v630h65z" />
    <glyph glyph-name="afii10031" unicode="&#x41d;" horiz-adv-x="625" 
d="M465 630h80v-630h-80v285h-305v-285h-80v630h80v-275h305v275z" />
    <glyph glyph-name="afii10032" unicode="&#x41e;" horiz-adv-x="660" 
d="M115 315q0 -106 65 -178t150 -72t150 72t65 178t-65 178t-150 72t-150 -72t-65 -178zM625 315q0 -133 -88.5 -226.5t-206.5 -93.5t-206.5 93.5t-88.5 226.5t88.5 226.5t206.5 93.5t206.5 -93.5t88.5 -226.5z" />
    <glyph glyph-name="afii10033" unicode="&#x41f;" horiz-adv-x="630" 
d="M80 630h470v-630h-80v560h-310v-560h-80v630z" />
    <glyph glyph-name="afii10034" unicode="&#x420;" horiz-adv-x="535" 
d="M80 630h215q82 0 141 -58t59 -137t-59 -137t-141 -58h-135v-240h-80v630zM160 310h135q49 0 84.5 36.5t35.5 88.5t-35.5 88.5t-84.5 36.5h-135v-250z" />
    <glyph glyph-name="afii10035" unicode="&#x421;" horiz-adv-x="635" 
d="M335 565q-85 0 -150 -72t-65 -178t65 -178t150 -72q72 0 120.5 41t64.5 104h85q-28 -95 -98.5 -155t-171.5 -60q-118 0 -206.5 93.5t-88.5 226.5t88.5 226.5t206.5 93.5q97 0 167 -60.5t98 -154.5h-85q-16 63 -63.5 104t-116.5 41z" />
    <glyph glyph-name="afii10036" unicode="&#x422;" 
d="M475 630v-70h-190v-560h-80v560h-190v70h460z" />
    <glyph glyph-name="afii10037" unicode="&#x423;" horiz-adv-x="510" 
d="M415 630h85l-220 -500q-32 -73 -67 -106.5t-83 -33.5q-12 0 -25.5 2.5t-21.5 5.5l-8 2v65q15 -5 35 -5q57 0 85 70l20 45l-205 455h90l160 -360z" />
    <glyph glyph-name="afii10038" unicode="&#x424;" horiz-adv-x="720" 
d="M40 325q0 104 74 171t206 74v60h80v-60q132 -7 206 -74t74 -171t-74 -171t-206 -74v-85h-80v85q-132 7 -206 74t-74 171zM320 150v350q-92 -4 -146 -53t-54 -122t54 -122t146 -53zM400 500v-350q92 4 146 53t54 122t-54 122t-146 53z" />
    <glyph glyph-name="afii10039" unicode="&#x425;" horiz-adv-x="520" 
d="M10 0l205 320l-195 310h90l150 -240l150 240h90l-195 -310l205 -320h-95l-155 250l-155 -250h-95z" />
    <glyph glyph-name="afii10040" unicode="&#x426;" horiz-adv-x="620" 
d="M530 70h70v-200h-75v130h-445v630h80v-560h290v560h80v-560z" />
    <glyph glyph-name="afii10041" unicode="&#x427;" horiz-adv-x="590" 
d="M430 630h80v-630h-80v235q-70 -45 -155 -45q-94 0 -149.5 56.5t-55.5 153.5v230h80v-230q0 -67 34.5 -103.5t95.5 -36.5q36 0 73.5 11t56.5 23l20 11v325z" />
    <glyph glyph-name="afii10042" unicode="&#x428;" horiz-adv-x="840" 
d="M680 630h80v-630h-680v630h80v-560h220v560h80v-560h220v560z" />
    <glyph glyph-name="afii10043" unicode="&#x429;" horiz-adv-x="850" 
d="M755 0h-675v630h80v-560h220v560h80v-560h220v560h80v-560h70v-200h-75v130z" />
    <glyph glyph-name="afii10044" unicode="&#x42a;" horiz-adv-x="600" 
d="M0 560v70h230v-240h140q82 0 141 -58t59 -137t-59 -137t-141 -58h-220v560h-150zM370 320h-140v-250h140q49 0 84.5 36.5t35.5 88.5t-35.5 88.5t-84.5 36.5z" />
    <glyph glyph-name="afii10045" unicode="&#x42b;" horiz-adv-x="730" 
d="M650 630v-630h-80v630h80zM290 0h-210v630h80v-240h130q82 0 141 -58t59 -137t-59 -137t-141 -58zM290 320h-130v-250h130q49 0 84.5 36.5t35.5 88.5t-35.5 88.5t-84.5 36.5z" />
    <glyph glyph-name="afii10046" unicode="&#x42c;" horiz-adv-x="530" 
d="M300 0h-220v630h80v-240h140q82 0 141 -58t59 -137t-59 -137t-141 -58zM300 320h-140v-250h140q49 0 84.5 36.5t35.5 88.5t-35.5 88.5t-84.5 36.5z" />
    <glyph glyph-name="afii10047" unicode="&#x42d;" horiz-adv-x="620" 
d="M250 280v70h255q-11 90 -73 152.5t-137 62.5q-68 0 -116 -39.5t-64 -95.5h-85q28 88 98 146.5t167 58.5q115 0 202.5 -93.5t87.5 -226.5t-87.5 -226.5t-202.5 -93.5q-100 0 -171 56.5t-99 143.5h85q16 -56 64.5 -93t120.5 -37q75 0 137 62.5t73 152.5h-255z" />
    <glyph glyph-name="afii10048" unicode="&#x42e;" horiz-adv-x="840" 
d="M530 635q108 0 191.5 -92.5t83.5 -227.5t-83.5 -227.5t-191.5 -92.5q-102 0 -183 82t-92 198h-95v-275h-80v630h80v-285h95q11 122 92 206t183 84zM530 65q75 0 135 71t60 179t-60 179t-135 71t-135 -71t-60 -179t60 -179t135 -71z" />
    <glyph glyph-name="afii10049" unicode="&#x42f;" horiz-adv-x="565" 
d="M281 260l-156 -260h-90l160 265q-6 1 -15.5 4.5t-33.5 17.5t-42.5 32t-33.5 51.5t-15 74.5q0 75 56 130t134 55h235v-630h-80v260h-119zM400 330v230h-155q-45 0 -77.5 -33.5t-32.5 -81.5t32.5 -81.5t77.5 -33.5h155z" />
    <glyph glyph-name="afii10065" unicode="&#x430;" horiz-adv-x="465" 
d="M235 455q74 0 122 -45t48 -110v-300h-55l-20 50q-5 -6 -15 -15t-45 -24.5t-75 -15.5q-66 0 -108 39t-42 96q0 70 63 107.5t222 37.5v25q0 34 -27.5 59.5t-67.5 25.5q-74 0 -90 -65h-80q8 59 53 97t117 38zM195 65q57 0 96 32.5t39 72.5v35q-126 0 -168 -19t-42 -61
q0 -24 21 -42t54 -18z" />
    <glyph glyph-name="afii10066" unicode="&#x431;" horiz-adv-x="500" 
d="M115 360q2 3 6 8t18 18t30 23t42 18t54 8q80 0 140 -64t60 -156q0 -93 -59 -156.5t-146 -63.5q-91 0 -153 75t-62 205q0 195 79.5 274.5t285.5 90.5v-70q-106 -5 -169 -29.5t-90.5 -67t-35.5 -113.5zM260 65q54 0 92 42t38 108t-38 108t-92 42t-94.5 -43.5t-40.5 -106.5
t40.5 -106.5t94.5 -43.5z" />
    <glyph glyph-name="afii10067" unicode="&#x432;" horiz-adv-x="450" 
d="M340 235q3 -1 7.5 -3t16.5 -11t21.5 -19.5t17 -30t7.5 -41.5q0 -56 -37 -93t-93 -37h-215v450h200q56 0 93 -36t37 -89q0 -18 -5.5 -34t-13.5 -26t-16.5 -17t-13.5 -10zM255 380h-115v-115h115q29 0 47 16t18 39q0 27 -17.5 43.5t-47.5 16.5zM270 70q26 0 45.5 19.5
t19.5 45.5q0 23 -19.5 41.5t-45.5 18.5h-130v-125h130z" />
    <glyph glyph-name="afii10068" unicode="&#x433;" horiz-adv-x="365" 
d="M355 450v-70h-215v-380h-75v450h290z" />
    <glyph glyph-name="afii10069" unicode="&#x434;" 
d="M410 70h60v-180h-70v110h-330v-110h-70v180h25q6 4 15 11.5t25.5 33.5t19.5 55l30 280h295v-380zM182 380l-22 -210q-3 -29 -14 -54t-21 -36l-10 -10h220v310h-153z" />
    <glyph glyph-name="afii10070" unicode="&#x435;" horiz-adv-x="475" 
d="M350 120h80q-25 -54 -72 -89.5t-113 -35.5q-88 0 -149 65t-61 165q0 99 60.5 164.5t144.5 65.5t142 -63t58 -162l-5 -40h-320q4 -49 43 -87t87 -38q64 0 105 55zM240 385q-45 0 -81.5 -37t-43.5 -93h245q-7 59 -40.5 94.5t-79.5 35.5z" />
    <glyph glyph-name="afii10072" unicode="&#x436;" horiz-adv-x="595" 
d="M260 0v450h75v-450h-75zM85 0h-90l180 240l-160 210h85l160 -215zM600 0h-90l-175 235l160 215h85l-160 -210z" />
    <glyph glyph-name="afii10073" unicode="&#x437;" horiz-adv-x="385" 
d="M280 230q3 -1 7 -3.5t15.5 -11.5t20 -19.5t15.5 -28t7 -37.5q0 -58 -42.5 -96.5t-112.5 -38.5q-73 0 -117 39t-48 101h75q4 -31 27 -50.5t63 -19.5q36 0 58 19t22 46t-22 46t-58 19h-40v70h40q30 0 50 17t20 43t-20 43t-50 17q-39 0 -60 -18t-25 -47h-75q4 62 45.5 98.5
t114.5 36.5q63 0 104 -38t41 -92q0 -29 -13.5 -52.5t-27.5 -32.5z" />
    <glyph glyph-name="afii10074" unicode="&#x438;" horiz-adv-x="510" 
d="M370 450h75v-450h-75v335l-230 -335h-75v450h75v-335z" />
    <glyph glyph-name="afii10075" unicode="&#x439;" horiz-adv-x="510" 
d="M370 450h75v-450h-75v335l-230 -335h-75v450h75v-335zM255 520q-47 0 -79.5 31.5t-40.5 78.5h60q4 -26 20.5 -43t39.5 -17t39.5 17t20.5 43h60q-8 -47 -40.5 -78.5t-79.5 -31.5z" />
    <glyph glyph-name="afii10076" unicode="&#x43a;" horiz-adv-x="415" 
d="M140 450v-450h-75v450h75zM420 0h-90l-190 235l170 215h85l-170 -210z" />
    <glyph glyph-name="afii10077" unicode="&#x43b;" horiz-adv-x="480" 
d="M110 450h305v-450h-75v385h-165l-15 -240q-4 -70 -41 -110t-94 -40l-30 5v65h10q73 0 80 80z" />
    <glyph glyph-name="afii10078" unicode="&#x43c;" horiz-adv-x="600" 
d="M325 0h-50l-135 280v-280h-75v450h65l170 -350l170 350h65v-450h-75v280z" />
    <glyph glyph-name="afii10079" unicode="&#x43d;" horiz-adv-x="510" 
d="M370 450h75v-450h-75v195h-230v-195h-75v450h75v-185h230v185z" />
    <glyph glyph-name="afii10080" unicode="&#x43e;" 
d="M110 225q0 -69 40.5 -114.5t94.5 -45.5t94.5 45.5t40.5 114.5t-40.5 114.5t-94.5 45.5t-94.5 -45.5t-40.5 -114.5zM455 225q0 -100 -61 -165t-149 -65t-149 65t-61 165t61 165t149 65t149 -65t61 -165z" />
    <glyph glyph-name="afii10081" unicode="&#x43f;" horiz-adv-x="510" 
d="M65 450h380v-450h-75v380h-230v-380h-75v450z" />
    <glyph glyph-name="afii10082" unicode="&#x440;" horiz-adv-x="520" 
d="M130 225q0 -70 41 -115t99 -45t99 45t41 115t-41 115t-99 45t-99 -45t-41 -115zM120 450l20 -50q5 6 15 15t45 24.5t75 15.5q88 0 149 -65t61 -165t-61 -165t-149 -65q-40 0 -73.5 15t-47.5 30l-14 15v-215h-75v610h55z" />
    <glyph glyph-name="afii10083" unicode="&#x441;" horiz-adv-x="470" 
d="M245 385q-54 0 -94.5 -45.5t-40.5 -114.5t40.5 -114.5t94.5 -45.5q43 0 75.5 27.5t44.5 67.5h75q-16 -70 -69 -117.5t-126 -47.5q-88 0 -149 65t-61 165t61 165t149 65q73 0 126 -47.5t69 -117.5h-75q-12 40 -44.5 67.5t-75.5 27.5z" />
    <glyph glyph-name="afii10084" unicode="&#x442;" horiz-adv-x="385" 
d="M15 380v70h355v-70h-140v-380h-75v380h-140z" />
    <glyph glyph-name="afii10085" unicode="&#x443;" horiz-adv-x="450" 
d="M185 10l-175 440h80l135 -345l135 345h80l-195 -490q-27 -68 -56.5 -96.5t-73.5 -28.5l-30 5v60q32 0 49.5 14t30.5 46z" />
    <glyph glyph-name="afii10086" unicode="&#x444;" horiz-adv-x="705" 
d="M390 345v-240q4 -5 11.5 -12.5t31 -20t47.5 -12.5q52 0 83.5 41.5t31.5 123.5t-31.5 123.5t-83.5 41.5q-24 0 -46.5 -11t-33.5 -23zM315 -160v190q-40 -35 -95 -35q-78 0 -131.5 62.5t-53.5 167.5t53.5 167.5t131.5 62.5q24 0 48 -8.5t36 -17.5l11 -9v210h75v-210
q40 35 95 35q78 0 131.5 -62.5t53.5 -167.5t-53.5 -167.5t-131.5 -62.5q-24 0 -48 8.5t-35 17.5l-12 9v-190h-75zM315 105v240q-4 5 -11.5 12.5t-31 20t-47.5 12.5q-52 0 -83.5 -41.5t-31.5 -123.5t31.5 -123.5t83.5 -41.5q24 0 46.5 11t32.5 23z" />
    <glyph glyph-name="afii10087" unicode="&#x445;" horiz-adv-x="410" 
d="M400 450l-150 -220l160 -230h-85l-120 175l-120 -175h-85l160 230l-150 220h85l110 -165l110 165h85z" />
    <glyph glyph-name="afii10088" unicode="&#x446;" horiz-adv-x="515" 
d="M435 70h60v-180h-70v110h-360v450h75v-380h220v380h75v-380z" />
    <glyph glyph-name="afii10089" unicode="&#x447;" horiz-adv-x="480" 
d="M340 450h75v-450h-75v165q-50 -30 -130 -30q-68 0 -111.5 45.5t-43.5 119.5v150h75v-150q0 -42 27.5 -68.5t72.5 -26.5q27 0 54.5 8.5t41.5 17.5l14 9v210z" />
    <glyph glyph-name="afii10090" unicode="&#x448;" horiz-adv-x="685" 
d="M545 450h75v-450h-555v450h75v-380h165v380h75v-380h165v380z" />
    <glyph glyph-name="afii10091" unicode="&#x449;" horiz-adv-x="700" 
d="M680 -110h-70v110h-545v450h75v-380h165v380h75v-380h165v380h75v-380h60v-180z" />
    <glyph glyph-name="afii10092" unicode="&#x44a;" horiz-adv-x="475" 
d="M0 385v65h185v-160h110q71 0 113 -40.5t42 -104.5t-42 -104.5t-113 -40.5h-185v385h-110zM185 70h110q33 0 56.5 22.5t23.5 52.5t-23.5 52.5t-56.5 22.5h-110v-150z" />
    <glyph glyph-name="afii10093" unicode="&#x44b;" horiz-adv-x="605" 
d="M465 450h75v-450h-75v450zM140 290h100q71 0 113 -40.5t42 -104.5t-42 -104.5t-113 -40.5h-175v450h75v-160zM140 70h100q33 0 56.5 22.5t23.5 52.5t-23.5 52.5t-56.5 22.5h-100v-150z" />
    <glyph glyph-name="afii10094" unicode="&#x44c;" horiz-adv-x="430" 
d="M140 290h110q71 0 113 -40.5t42 -104.5t-42 -104.5t-113 -40.5h-185v450h75v-160zM140 70h110q34 0 57 21t23 54q0 30 -23.5 52.5t-56.5 22.5h-110v-150z" />
    <glyph glyph-name="afii10095" unicode="&#x44d;" horiz-adv-x="460" 
d="M185 190v65h165q-8 57 -43 93.5t-87 36.5q-46 0 -77 -24t-43 -61h-75q16 67 67.5 111t127.5 44q84 0 144.5 -65.5t60.5 -164.5t-60.5 -164.5t-144.5 -65.5q-76 0 -127.5 44t-67.5 111h75q12 -37 43 -61t77 -24q48 0 85 36t44 89h-164z" />
    <glyph glyph-name="afii10096" unicode="&#x44e;" horiz-adv-x="655" 
d="M65 0v450h75v-195h80q11 86 68 143t132 57q81 0 140.5 -65.5t59.5 -164.5t-59.5 -164.5t-140.5 -65.5q-75 0 -132 56t-68 139h-80v-190h-75zM295 225q0 -68 38.5 -114t86.5 -46t86.5 46t38.5 114t-38.5 114t-86.5 46t-86.5 -46t-38.5 -114z" />
    <glyph glyph-name="afii10097" unicode="&#x44f;" horiz-adv-x="460" 
d="M320 160h-100l-100 -160h-85l105 170q-4 1 -10 3.5t-21.5 12.5t-27.5 23.5t-21.5 39t-9.5 56.5q0 64 42 104.5t113 40.5h190v-450h-75v160zM320 380h-115q-33 0 -56.5 -22.5t-23.5 -52.5t23.5 -52.5t56.5 -22.5h115v150z" />
    <glyph glyph-name="afii10071" unicode="&#x451;" horiz-adv-x="475" 
d="M350 120h80q-25 -54 -72 -89.5t-113 -35.5q-88 0 -149 65t-61 165q0 99 60.5 164.5t144.5 65.5t142 -63t58 -162l-5 -40h-320q4 -49 43 -87t87 -38q64 0 105 55zM240 385q-45 0 -81.5 -37t-43.5 -93h245q-7 59 -40.5 94.5t-79.5 35.5zM165 535q-19 0 -32 13t-13 32t13 32
t32 13t32 -13t13 -32t-13 -32t-32 -13zM315 535q-19 0 -32 13t-13 32t13 32t32 13t32 -13t13 -32t-13 -32t-32 -13z" />
    <glyph glyph-name="afii10099" unicode="&#x452;" horiz-adv-x="495" 
d="M270 340q-53 0 -86.5 -34.5t-33.5 -90.5v-215h-75v485h-75v65h75v80h75v-80h125v-65h-125v-135q5 7 15 17t43.5 26.5t71.5 16.5q78 0 129 -59t51 -161q0 -117 -53 -178.5t-142 -61.5v70q52 0 86 44t34 126q0 68 -34 109t-81 41z" />
    <glyph glyph-name="afii10100" unicode="&#x453;" horiz-adv-x="365" 
d="M355 450v-70h-215v-380h-75v450h290zM182 520l60 120h75l-85 -120h-50z" />
    <glyph glyph-name="afii10101" unicode="&#x454;" horiz-adv-x="465" 
d="M275 255v-65h-164q7 -53 44 -89t85 -36q46 0 77 24t43 61h75q-16 -67 -67.5 -111t-127.5 -44q-84 0 -144.5 65.5t-60.5 164.5t60.5 164.5t144.5 65.5q76 0 127.5 -44t67.5 -111h-75q-12 37 -43 61t-77 24q-52 0 -87 -36.5t-43 -93.5h165z" />
    <glyph glyph-name="afii10102" unicode="&#x455;" horiz-adv-x="395" 
d="M360 130q0 -58 -42.5 -96.5t-112.5 -38.5q-73 0 -117 39t-48 101h75q4 -31 27 -50.5t63 -19.5q36 0 58 19t22 46t-24 41.5t-58.5 22t-69.5 17.5t-59 38.5t-24 75.5q0 54 42 92t108 38q70 0 110.5 -37t44.5 -98h-75q-8 65 -80 65q-32 0 -53.5 -18t-21.5 -42
q0 -27 24 -41.5t58.5 -22t69.5 -17.5t59 -38.5t24 -75.5z" />
    <glyph glyph-name="afii10103" unicode="&#x456;" horiz-adv-x="205" 
d="M140 450v-450h-75v450h75zM55 577q0 21 13.5 34.5t33.5 13.5q21 0 34.5 -13.5t13.5 -34.5q0 -20 -13.5 -33.5t-34.5 -13.5q-20 0 -33.5 13.5t-13.5 33.5z" />
    <glyph glyph-name="afii10104" unicode="&#x457;" horiz-adv-x="215" 
d="M30 535q-19 0 -32 13t-13 32t13 32t32 13t32 -13t13 -32t-13 -32t-32 -13zM180 535q-19 0 -32 13t-13 32t13 32t32 13t32 -13t13 -32t-13 -32t-32 -13zM145 450v-450h-75v450h75z" />
    <glyph glyph-name="afii10105" unicode="&#x458;" horiz-adv-x="205" 
d="M65 -15v465h75v-465q0 -66 -38 -108t-92 -42q-13 0 -24.5 2.5t-15.5 4.5l-5 3v65q10 -5 25 -5q34 0 54.5 21.5t20.5 58.5zM55 577q0 21 13.5 34.5t33.5 13.5q21 0 34.5 -13.5t13.5 -34.5q0 -20 -13.5 -33.5t-34.5 -13.5q-20 0 -33.5 13.5t-13.5 33.5z" />
    <glyph glyph-name="afii10106" unicode="&#x459;" horiz-adv-x="685" 
d="M110 450h285v-160h105q71 0 113 -40.5t42 -104.5t-42 -104.5t-113 -40.5h-180v385h-145l-15 -240q-4 -70 -41 -110t-94 -40l-30 5v65h10q73 0 80 80zM395 70h105q33 0 56.5 22.5t23.5 52.5t-23.5 52.5t-56.5 22.5h-105v-150z" />
    <glyph glyph-name="afii10107" unicode="&#x45a;" horiz-adv-x="720" 
d="M425 290h105q71 0 113 -40.5t42 -104.5t-42 -104.5t-113 -40.5h-180v220h-210v-220h-75v450h75v-160h210v160h75v-160zM425 70h105q33 0 56.5 22.5t23.5 52.5t-23.5 52.5t-56.5 22.5h-105v-150z" />
    <glyph glyph-name="afii10108" unicode="&#x45b;" horiz-adv-x="515" 
d="M0 485v65h75v80h75v-80h125v-65h-125v-135q5 7 15 17t43.5 26.5t71.5 16.5q73 0 124 -55t51 -140v-215h-75v215q0 55 -32 90t-78 35q-53 0 -86.5 -34.5t-33.5 -90.5v-215h-75v485h-75z" />
    <glyph glyph-name="afii10109" unicode="&#x45c;" horiz-adv-x="415" 
d="M140 450v-450h-75v450h75zM420 0h-90l-190 235l170 215h85l-170 -210zM195 520l60 120h75l-85 -120h-50z" />
    <glyph glyph-name="afii10110" unicode="&#x45e;" horiz-adv-x="450" 
d="M225 520q-47 0 -79.5 31.5t-40.5 78.5h60q4 -26 20.5 -43t39.5 -17t39.5 17t20.5 43h60q-8 -47 -40.5 -78.5t-79.5 -31.5zM185 10l-175 440h80l135 -345l135 345h80l-195 -490q-27 -68 -56.5 -96.5t-73.5 -28.5l-30 5v60q32 0 49.5 14t30.5 46z" />
    <glyph glyph-name="afii10193" unicode="&#x45f;" horiz-adv-x="500" 
d="M215 0h-150v450h75v-380h220v380h75v-450h-150v-110h-70v110z" />
    <glyph glyph-name="afii10050" unicode="&#x490;" horiz-adv-x="450" 
d="M440 560h-280v-560h-80v630h290v125h70v-195z" />
    <glyph glyph-name="afii10098" unicode="&#x491;" horiz-adv-x="365" 
d="M285 555h70v-175h-215v-380h-75v450h220v105z" />
    <glyph glyph-name="uni1E9E" unicode="&#x1e9e;" horiz-adv-x="590" 
d="M515 570l-125 -200q7 -1 17.5 -3t38 -14.5t48.5 -30.5t38.5 -54.5t17.5 -82.5q0 -79 -53 -132t-132 -53h-55v70h55q46 0 75.5 31.5t29.5 83.5t-29.5 83.5t-75.5 31.5h-55v70l117 190h-162q-42 0 -73.5 -32.5t-31.5 -77.5v-450h-80v450q0 72 55 126t130 54h250v-60z" />
    <glyph glyph-name="endash" unicode="&#x2013;" horiz-adv-x="465" 
d="M430 290v-70h-395v70h395z" />
    <glyph glyph-name="emdash" unicode="&#x2014;" horiz-adv-x="710" 
d="M675 290v-70h-640v70h640z" />
    <glyph glyph-name="quoteleft" unicode="&#x2018;" horiz-adv-x="170" 
d="M85 545q23 0 36.5 -13.5t13.5 -36.5t-13.5 -36.5t-36.5 -13.5t-36.5 13.5t-13.5 36.5q0 42 20 77t40 49l20 14l10 -15q-35 -30 -40 -75z" />
    <glyph glyph-name="quoteright" unicode="&#x2019;" horiz-adv-x="170" 
d="M85 535q-23 0 -36.5 13.5t-13.5 36.5t13.5 36.5t36.5 13.5t36.5 -13.5t13.5 -36.5q0 -42 -20 -77t-40 -49l-20 -14l-10 15q35 30 40 75z" />
    <glyph glyph-name="quotesinglbase" unicode="&#x201a;" horiz-adv-x="170" 
d="M85 -5q-23 0 -36.5 13.5t-13.5 36.5t13.5 36.5t36.5 13.5t36.5 -13.5t13.5 -36.5q0 -42 -20 -77t-40 -49l-20 -14l-10 15q35 30 40 75z" />
    <glyph glyph-name="quotedblleft" unicode="&#x201c;" horiz-adv-x="305" 
d="M85 545q23 0 36.5 -13.5t13.5 -36.5t-13.5 -36.5t-36.5 -13.5t-36.5 13.5t-13.5 36.5q0 42 20 77t40 49l20 14l10 -15q-35 -30 -40 -75zM220 545q22 0 36 -13.5t14 -36.5t-14 -36.5t-36 -13.5t-36 13.5t-14 36.5q0 42 20 77t40 49l20 14l10 -15q-35 -30 -40 -75z" />
    <glyph glyph-name="quotedblright" unicode="&#x201d;" horiz-adv-x="305" 
d="M220 535q-22 0 -36 13.5t-14 36.5t14 36.5t36 13.5t36 -13.5t14 -36.5q0 -42 -20 -77t-40 -49l-20 -14l-10 15q35 30 40 75zM85 535q-23 0 -36.5 13.5t-13.5 36.5t13.5 36.5t36.5 13.5t36.5 -13.5t13.5 -36.5q0 -42 -20 -77t-40 -49l-20 -14l-10 15q35 30 40 75z" />
    <glyph glyph-name="quotedblbase" unicode="&#x201e;" horiz-adv-x="310" 
d="M85 -5q-23 0 -36.5 13.5t-13.5 36.5t13.5 36.5t36.5 13.5t36.5 -13.5t13.5 -36.5q0 -42 -20 -77t-40 -49l-20 -14l-10 15q35 30 40 75zM225 -5q-23 0 -36.5 13.5t-13.5 36.5t13.5 36.5t36.5 13.5t36.5 -13.5t13.5 -36.5q0 -42 -20 -77t-40 -49l-20 -14l-10 15
q35 30 40 75z" />
    <glyph glyph-name="dagger" unicode="&#x2020;" horiz-adv-x="340" 
d="M305 505v-60h-105v-265h-60v265h-105v60h105v125h60v-125h105z" />
    <glyph glyph-name="daggerdbl" unicode="&#x2021;" horiz-adv-x="340" 
d="M305 360v-60h-105v-120h-60v120h-105v60h105v90h-105v60h105v120h60v-120h105v-60h-105v-90h105z" />
    <glyph glyph-name="bullet" unicode="&#x2022;" horiz-adv-x="380" 
d="M100 270q0 38 26 64t64 26t64 -26t26 -64t-26 -64t-64 -26t-64 26t-26 64z" />
    <glyph glyph-name="ellipsis" unicode="&#x2026;" horiz-adv-x="550" 
d="M35 45q0 23 13.5 36.5t36.5 13.5t36.5 -13.5t13.5 -36.5t-13.5 -36.5t-36.5 -13.5t-36.5 13.5t-13.5 36.5zM225 45q0 23 13.5 36.5t36.5 13.5t36.5 -13.5t13.5 -36.5t-13.5 -36.5t-36.5 -13.5t-36.5 13.5t-13.5 36.5zM415 45q0 23 13.5 36.5t36.5 13.5t36.5 -13.5
t13.5 -36.5t-13.5 -36.5t-36.5 -13.5t-36.5 13.5t-13.5 36.5z" />
    <glyph glyph-name="perthousand" unicode="&#x2030;" horiz-adv-x="889" 
d="M135 0h-55l385 630h55zM80 505q0 -33 22.5 -56.5t52.5 -23.5t52.5 23.5t22.5 56.5t-22.5 56.5t-52.5 23.5t-52.5 -23.5t-22.5 -56.5zM280 505q0 -53 -36 -89t-89 -36t-89 36t-36 89t36 89t89 36t89 -36t36 -89zM365 125q0 -33 22.5 -56.5t52.5 -23.5t52.5 23.5t22.5 56.5
t-22.5 56.5t-52.5 23.5t-52.5 -23.5t-22.5 -56.5zM565 125q0 -53 -36.5 -89t-88.5 -36t-88.5 36t-36.5 89t36.5 89t88.5 36t88.5 -36t36.5 -89zM659 125q0 -33 22.5 -56.5t52.5 -23.5t52.5 23.5t22.5 56.5t-22.5 56.5t-52.5 23.5t-52.5 -23.5t-22.5 -56.5zM859 125
q0 -53 -36.5 -89t-88.5 -36t-88.5 36t-36.5 89t36.5 89t88.5 36t88.5 -36t36.5 -89z" />
    <glyph glyph-name="guilsinglleft" unicode="&#x2039;" horiz-adv-x="255" 
d="M110 225l110 -160h-75l-110 160l110 160h75z" />
    <glyph glyph-name="guilsinglright" unicode="&#x203a;" horiz-adv-x="255" 
d="M35 65l110 160l-110 160h75l110 -160l-110 -160h-75z" />
    <glyph glyph-name="fraction" unicode="&#x2044;" horiz-adv-x="110" 
d="M-105 0h-65l385 630h65z" />
    <glyph glyph-name="zerosuperior" unicode="&#x2070;" horiz-adv-x="300" 
d="M85 575q0 -50 18.5 -75t46.5 -25t46.5 25t18.5 75t-18.5 75t-46.5 25t-46.5 -25t-18.5 -75zM270 575q0 -69 -34.5 -109.5t-85.5 -40.5t-85.5 40.5t-34.5 109.5t34.5 109.5t85.5 40.5t85.5 -40.5t34.5 -109.5z" />
    <glyph glyph-name="foursuperior" unicode="&#x2074;" horiz-adv-x="250" 
d="M185 720v-185h35v-50h-35v-55h-55v55h-125v40l120 195h60zM65 535h65v105z" />
    <glyph glyph-name="fivesuperior" unicode="&#x2075;" horiz-adv-x="270" 
d="M145 625q42 0 68.5 -27.5t26.5 -72.5q0 -42 -30 -71t-75 -29q-44 0 -70.5 23t-34.5 62h55q9 -35 50 -35q23 0 36.5 13.5t13.5 36.5q0 26 -13.5 40.5t-36.5 14.5q-40 0 -50 -30h-45l20 170h160v-50h-114l-6 -55q15 10 45 10z" />
    <glyph glyph-name="sixsuperior" unicode="&#x2076;" horiz-adv-x="260" 
d="M200 720l-65 -95q45 0 72.5 -27.5t27.5 -72.5t-27.5 -72.5t-72.5 -27.5t-72.5 27.5t-27.5 72.5q0 22 10 47t20 39l10 14l65 95h60zM135 575q-19 0 -32 -14t-13 -36t13 -36t32 -14t32 14t13 36t-13 36t-32 14z" />
    <glyph glyph-name="sevensuperior" unicode="&#x2077;" horiz-adv-x="230" 
d="M40 670v50h190v-35l-120 -255h-55l115 240h-130z" />
    <glyph glyph-name="eightsuperior" unicode="&#x2078;" horiz-adv-x="260" 
d="M130 425q-44 0 -72 26t-28 64q0 22 10 39.5t20 23.5l10 7q-30 15 -30 55q0 34 26.5 59.5t63.5 25.5t63.5 -25.5t26.5 -59.5q0 -18 -7.5 -31.5t-14.5 -18.5l-8 -5q4 -2 11 -7t18 -23t11 -40q0 -38 -28 -64t-72 -26zM130 675q-18 0 -29 -10t-11 -25t11 -25t29 -10t29 10
t11 25t-11 25t-29 10zM130 560q-19 0 -32 -13t-13 -30t13 -29.5t32 -12.5t32 12.5t13 29.5t-13 30t-32 13z" />
    <glyph glyph-name="ninesuperior" unicode="&#x2079;" horiz-adv-x="260" 
d="M60 430l65 95q-45 0 -72.5 27.5t-27.5 72.5t27.5 72.5t72.5 27.5t72.5 -27.5t27.5 -72.5q0 -22 -10 -47t-20 -39l-10 -14l-65 -95h-60zM125 575q19 0 32 14t13 36t-13 36t-32 14t-32 -14t-13 -36t13 -36t32 -14z" />
    <glyph glyph-name="zeroinferior" unicode="&#x2080;" horiz-adv-x="300" 
d="M85 55q0 -50 18.5 -75t46.5 -25t46.5 25t18.5 75t-18.5 75t-46.5 25t-46.5 -25t-18.5 -75zM270 55q0 -69 -34.5 -109.5t-85.5 -40.5t-85.5 40.5t-34.5 109.5t34.5 109.5t85.5 40.5t85.5 -40.5t34.5 -109.5z" />
    <glyph glyph-name="oneinferior" unicode="&#x2081;" horiz-adv-x="205" 
d="M20 150l80 50h40v-290h-55v220l-40 -20z" />
    <glyph glyph-name="twoinferior" unicode="&#x2082;" horiz-adv-x="255" 
d="M195 55l-88 -95h118v-50h-195v40l110 115q30 30 30 50q0 40 -45 40t-45 -45h-50q0 41 27 68t68 27q44 0 72 -26t28 -64q0 -30 -30 -60z" />
    <glyph glyph-name="threeinferior" unicode="&#x2083;" horiz-adv-x="265" 
d="M195 65q4 -2 11 -6t18 -22t11 -42q0 -38 -28 -64t-72 -26q-48 0 -76.5 26.5t-28.5 68.5h50q0 -19 14 -32t36 -13t36 12t14 28q0 19 -14 32t-36 13h-26v45h26q18 0 29 10t11 25t-11 25t-29 10q-45 0 -45 -40h-50q0 38 27 64t68 26q40 0 67.5 -25.5t27.5 -59.5
q0 -18 -7.5 -31.5t-15.5 -18.5z" />
    <glyph glyph-name="fourinferior" unicode="&#x2084;" horiz-adv-x="250" 
d="M185 200v-185h35v-50h-35v-55h-55v55h-125v40l120 195h60zM65 15h65v105z" />
    <glyph glyph-name="fiveinferior" unicode="&#x2085;" horiz-adv-x="270" 
d="M145 105q42 0 68.5 -27.5t26.5 -72.5q0 -42 -30 -71t-75 -29q-44 0 -70.5 23t-34.5 62h55q9 -35 50 -35q23 0 36.5 13.5t13.5 36.5q0 26 -13.5 40.5t-36.5 14.5q-40 0 -50 -30h-45l20 170h160v-50h-114l-6 -55q15 10 45 10z" />
    <glyph glyph-name="sixinferior" unicode="&#x2086;" horiz-adv-x="260" 
d="M200 200l-65 -95q45 0 72.5 -27.5t27.5 -72.5t-27.5 -72.5t-72.5 -27.5t-72.5 27.5t-27.5 72.5q0 22 10 47t20 39l10 14l65 95h60zM135 55q-19 0 -32 -14t-13 -36t13 -36t32 -14t32 14t13 36t-13 36t-32 14z" />
    <glyph glyph-name="seveninferior" unicode="&#x2087;" horiz-adv-x="230" 
d="M40 150v50h190v-35l-120 -255h-55l115 240h-130z" />
    <glyph glyph-name="eightinferior" unicode="&#x2088;" horiz-adv-x="260" 
d="M130 -95q-44 0 -72 26t-28 64q0 22 10 39.5t20 23.5l10 7q-30 15 -30 55q0 34 26.5 59.5t63.5 25.5t63.5 -25.5t26.5 -59.5q0 -18 -7.5 -31.5t-14.5 -18.5l-8 -5q4 -2 11 -7t18 -23t11 -40q0 -38 -28 -64t-72 -26zM130 155q-18 0 -29 -10t-11 -25t11 -25t29 -10t29 10
t11 25t-11 25t-29 10zM130 40q-19 0 -32 -13t-13 -30t13 -29.5t32 -12.5t32 12.5t13 29.5t-13 30t-32 13z" />
    <glyph glyph-name="nineinferior" unicode="&#x2089;" horiz-adv-x="260" 
d="M60 -90l65 95q-45 0 -72.5 27.5t-27.5 72.5t27.5 72.5t72.5 27.5t72.5 -27.5t27.5 -72.5q0 -22 -10 -47t-20 -39l-10 -14l-65 -95h-60zM125 55q19 0 32 14t13 36t-13 36t-32 14t-32 -14t-13 -36t13 -36t32 -14z" />
    <glyph glyph-name="Euro" unicode="&#x20ac;" horiz-adv-x="660" 
d="M95 345h-75v65h83q29 101 99 163t168 62t167.5 -60.5t92.5 -154.5h-85q-12 62 -59 103.5t-116 41.5q-65 0 -113 -42.5t-70 -112.5h188v-65h-200q-2 -15 -2 -35l2 -40h200v-65h-182q17 -60 64.5 -100t112.5 -40q69 0 116 41.5t59 103.5h85q-23 -94 -92.5 -154.5
t-167.5 -60.5q-97 0 -167 59.5t-95 150.5h-88v65h75q-2 20 -2 40z" />
    <glyph glyph-name="uni20B4" unicode="&#x20b4;" horiz-adv-x="545" 
d="M415 415h85v-65h-455v65h270q2 1 6 2t13.5 7t16.5 13.5t13 21.5t6 31q0 28 -27.5 51.5t-67.5 23.5q-43 0 -69.5 -21.5t-30.5 -53.5h-80q4 59 54 102t126 43t125.5 -43.5t49.5 -101.5q0 -24 -9 -43t-17 -25zM130 215h-85v65h455v-65h-270q-2 -1 -6 -2t-13.5 -7
t-16.5 -13.5t-13 -21.5t-6 -31q0 -28 27.5 -51.5t67.5 -23.5q43 0 69.5 21.5t30.5 53.5h80q-4 -59 -54 -102t-126 -43t-125.5 43.5t-49.5 101.5q0 24 8.5 43t17.5 25z" />
    <glyph glyph-name="uni20BD" unicode="&#x20bd;" horiz-adv-x="550" 
d="M25 250v70h75v310h210q85 0 142.5 -55.5t57.5 -134.5t-57.5 -134.5t-142.5 -55.5h-130v-80h190v-70h-190v-100h-80v100h-75v70h75v80h-75zM180 320h130q52 0 86 34t34 86q0 53 -33.5 86.5t-86.5 33.5h-130v-240z" />
    <glyph glyph-name="afii61352" unicode="&#x2116;" horiz-adv-x="940" 
d="M640 0v65h250v-65h-250zM700 290q0 -33 19 -54t46 -21t46 21t19 54t-19 54t-46 21t-46 -21t-19 -54zM900 290q0 -56 -41 -98t-94 -42t-94 42t-41 98t41 98t94 42t94 -42t41 -98zM465 630h80v-630h-70l-315 475v-475h-80v630h70l315 -475v475z" />
    <glyph glyph-name="trademark" unicode="&#x2122;" horiz-adv-x="530" 
d="M210 630v-45h-75v-210h-50v210h-75v45h200zM385 455h-30l-55 80v-160h-50v255h40l80 -115l80 115h40v-255h-50v160z" />
    <glyph glyph-name="arrowleft" unicode="&#x2190;" horiz-adv-x="1000" 
d="M115 310l275 275v-95l-145 -145h640v-70h-640l145 -145v-95z" />
    <glyph glyph-name="arrowup" unicode="&#x2191;" horiz-adv-x="1000" 
d="M500 705l275 -275h-95l-145 145v-640h-70v640l-145 -145h-95z" />
    <glyph glyph-name="arrowright" unicode="&#x2192;" horiz-adv-x="1000" 
d="M610 585l275 -275l-275 -275v95l145 145h-640v70h640l-145 145v95z" />
    <glyph glyph-name="arrowdown" unicode="&#x2193;" horiz-adv-x="1000" 
d="M775 210l-275 -275l-275 275h95l145 -145v640h70v-640l145 145h95z" />
    <glyph glyph-name="arrowboth" unicode="&#x2194;" horiz-adv-x="1000" 
d="M610 585l275 -275l-275 -275v95l145 145h-510l145 -145v-95l-275 275l275 275v-95l-145 -145h510l-145 145v95z" />
    <glyph glyph-name="arrowupdn" unicode="&#x2195;" horiz-adv-x="1000" 
d="M775 210l-275 -275l-275 275h95l145 -145v510l-145 -145h-95l275 275l275 -275h-95l-145 145v-510l145 145h95z" />
    <glyph glyph-name="uni2196" unicode="&#x2196;" horiz-adv-x="1000" 
d="M335 525l450 -450l-50 -50l-450 450v-200l-70 -70v390h390l-70 -70h-200z" />
    <glyph glyph-name="uni2197" unicode="&#x2197;" horiz-adv-x="1000" 
d="M215 75l450 450h-200l-70 70h390v-390l-70 70v200l-450 -450z" />
    <glyph glyph-name="uni2198" unicode="&#x2198;" horiz-adv-x="1000" 
d="M665 95l-450 450l50 50l450 -450v200l70 70v-390h-390l70 70h200z" />
    <glyph glyph-name="uni2199" unicode="&#x2199;" horiz-adv-x="1000" 
d="M785 545l-450 -450h200l70 -70h-390v390l70 -70v-200l450 450z" />
    <glyph glyph-name="minus" unicode="&#x2212;" horiz-adv-x="430" 
d="M400 290v-65h-370v65h370z" />
    <glyph glyph-name="approxequal" unicode="&#x2248;" horiz-adv-x="440" 
d="M115 365q-23 0 -39 -18t-16 -47h-60q0 63 31 96.5t84 33.5q38 0 112 -35t93 -35q27 0 43.5 17.5t16.5 47.5h60q0 -63 -31.5 -96.5t-88.5 -33.5q-34 0 -108 35t-97 35zM115 170q-23 0 -39 -18t-16 -47h-60q0 63 31 96.5t84 33.5q38 0 112 -35t93 -35q27 0 43.5 17.5
t16.5 47.5h60q0 -63 -31.5 -96.5t-88.5 -33.5q-34 0 -108 35t-97 35z" />
    <glyph glyph-name="notequal" unicode="&#x2260;" horiz-adv-x="440" 
d="M25 385h210l50 120h75l-50 -120h105v-70h-135l-45 -115h180v-70h-210l-50 -125h-75l50 125h-105v70h135l45 115h-180v70z" />
    <glyph glyph-name="lessequal" unicode="&#x2264;" horiz-adv-x="435" 
d="M40 0v70h355v-70h-355zM150 320l245 -115v-75l-350 165v50l350 165v-75z" />
    <glyph glyph-name="greaterequal" unicode="&#x2265;" horiz-adv-x="435" 
d="M395 70v-70h-355v70h355zM40 205l245 115l-245 115v75l350 -165v-50l-350 -165v75z" />
    <glyph glyph-name="uni2460" unicode="&#x2460;" horiz-adv-x="1000" 
d="M85 320q0 172 121.5 293.5t293.5 121.5t293.5 -121.5t121.5 -293.5t-121.5 -293.5t-293.5 -121.5t-293.5 121.5t-121.5 293.5zM155 320q0 -142 101.5 -243.5t243.5 -101.5t243.5 101.5t101.5 243.5t-101.5 243.5t-243.5 101.5t-243.5 -101.5t-101.5 -243.5zM495 520h60
v-400h-70v320l-60 -40l-35 45z" />
    <glyph glyph-name="uni2461" unicode="&#x2461;" horiz-adv-x="1000" 
d="M480 185h150v-65h-260v45l150 160q21 22 30.5 39t9.5 41q0 23 -17 39t-43 16t-43.5 -16.5t-21.5 -43.5h-70q4 53 42 89t93 36t92.5 -35.5t37.5 -84.5q0 -28 -8.5 -51.5t-17 -35t-24.5 -28.5zM155 320q0 -142 101.5 -243.5t243.5 -101.5t243.5 101.5t101.5 243.5
t-101.5 243.5t-243.5 101.5t-243.5 -101.5t-101.5 -243.5zM85 320q0 172 121.5 293.5t293.5 121.5t293.5 -121.5t121.5 -293.5t-121.5 -293.5t-293.5 -121.5t-293.5 121.5t-121.5 293.5z" />
    <glyph glyph-name="uni2462" unicode="&#x2462;" horiz-adv-x="1000" 
d="M575 330l7.5 -2.5t16.5 -8t21.5 -15.5t17 -26t7.5 -38q0 -54 -39.5 -89.5t-105.5 -35.5q-62 0 -99.5 33t-45.5 87h70q4 -20 25.5 -37.5t49.5 -17.5q36 0 55.5 16.5t19.5 43.5q0 25 -19.5 40t-55.5 15h-38v60h38q29 0 47 16t18 39q0 20 -18 35t-47 15q-53 0 -70 -50h-65
q4 47 42 81t93 34q62 0 98.5 -31.5t36.5 -78.5q0 -31 -15 -52.5t-30 -26.5zM155 320q0 -142 101.5 -243.5t243.5 -101.5t243.5 101.5t101.5 243.5t-101.5 243.5t-243.5 101.5t-243.5 -101.5t-101.5 -243.5zM85 320q0 172 121.5 293.5t293.5 121.5t293.5 -121.5t121.5 -293.5
t-121.5 -293.5t-293.5 -121.5t-293.5 121.5t-121.5 293.5z" />
    <glyph glyph-name="uni2463" unicode="&#x2463;" horiz-adv-x="1000" 
d="M620 270v-65h-45v-85h-70v85h-180v55l175 260h75v-250h45zM400 270h105v150zM155 320q0 -142 101.5 -243.5t243.5 -101.5t243.5 101.5t101.5 243.5t-101.5 243.5t-243.5 101.5t-243.5 -101.5t-101.5 -243.5zM85 320q0 172 121.5 293.5t293.5 121.5t293.5 -121.5
t121.5 -293.5t-121.5 -293.5t-293.5 -121.5t-293.5 121.5t-121.5 293.5z" />
    <glyph glyph-name="uni2464" unicode="&#x2464;" horiz-adv-x="1000" 
d="M510 385q58 0 96.5 -40.5t38.5 -94.5q0 -57 -41 -96t-104 -39q-58 0 -97.5 34.5t-47.5 85.5h70q18 -55 75 -55q30 0 52.5 20t22.5 50t-22.5 50t-52.5 20q-21 0 -37 -7.5t-22 -14.5l-6 -8h-65l30 230h215v-65h-160l-10 -85q25 15 65 15zM155 320q0 -142 101.5 -243.5
t243.5 -101.5t243.5 101.5t101.5 243.5t-101.5 243.5t-243.5 101.5t-243.5 -101.5t-101.5 -243.5zM85 320q0 172 121.5 293.5t293.5 121.5t293.5 -121.5t121.5 -293.5t-121.5 -293.5t-293.5 -121.5t-293.5 121.5t-121.5 293.5z" />
    <glyph glyph-name="uni2465" unicode="&#x2465;" horiz-adv-x="1000" 
d="M500 115q-60 0 -102.5 41.5t-42.5 98.5q0 24 7.5 48t15.5 35l7 12l115 170h75l-85 -125h10q60 0 102.5 -41.5t42.5 -98.5t-42.5 -98.5t-102.5 -41.5zM425 255q0 -31 21 -53t54 -22t54 22t21 53t-21 53t-54 22t-54 -22t-21 -53zM155 320q0 -142 101.5 -243.5t243.5 -101.5
t243.5 101.5t101.5 243.5t-101.5 243.5t-243.5 101.5t-243.5 -101.5t-101.5 -243.5zM85 320q0 172 121.5 293.5t293.5 121.5t293.5 -121.5t121.5 -293.5t-121.5 -293.5t-293.5 -121.5t-293.5 121.5t-121.5 293.5z" />
    <glyph glyph-name="uni2466" unicode="&#x2466;" horiz-adv-x="1000" 
d="M380 520h255v-53l-165 -347h-70l160 335h-180v65zM155 320q0 -142 101.5 -243.5t243.5 -101.5t243.5 101.5t101.5 243.5t-101.5 243.5t-243.5 101.5t-243.5 -101.5t-101.5 -243.5zM85 320q0 172 121.5 293.5t293.5 121.5t293.5 -121.5t121.5 -293.5t-121.5 -293.5
t-293.5 -121.5t-293.5 121.5t-121.5 293.5z" />
    <glyph glyph-name="uni2467" unicode="&#x2467;" horiz-adv-x="1000" 
d="M500 175q33 0 54 18.5t21 43.5q0 26 -21 44.5t-54 18.5t-54 -18.5t-21 -44.5q0 -25 21 -43.5t54 -18.5zM500 360q26 0 43 15.5t17 36.5q0 22 -17 37.5t-43 15.5t-43 -15.5t-17 -37.5q0 -21 17 -36.5t43 -15.5zM155 320q0 -142 101.5 -243.5t243.5 -101.5t243.5 101.5
t101.5 243.5t-101.5 243.5t-243.5 101.5t-243.5 -101.5t-101.5 -243.5zM500 115q-66 0 -105.5 35t-39.5 85q0 32 17.5 55.5t35.5 31.5l17 8q-2 1 -6 2.5t-13.5 8.5t-16.5 16t-13 24.5t-6 33.5q0 46 36 78t94 32t94 -32t36 -78q0 -29 -14 -50t-28 -28l-13 -7q3 -1 7.5 -3
t16.5 -10t21.5 -17.5t17 -27t7.5 -37.5q0 -50 -39.5 -85t-105.5 -35zM85 320q0 172 121.5 293.5t293.5 121.5t293.5 -121.5t121.5 -293.5t-121.5 -293.5t-293.5 -121.5t-293.5 121.5t-121.5 293.5z" />
    <glyph glyph-name="uni2468" unicode="&#x2468;" horiz-adv-x="1000" 
d="M500 525q60 0 102.5 -41.5t42.5 -98.5q0 -24 -7.5 -48t-15.5 -35l-7 -12l-115 -170h-75l85 125h-10q-60 0 -102.5 41.5t-42.5 98.5t42.5 98.5t102.5 41.5zM845 320q0 142 -101.5 243.5t-243.5 101.5t-243.5 -101.5t-101.5 -243.5t101.5 -243.5t243.5 -101.5t243.5 101.5
t101.5 243.5zM915 320q0 -172 -121.5 -293.5t-293.5 -121.5t-293.5 121.5t-121.5 293.5t121.5 293.5t293.5 121.5t293.5 -121.5t121.5 -293.5zM425 385q0 -31 21 -53t54 -22t54 22t21 53t-21 53t-54 22t-54 -22t-21 -53z" />
    <glyph glyph-name="uni24EA" unicode="&#x24ea;" horiz-adv-x="1000" 
d="M405 320q0 -68 27.5 -104t67.5 -36t67.5 36t27.5 104t-27.5 104t-67.5 36t-67.5 -36t-27.5 -104zM665 320q0 -94 -47.5 -149.5t-117.5 -55.5t-117.5 55.5t-47.5 149.5t47.5 149.5t117.5 55.5t117.5 -55.5t47.5 -149.5zM155 320q0 -142 101.5 -243.5t243.5 -101.5
t243.5 101.5t101.5 243.5t-101.5 243.5t-243.5 101.5t-243.5 -101.5t-101.5 -243.5zM85 320q0 172 121.5 293.5t293.5 121.5t293.5 -121.5t121.5 -293.5t-121.5 -293.5t-293.5 -121.5t-293.5 121.5t-121.5 293.5z" />
    <glyph glyph-name="uni24FF" unicode="&#x24ff;" horiz-adv-x="1000" 
d="M405 320q0 68 27.5 104t67.5 36t67.5 -36t27.5 -104t-27.5 -104t-67.5 -36t-67.5 36t-27.5 104zM665 320q0 94 -47.5 149.5t-117.5 55.5t-117.5 -55.5t-47.5 -149.5t47.5 -149.5t117.5 -55.5t117.5 55.5t47.5 149.5zM85 320q0 172 121.5 293.5t293.5 121.5t293.5 -121.5
t121.5 -293.5t-121.5 -293.5t-293.5 -121.5t-293.5 121.5t-121.5 293.5z" />
    <glyph glyph-name="uni2776" unicode="&#x2776;" horiz-adv-x="1000" 
d="M85 320q0 172 121.5 293.5t293.5 121.5t293.5 -121.5t121.5 -293.5t-121.5 -293.5t-293.5 -121.5t-293.5 121.5t-121.5 293.5zM555 520h-60l-105 -75l35 -45l60 40v-320h70v400z" />
    <glyph glyph-name="uni2777" unicode="&#x2777;" horiz-adv-x="1000" 
d="M630 185h-150l100 105q16 17 24.5 28.5t17 35t8.5 51.5q0 49 -37.5 84.5t-92.5 35.5t-93 -36t-42 -89h70q4 27 21.5 43.5t43.5 16.5t43 -16t17 -39q0 -24 -9.5 -41t-30.5 -39l-150 -160v-45h260v65zM85 320q0 172 121.5 293.5t293.5 121.5t293.5 -121.5t121.5 -293.5
t-121.5 -293.5t-293.5 -121.5t-293.5 121.5t-121.5 293.5z" />
    <glyph glyph-name="uni2778" unicode="&#x2778;" horiz-adv-x="1000" 
d="M575 330q2 1 6.5 2t14.5 7.5t18 15t14.5 24.5t6.5 36q0 47 -36.5 78.5t-98.5 31.5q-55 0 -93 -34t-42 -81h65q17 50 70 50q29 0 47 -15t18 -35q0 -23 -18 -39t-47 -16h-38v-60h38q36 0 55.5 -15t19.5 -40q0 -27 -19.5 -43.5t-55.5 -16.5q-28 0 -49.5 17.5t-25.5 37.5h-70
q8 -54 45.5 -87t99.5 -33q66 0 105.5 35.5t39.5 89.5q0 33 -17.5 55.5t-35.5 28.5zM85 320q0 172 121.5 293.5t293.5 121.5t293.5 -121.5t121.5 -293.5t-121.5 -293.5t-293.5 -121.5t-293.5 121.5t-121.5 293.5z" />
    <glyph glyph-name="uni2779" unicode="&#x2779;" horiz-adv-x="1000" 
d="M620 205v65h-45v250h-75l-175 -260v-55h180v-85h70v85h45zM505 270h-105l105 150v-150zM85 320q0 172 121.5 293.5t293.5 121.5t293.5 -121.5t121.5 -293.5t-121.5 -293.5t-293.5 -121.5t-293.5 121.5t-121.5 293.5z" />
    <glyph glyph-name="uni277A" unicode="&#x277a;" horiz-adv-x="1000" 
d="M510 385q-18 0 -34 -3.5t-24 -7.5l-7 -4l10 85h160v65h-215l-30 -230h65q18 30 65 30q30 0 52.5 -20t22.5 -50t-22.5 -50t-52.5 -20q-57 0 -75 55h-70q8 -51 47.5 -85.5t97.5 -34.5q63 0 104 39t41 96q0 54 -38.5 94.5t-96.5 40.5zM85 320q0 172 121.5 293.5t293.5 121.5
t293.5 -121.5t121.5 -293.5t-121.5 -293.5t-293.5 -121.5t-293.5 121.5t-121.5 293.5z" />
    <glyph glyph-name="uni277B" unicode="&#x277b;" horiz-adv-x="1000" 
d="M500 115q60 0 102.5 41.5t42.5 98.5t-42.5 98.5t-102.5 41.5h-10l85 125h-75l-115 -170q-30 -40 -30 -95q0 -57 42.5 -98.5t102.5 -41.5zM425 255q0 31 21 53t54 22t54 -22t21 -53t-21 -53t-54 -22t-54 22t-21 53zM85 320q0 172 121.5 293.5t293.5 121.5t293.5 -121.5
t121.5 -293.5t-121.5 -293.5t-293.5 -121.5t-293.5 121.5t-121.5 293.5z" />
    <glyph glyph-name="uni277C" unicode="&#x277c;" horiz-adv-x="1000" 
d="M635 520h-255v-65h180l-160 -335h70l165 347v53zM85 320q0 172 121.5 293.5t293.5 121.5t293.5 -121.5t121.5 -293.5t-121.5 -293.5t-293.5 -121.5t-293.5 121.5t-121.5 293.5z" />
    <glyph glyph-name="uni277D" unicode="&#x277d;" horiz-adv-x="1000" 
d="M500 175q-33 0 -54 18.5t-21 43.5q0 26 21 44.5t54 18.5t54 -18.5t21 -44.5q0 -25 -21 -43.5t-54 -18.5zM500 360q-26 0 -43 15.5t-17 36.5q0 22 17 37.5t43 15.5t43 -15.5t17 -37.5q0 -21 -17 -36.5t-43 -15.5zM500 115q66 0 105.5 35t39.5 85q0 32 -17.5 55.5
t-35.5 31.5l-17 8q2 1 6 2.5t13.5 8.5t16.5 16t13 24.5t6 33.5q0 46 -36 78t-94 32t-94 -32t-36 -78q0 -29 14 -50t28 -28l13 -7q-3 -1 -7.5 -3t-16.5 -10t-21.5 -17.5t-17 -27t-7.5 -37.5q0 -50 39.5 -85t105.5 -35zM85 320q0 172 121.5 293.5t293.5 121.5t293.5 -121.5
t121.5 -293.5t-121.5 -293.5t-293.5 -121.5t-293.5 121.5t-121.5 293.5z" />
    <glyph glyph-name="uni277E" unicode="&#x277e;" horiz-adv-x="1000" 
d="M500 525q-60 0 -102.5 -41.5t-42.5 -98.5t42.5 -98.5t102.5 -41.5h10l-85 -125h75l115 170q30 40 30 95q0 57 -42.5 98.5t-102.5 41.5zM915 320q0 -172 -121.5 -293.5t-293.5 -121.5t-293.5 121.5t-121.5 293.5t121.5 293.5t293.5 121.5t293.5 -121.5t121.5 -293.5z
M425 385q0 31 21 53t54 22t54 -22t21 -53t-21 -53t-54 -22t-54 22t-21 53z" />
    <glyph glyph-name="commaaccent" unicode="&#xf6c3;" horiz-adv-x="160" 
d="M30 -115q0 21 14.5 35.5t35.5 14.5t35.5 -14.5t14.5 -35.5q0 -27 -7.5 -51t-19 -39.5t-22.5 -27.5t-19 -17l-7 -5l-15 20q35 30 40 70q-21 0 -35.5 14.5t-14.5 35.5z" />
    <glyph glyph-name="cyrBreve" unicode="&#xf6d1;" horiz-adv-x="310" 
d="M155 700q-51 0 -84 30t-41 80h60q4 -27 21.5 -43.5t43.5 -16.5t43.5 16.5t21.5 43.5h60q-8 -50 -41 -80t-84 -30z" />
    <glyph glyph-name="cyrbreve" unicode="&#xf6d4;" horiz-adv-x="300" 
d="M150 520q-47 0 -79.5 31.5t-40.5 78.5h60q4 -26 21 -43t39 -17t39 17t21 43h60q-8 -47 -40.5 -78.5t-79.5 -31.5z" />
    <glyph glyph-name="s_t" unicode="&#xfb06;" horiz-adv-x="715" 
d="M360 130q0 -58 -42.5 -96.5t-112.5 -38.5q-73 0 -117 39t-48 101h75q4 -31 27 -50.5t63 -19.5q36 0 58 19t22 46t-24 41.5t-58.5 22t-69.5 17.5t-59 38.5t-24 75.5q0 54 42 92t108 38h15q-5 15 -5 45q0 75 51 125t129 50t129 -49t51 -121v-55h100v-65h-100v-240
q0 -37 20.5 -58.5t54.5 -21.5l25 5v-65q-15 -10 -45 -10q-54 0 -92 42t-38 108v240h-80v65h35q55 0 55 55q0 45 -31 75t-79 30q-49 0 -79.5 -30.5t-30.5 -79.5q0 -38 16.5 -63t34 -51.5t19.5 -65.5h-75q-8 65 -80 65q-32 0 -53.5 -18t-21.5 -42q0 -27 24 -41.5t58.5 -22
t69.5 -17.5t59 -38.5t24 -75.5z" />
    <glyph glyph-name="lslash.alt" horiz-adv-x="280" 
d="M250 360l-80 -52v-163q0 -37 20.5 -58.5t54.5 -21.5l25 5v-65q-15 -10 -45 -10q-54 0 -92 42t-38 108v114l-75 -49v75l75 49v296h75v-247l80 52v-75z" />
    <glyph glyph-name="Germandbls" horiz-adv-x="590" 
d="M515 570l-125 -200q7 -1 17.5 -3t38 -14.5t48.5 -30.5t38.5 -54.5t17.5 -82.5q0 -79 -53 -132t-132 -53h-55v70h55q46 0 75.5 31.5t29.5 83.5t-29.5 83.5t-75.5 31.5h-55v70l117 190h-162q-42 0 -73.5 -32.5t-31.5 -77.5v-450h-80v450q0 72 55 126t130 54h250v-60z" />
    <glyph glyph-name="a.alt" horiz-adv-x="515" 
d="M390 225q0 70 -41 115t-99 45t-99 -45t-41 -115t41 -115t99 -45t99 45t41 115zM400 0l-20 50q-5 -6 -15 -15t-45 -24.5t-75 -15.5q-88 0 -149 65t-61 165t61 165t149 65q40 0 73.5 -13.5t47.5 -27.5l14 -14l20 50h55v-450h-55z" />
    <glyph glyph-name="afii10085.alt" horiz-adv-x="450" 
d="M185 10l-175 440h80l135 -345l135 345h80l-245 -610h-80z" />
    <glyph glyph-name="l.alt" horiz-adv-x="255" 
d="M145 630v-485q0 -37 20.5 -58.5t54.5 -21.5l25 5v-65q-15 -10 -45 -10q-54 0 -92 42t-38 108v485h75z" />
    <glyph glyph-name="y.alt" horiz-adv-x="510" 
d="M240 10q-73 0 -124 55t-51 140v245h75v-245q0 -55 32 -90t78 -35q53 0 86.5 34.5t33.5 90.5v245h75v-435q0 -79 -54 -132t-136 -53q-75 0 -122 37.5t-63 97.5h75q28 -65 110 -65q49 0 82 33t33 82v55q-5 -7 -15 -17t-43.5 -26.5t-71.5 -16.5z" />
    <glyph glyph-name="I.alt" horiz-adv-x="350" 
d="M35 70h100v490h-100v70h280v-70h-100v-490h100v-70h-280v70z" />
    <glyph glyph-name="c_t" horiz-adv-x="785" 
d="M520 450q55 0 55 55q0 49 -28 77t-77 28t-79.5 -30.5t-30.5 -79.5q0 -55 36 -114t44 -96h-75q-12 40 -44.5 67.5t-75.5 27.5q-54 0 -94.5 -45.5t-40.5 -114.5t40.5 -114.5t94.5 -45.5q43 0 75.5 27.5t44.5 67.5h75q-16 -70 -69 -117.5t-126 -47.5q-88 0 -149 65t-61 165
t61 165t149 65l45 -5q-5 20 -5 50q0 75 51 125t129 50t126.5 -47.5t48.5 -122.5v-55h100v-65h-100v-240q0 -37 20.5 -58.5t54.5 -21.5l25 5v-65q-15 -10 -45 -10q-54 0 -92 42t-38 108v240h-80v65h35z" />
    <glyph glyph-name="r_f" horiz-adv-x="525" 
d="M500 450v-70h-100v-380h-75v380h-65q-53 0 -86.5 -34.5t-33.5 -90.5v-255h-75v450h55l20 -50q5 6 14.5 14t42 22t68.5 14h60v35q0 66 38 108t92 42q13 0 24.5 -2.5t16.5 -4.5l4 -3v-65q-10 5 -25 5q-34 0 -54.5 -21.5t-20.5 -58.5v-35h100z" />
    <glyph glyph-name="r_t" horiz-adv-x="545" 
d="M335 505v65h65v-120h100v-70h-100v-235q0 -37 20.5 -58.5t54.5 -21.5l25 5v-65q-15 -10 -45 -10q-54 0 -92 42t-38 108v235h-65q-53 0 -86.5 -34.5t-33.5 -90.5v-255h-75v450h55l20 -50q5 6 14.5 14t42 22t68.5 14h15q55 0 55 55z" />
    <glyph glyph-name="afii10065.alt" horiz-adv-x="515" 
d="M390 225q0 70 -41 115t-99 45t-99 -45t-41 -115t41 -115t99 -45t99 45t41 115zM400 0l-20 50q-5 -6 -15 -15t-45 -24.5t-75 -15.5q-88 0 -149 65t-61 165t61 165t149 65q40 0 73.5 -13.5t47.5 -27.5l14 -14l20 50h55v-450h-55z" />
    <glyph glyph-name="afii10110.alt" horiz-adv-x="450" 
d="M225 520q-47 0 -79.5 31.5t-40.5 78.5h60q4 -26 20.5 -43t39.5 -17t39.5 17t20.5 43h60q-8 -47 -40.5 -78.5t-79.5 -31.5zM185 10l-175 440h80l135 -345l135 345h80l-245 -610h-80z" />
    <glyph glyph-name="agrave.alt" horiz-adv-x="515" 
d="M230 645l60 -120h-50l-85 120h75zM390 225q0 70 -41 115t-99 45t-99 -45t-41 -115t41 -115t99 -45t99 45t41 115zM400 0l-20 50q-5 -6 -15 -15t-45 -24.5t-75 -15.5q-88 0 -149 65t-61 165t61 165t149 65q40 0 73.5 -13.5t47.5 -27.5l14 -14l20 50h55v-450h-55z" />
    <glyph glyph-name="aacute.alt" horiz-adv-x="515" 
d="M230 525l60 120h75l-85 -120h-50zM390 225q0 70 -41 115t-99 45t-99 -45t-41 -115t41 -115t99 -45t99 45t41 115zM400 0l-20 50q-5 -6 -15 -15t-45 -24.5t-75 -15.5q-88 0 -149 65t-61 165t61 165t149 65q40 0 73.5 -13.5t47.5 -27.5l14 -14l20 50h55v-450h-55z" />
    <glyph glyph-name="abreve.alt" horiz-adv-x="515" 
d="M250 520q-47 0 -79.5 31.5t-40.5 78.5h60q4 -26 21 -43t39 -17t39 17t21 43h60q-8 -47 -40.5 -78.5t-79.5 -31.5zM390 225q0 70 -41 115t-99 45t-99 -45t-41 -115t41 -115t99 -45t99 45t41 115zM400 0l-20 50q-5 -6 -15 -15t-45 -24.5t-75 -15.5q-88 0 -149 65t-61 165
t61 165t149 65q40 0 73.5 -13.5t47.5 -27.5l14 -14l20 50h55v-450h-55z" />
    <glyph glyph-name="acircumflex.alt" horiz-adv-x="515" 
d="M290 640l90 -120h-75l-50 70l-50 -70h-75l90 120h70zM390 225q0 70 -41 115t-99 45t-99 -45t-41 -115t41 -115t99 -45t99 45t41 115zM400 0l-20 50q-5 -6 -15 -15t-45 -24.5t-75 -15.5q-88 0 -149 65t-61 165t61 165t149 65q40 0 73.5 -13.5t47.5 -27.5l14 -14l20 50h55
v-450h-55z" />
    <glyph glyph-name="adieresis.alt" horiz-adv-x="515" 
d="M175 535q-19 0 -32 13t-13 32t13 32t32 13t32 -13t13 -32t-13 -32t-32 -13zM325 535q-19 0 -32 13t-13 32t13 32t32 13t32 -13t13 -32t-13 -32t-32 -13zM390 225q0 70 -41 115t-99 45t-99 -45t-41 -115t41 -115t99 -45t99 45t41 115zM400 0l-20 50q-5 -6 -15 -15
t-45 -24.5t-75 -15.5q-88 0 -149 65t-61 165t61 165t149 65q40 0 73.5 -13.5t47.5 -27.5l14 -14l20 50h55v-450h-55z" />
    <glyph glyph-name="amacron.alt" horiz-adv-x="515" 
d="M380 605v-60h-240v60h240zM390 225q0 70 -41 115t-99 45t-99 -45t-41 -115t41 -115t99 -45t99 45t41 115zM400 0l-20 50q-5 -6 -15 -15t-45 -24.5t-75 -15.5q-88 0 -149 65t-61 165t61 165t149 65q40 0 73.5 -13.5t47.5 -27.5l14 -14l20 50h55v-450h-55z" />
    <glyph glyph-name="aogonek.alt" horiz-adv-x="515" 
d="M400 0l-20 50q-5 -6 -15 -15t-45 -24.5t-75 -15.5q-88 0 -149 65t-61 165t61 165t149 65q40 0 73.5 -13.5t47.5 -27.5l14 -14l20 50h55v-450h-5q-35 -40 -35 -85q0 -19 13 -32t32 -13l40 5v-40q-20 -5 -40 -5q-44 0 -69.5 23.5t-25.5 61.5q0 20 8.5 41.5t17.5 32.5z
M390 225q0 70 -41 115t-99 45t-99 -45t-41 -115t41 -115t99 -45t99 45t41 115z" />
    <glyph glyph-name="aring.alt" horiz-adv-x="515" 
d="M220 590q0 -15 10 -25t25 -10t25 10t10 25t-10 25t-25 10t-25 -10t-10 -25zM335 590q0 -34 -23 -57t-57 -23t-57 23t-23 57t23 57t57 23t57 -23t23 -57zM390 225q0 70 -41 115t-99 45t-99 -45t-41 -115t41 -115t99 -45t99 45t41 115zM400 0l-20 50q-5 -6 -15 -15
t-45 -24.5t-75 -15.5q-88 0 -149 65t-61 165t61 165t149 65q40 0 73.5 -13.5t47.5 -27.5l14 -14l20 50h55v-450h-55z" />
    <glyph glyph-name="atilde.alt" horiz-adv-x="515" 
d="M315 570q16 0 28 16t12 44h45q0 -54 -24.5 -84.5t-60.5 -30.5q-26 0 -46 16.5t-35 32.5t-29 16q-16 0 -28 -16t-12 -44h-45q0 54 24.5 84.5t60.5 30.5q26 0 46 -16.5t35 -32.5t29 -16zM390 225q0 70 -41 115t-99 45t-99 -45t-41 -115t41 -115t99 -45t99 45t41 115zM400 0
l-20 50q-5 -6 -15 -15t-45 -24.5t-75 -15.5q-88 0 -149 65t-61 165t61 165t149 65q40 0 73.5 -13.5t47.5 -27.5l14 -14l20 50h55v-450h-55z" />
    <glyph glyph-name="lacute.alt" horiz-adv-x="255" 
d="M80 705l60 120h75l-85 -120h-50zM145 630v-485q0 -37 20.5 -58.5t54.5 -21.5l25 5v-65q-15 -10 -45 -10q-54 0 -92 42t-38 108v485h75z" />
    <glyph glyph-name="lcaron.alt" horiz-adv-x="260" 
d="M145 630v-485q0 -37 20.5 -58.5t54.5 -21.5l25 5v-65q-15 -10 -45 -10q-54 0 -92 42t-38 108v485h75zM200 510l35 120h70l-60 -120h-45z" />
    <glyph glyph-name="lcommaaccent.alt" horiz-adv-x="255" 
d="M105 -115q0 21 14.5 35.5t35.5 14.5t35.5 -14.5t14.5 -35.5q0 -27 -7.5 -51t-18.5 -39.5t-22.5 -27.5t-18.5 -17l-8 -5l-15 20q35 30 40 70q-21 0 -35.5 14.5t-14.5 35.5zM145 630v-485q0 -37 20.5 -58.5t54.5 -21.5l25 5v-65q-15 -10 -45 -10q-54 0 -92 42t-38 108v485
h75z" />
    <glyph glyph-name="Igrave.alt" horiz-adv-x="350" 
d="M140 825l60 -120h-50l-85 120h75zM35 70h100v490h-100v70h280v-70h-100v-490h100v-70h-280v70z" />
    <glyph glyph-name="Iacute.alt" horiz-adv-x="350" 
d="M150 705l60 120h75l-85 -120h-50zM35 70h100v490h-100v70h280v-70h-100v-490h100v-70h-280v70z" />
    <glyph glyph-name="Icircumflex.alt" horiz-adv-x="350" 
d="M206 820l90 -120h-75l-50 70l-50 -70h-75l90 120h70zM35 70h100v490h-100v70h280v-70h-100v-490h100v-70h-280v70z" />
    <glyph glyph-name="Idieresis.alt" horiz-adv-x="350" 
d="M100 715q-19 0 -32 13t-13 32t13 32t32 13t32 -13t13 -32t-13 -32t-32 -13zM250 715q-19 0 -32 13t-13 32t13 32t32 13t32 -13t13 -32t-13 -32t-32 -13zM35 70h100v490h-100v70h280v-70h-100v-490h100v-70h-280v70z" />
    <glyph glyph-name="Idotaccent.alt" horiz-adv-x="350" 
d="M120 757q0 21 13.5 34.5t33.5 13.5q21 0 34.5 -13.5t13.5 -34.5q0 -20 -13.5 -33.5t-34.5 -13.5q-20 0 -33.5 13.5t-13.5 33.5zM35 70h100v490h-100v70h280v-70h-100v-490h100v-70h-280v70z" />
    <glyph glyph-name="Imacron.alt" horiz-adv-x="350" 
d="M290 780v-60h-240v60h240zM35 70h100v490h-100v70h280v-70h-100v-490h100v-70h-280v70z" />
    <glyph glyph-name="Iogonek.alt" horiz-adv-x="350" 
d="M265 0h-230v70h100v490h-100v70h280v-70h-100v-490h100v-70q-35 -40 -35 -85q0 -19 13 -32t32 -13l40 5v-40q-20 -5 -40 -5q-44 0 -69.5 23.5t-25.5 61.5q0 20 9 41.5t17 32.5z" />
    <glyph glyph-name="yacute.alt" horiz-adv-x="510" 
d="M225 525l60 120h75l-85 -120h-50zM240 10q-73 0 -124 55t-51 140v245h75v-245q0 -55 32 -90t78 -35q53 0 86.5 34.5t33.5 90.5v245h75v-435q0 -79 -54 -132t-136 -53q-75 0 -122 37.5t-63 97.5h75q28 -65 110 -65q49 0 82 33t33 82v55q-5 -7 -15 -17t-43.5 -26.5
t-71.5 -16.5z" />
    <glyph glyph-name="ydieresis.alt" horiz-adv-x="510" 
d="M175 535q-19 0 -32 13t-13 32t13 32t32 13t32 -13t13 -32t-13 -32t-32 -13zM325 535q-19 0 -32 13t-13 32t13 32t32 13t32 -13t13 -32t-13 -32t-32 -13zM240 10q-73 0 -124 55t-51 140v245h75v-245q0 -55 32 -90t78 -35q53 0 86.5 34.5t33.5 90.5v245h75v-435
q0 -79 -54 -132t-136 -53q-75 0 -122 37.5t-63 97.5h75q28 -65 110 -65q49 0 82 33t33 82v55q-5 -7 -15 -17t-43.5 -26.5t-71.5 -16.5z" />
    <glyph glyph-name="zero.tab" 
d="M80 315q0 -121 48 -185.5t117 -64.5t117 64.5t48 185.5t-48 185.5t-117 64.5t-117 -64.5t-48 -185.5zM490 315q0 -148 -71.5 -234t-173.5 -86t-173.5 86t-71.5 234t71.5 234t173.5 86t173.5 -86t71.5 -234z" />
    <glyph glyph-name="one.tab" 
d="M260 630h50v-560h130v-70h-340v70h130v450l-90 -60l-35 60z" />
    <glyph glyph-name="two.tab" 
d="M160 70h285v-70h-390v60l250 275q7 7 17 18.5t26.5 44.5t16.5 62q0 46 -31.5 75.5t-83.5 29.5t-86 -33.5t-34 -86.5h-80q0 79 57.5 134.5t142.5 55.5t140 -51t55 -124q0 -40 -21.5 -82.5t-42.5 -65.5l-21 -22z" />
    <glyph glyph-name="three.tab" 
d="M120 470h-80q8 70 61.5 117.5t133.5 47.5q85 0 140 -51t55 -124q0 -25 -9.5 -48t-22.5 -37t-26 -25t-22 -16l-10 -4q4 -2 11.5 -5t26.5 -16.5t33.5 -29.5t26.5 -44t12 -60q0 -73 -59.5 -126.5t-150.5 -53.5q-83 0 -138 47t-67 118h80q8 -40 41.5 -67.5t83.5 -27.5
q58 0 94 32t36 78q0 47 -35.5 78.5t-94.5 31.5h-35v70h30q52 0 83.5 29.5t31.5 75.5t-31.5 75.5t-83.5 29.5q-47 0 -79 -28t-36 -67z" />
    <glyph glyph-name="four.tab" 
d="M460 205v-70h-70v-135h-80v135h-280v65l265 430h95v-425h70zM120 205h190v310z" />
    <glyph glyph-name="five.tab" 
d="M260 415q83 0 141.5 -60.5t58.5 -149.5q0 -90 -60 -150t-150 -60q-83 0 -138 47t-67 118h80q8 -40 41.5 -67.5t83.5 -27.5q56 0 93 38.5t37 101.5t-36.5 101.5t-93.5 38.5q-25 0 -46.5 -7.5t-34.5 -18.5t-22.5 -22.5t-12.5 -18.5l-4 -8h-70l40 360h320v-75h-250l-20 -180
q4 4 13 11t37.5 18t59.5 11z" />
    <glyph glyph-name="six.tab" 
d="M245 -5q-90 0 -152.5 62.5t-62.5 152.5q0 36 13.5 73.5t27.5 56.5l14 20l180 270h85l-140 -210q15 5 35 5q90 0 152.5 -62.5t62.5 -152.5t-62.5 -152.5t-152.5 -62.5zM110 210q0 -62 39 -103.5t96 -41.5t96 41t39 104q0 60 -39 100t-96 40t-96 -40t-39 -100z" />
    <glyph glyph-name="seven.tab" 
d="M70 630h380v-55l-265 -575h-85l260 560h-290v70z" />
    <glyph glyph-name="eight.tab" 
d="M245 -5q-92 0 -151 54t-59 131q0 34 11.5 62.5t27.5 46t32 29.5t28 17l11 5q-3 1 -9 3.5t-20.5 13.5t-26 24t-20.5 37t-9 52q0 65 54 115t131 50t131 -50t54 -115q0 -44 -21.5 -76.5t-42.5 -43.5l-21 -10q4 -2 11.5 -5t26.5 -16.5t33.5 -30t26.5 -45.5t12 -63
q0 -77 -59 -131t-151 -54zM245 300q-59 0 -94.5 -32.5t-35.5 -82.5q0 -53 35.5 -86.5t94.5 -33.5t94.5 33.5t35.5 86.5q0 50 -35.5 82.5t-94.5 32.5zM245 370q44 0 74.5 28.5t30.5 66.5q0 42 -30 71t-75 29t-75 -29t-30 -71q0 -38 30.5 -66.5t74.5 -28.5z" />
    <glyph glyph-name="nine.tab" 
d="M245 635q90 0 152.5 -62.5t62.5 -152.5q0 -36 -14 -73.5t-28 -56.5l-13 -20l-180 -270h-85l140 210q-15 -5 -35 -5q-90 0 -152.5 62.5t-62.5 152.5t62.5 152.5t152.5 62.5zM380 420q0 62 -39 103.5t-96 41.5t-96 -41t-39 -104q0 -60 39 -100t96 -40t96 40t39 100z" />
    <glyph glyph-name="at.case" horiz-adv-x="740" 
d="M465 191q-4 -7 -13 -17t-37.5 -27t-59.5 -17q-61 0 -105.5 48.5t-44.5 121.5t44.5 121.5t105.5 48.5q31 0 57.5 -14t37.5 -28l10 -13l15 50h45v-197q0 -41 15.5 -62t39.5 -21q70 0 70 125q0 109 -80.5 189.5t-189.5 80.5q-110 0 -190 -82.5t-80 -197.5t80 -197.5
t190 -82.5q36 0 71 11t52 23l17 11l30 -50q-9 -6 -25 -14t-60.5 -22t-84.5 -14q-139 0 -237 98t-98 237t98 237t237 98q138 0 236.5 -96.5t98.5 -228.5q0 -86 -38 -133t-97 -47q-22 0 -41.5 6.5t-31.5 15t-20.5 17.5t-12.5 15zM265 300q0 -48 29 -79t71 -31q44 0 72 29.5
t28 80.5t-28 80.5t-72 29.5q-42 0 -71 -31t-29 -79z" />
    <glyph glyph-name="parenleft.case" horiz-adv-x="265" 
d="M125 300q0 -57 12.5 -118t30 -106.5t35 -83t29.5 -57.5l13 -20l-50 -35q-6 7 -15.5 20.5t-33.5 56.5t-42.5 89.5t-33.5 115.5t-15 138t14.5 137.5t35 117t41 87.5t34.5 58l15 20l50 -35q-5 -7 -13 -20.5t-28.5 -55.5t-36.5 -85t-29 -105t-13 -119z" />
    <glyph glyph-name="parenright.case" horiz-adv-x="265" 
d="M140 300q0 57 -12.5 118t-30 106.5t-35 83t-30.5 57.5l-12 20l50 35q6 -7 15.5 -20.5t33.5 -56.5t42.5 -89.5t33.5 -115.5t15 -138t-14.5 -137.5t-35 -117t-41 -87.5t-35.5 -58l-14 -20l-50 35q5 7 13 20.5t28.5 55.5t36.5 85t29 105t13 119z" />
    <glyph glyph-name="bracketleft.case" horiz-adv-x="285" 
d="M150 640v-680h115v-65h-185v810h185v-65h-115z" />
    <glyph glyph-name="bracketright.case" horiz-adv-x="285" 
d="M135 -40v680h-115v65h185v-810h-185v65h115z" />
    <glyph glyph-name="braceleft.case" horiz-adv-x="300" 
d="M45 270v60q55 0 55 55v195q0 60 33.5 92.5t96.5 32.5h50v-65h-52q-25 0 -41.5 -17t-16.5 -43v-195q0 -31 -15 -52.5t-30 -26.5l-15 -6q2 -1 6.5 -2t14.5 -7.5t18 -15t14.5 -24.5t6.5 -36v-195q0 -26 16.5 -43t41.5 -17h52v-65h-50q-63 0 -96.5 32.5t-33.5 92.5v195
q0 55 -55 55z" />
    <glyph glyph-name="braceright.case" horiz-adv-x="300" 
d="M255 330v-60q-55 0 -55 -55v-195q0 -60 -33.5 -92.5t-96.5 -32.5h-50v65h52q25 0 41.5 17t16.5 43v195q0 31 15 52.5t30 26.5l15 6q-2 1 -6.5 2t-14.5 7.5t-18 15t-14.5 24.5t-6.5 36v195q0 26 -16.5 43t-41.5 17h-52v65h50q63 0 96.5 -32.5t33.5 -92.5v-195
q0 -55 55 -55z" />
    <glyph glyph-name="exclamdown.case" horiz-adv-x="260" 
d="M160 480l20 -480h-100l20 480h60zM80 585q0 23 14 36.5t36 13.5t36 -13.5t14 -36.5t-14 -36.5t-36 -13.5t-36 13.5t-14 36.5z" />
    <glyph glyph-name="questiondown.case" horiz-adv-x="430" 
d="M30 161q0 44 15 76t36 52.5t42.5 41t36.5 53t15 76.5v5h80v-5q0 -53 -15 -91t-36 -60t-42.5 -41t-36.5 -45.5t-15 -61.5q0 -42 27 -69t68 -27q50 0 77.5 31.5t27.5 93.5v10h80v-10q0 -92 -50.5 -143.5t-134.5 -51.5q-75 0 -125 47t-50 119zM265 585q0 -23 -13.5 -36.5
t-36.5 -13.5t-36.5 13.5t-13.5 36.5t13.5 36.5t36.5 13.5t36.5 -13.5t13.5 -36.5z" />
    <glyph glyph-name="guillemotleft.case" horiz-adv-x="440" 
d="M110 300l110 -160h-75l-110 160l110 160h75zM295 300l110 -160h-75l-110 160l110 160h75z" />
    <glyph glyph-name="guillemotright.case" horiz-adv-x="440" 
d="M220 140l110 160l-110 160h75l110 -160l-110 -160h-75zM35 140l110 160l-110 160h75l110 -160l-110 -160h-75z" />
    <glyph glyph-name="guilsinglleft.case" horiz-adv-x="255" 
d="M110 300l110 -160h-75l-110 160l110 160h75z" />
    <glyph glyph-name="guilsinglright.case" horiz-adv-x="255" 
d="M35 140l110 160l-110 160h75l110 -160l-110 -160h-75z" />
    <glyph glyph-name="hyphen.case" horiz-adv-x="345" 
d="M310 360v-65h-275v65h275z" />
    <glyph glyph-name="endash.case" horiz-adv-x="465" 
d="M430 365v-70h-395v70h395z" />
    <glyph glyph-name="emdash.case" horiz-adv-x="710" 
d="M675 365v-70h-640v70h640z" />
    <glyph glyph-name="foundryicon" horiz-adv-x="1538" 
d="M278 460v-31h-72v-199h-35v199h-71v31h178zM519 396q32 0 54.5 -25t22.5 -59q0 -36 -22.5 -60.5t-54.5 -24.5q-29 0 -47 21v-79h-34v224h24l9 -19q19 22 48 22zM516 258q19 0 33 16t14 38q0 21 -14 36.5t-33 15.5t-33 -15.5t-14 -36.5q0 -22 13.5 -38t33.5 -16zM333 277
l44 116h37l-77 -190q-16 -34 -49 -34q-7 0 -10 1v28q23 0 31 20l6 16l-63 159h37zM701 396q32 0 54 -24.5t22 -58.5l-1 -15h-119q2 -17 14.5 -29t29.5 -12q27 0 37 17h35q-9 -22 -28.5 -34.5t-43.5 -12.5q-32 0 -55 24.5t-23 60.5q0 35 23 59.5t55 24.5zM657 325h88
q-1 17 -14.5 28.5t-29.5 11.5t-29 -11t-15 -29zM939 460v-31h-72v-199h-35v199h-71v31h178zM1180 396q32 0 54.5 -25t22.5 -59q0 -36 -22.5 -60.5t-54.5 -24.5q-29 0 -47 21v-79h-34v224h24l9 -19q19 22 48 22zM1177 258q19 0 33 16t14 38q0 21 -14 36.5t-33 15.5t-33 -15.5
t-14 -36.5q0 -22 13.5 -38t33.5 -16zM994 277l44 116h37l-77 -190q-16 -34 -49 -34q-7 0 -10 1v28q23 0 31 20l6 16l-63 159h37zM1362 396q32 0 54 -24.5t22 -58.5l-1 -15h-119q2 -17 14.5 -29t29.5 -12q27 0 37 17h35q-9 -22 -28.5 -34.5t-43.5 -12.5q-32 0 -55 24.5
t-23 60.5q0 35 23 59.5t55 24.5zM1318 325h88q-1 17 -14.5 28.5t-29.5 11.5t-29 -11t-15 -29z" />
    <glyph glyph-name="bullet.case" horiz-adv-x="380" 
d="M100 335q0 37 26 63.5t64 26.5t64 -26.5t26 -63.5t-26 -63.5t-64 -26.5t-64 26.5t-26 63.5z" />
    <glyph glyph-name="periodcentered.case" horiz-adv-x="215" 
d="M60 335q0 23 14 36.5t36 13.5t36 -13.5t14 -36.5t-14 -36.5t-36 -13.5t-36 13.5t-14 36.5z" />
    <glyph glyph-name="zero.dnom" horiz-adv-x="300" 
d="M85 145q0 -50 18.5 -75t46.5 -25t46.5 25t18.5 75t-18.5 75t-46.5 25t-46.5 -25t-18.5 -75zM270 145q0 -69 -34.5 -109.5t-85.5 -40.5t-85.5 40.5t-34.5 109.5t34.5 109.5t85.5 40.5t85.5 -40.5t34.5 -109.5z" />
    <glyph glyph-name="one.dnom" horiz-adv-x="205" 
d="M20 240l80 50h40v-290h-55v220l-40 -20z" />
    <glyph glyph-name="two.dnom" horiz-adv-x="255" 
d="M195 145l-88 -95h118v-50h-195v40l110 115q30 30 30 50q0 40 -45 40t-45 -45h-50q0 41 27 68t68 27q44 0 72 -26t28 -64q0 -30 -30 -60z" />
    <glyph glyph-name="three.dnom" horiz-adv-x="265" 
d="M195 155q4 -2 11 -6t18 -22t11 -42q0 -38 -28 -64t-72 -26q-48 0 -76.5 26.5t-28.5 68.5h50q0 -19 14 -32t36 -13t36 12t14 28q0 19 -14 32t-36 13h-26v45h26q18 0 29 10t11 25t-11 25t-29 10q-45 0 -45 -40h-50q0 38 27 64t68 26q40 0 67.5 -25.5t27.5 -59.5
q0 -18 -7.5 -31.5t-15.5 -18.5z" />
    <glyph glyph-name="four.dnom" horiz-adv-x="250" 
d="M185 290v-185h35v-50h-35v-55h-55v55h-125v40l120 195h60zM65 105h65v105z" />
    <glyph glyph-name="five.dnom" horiz-adv-x="270" 
d="M145 195q42 0 68.5 -27.5t26.5 -72.5q0 -42 -30 -71t-75 -29q-44 0 -70.5 23t-34.5 62h55q9 -35 50 -35q23 0 36.5 13.5t13.5 36.5q0 26 -13.5 40.5t-36.5 14.5q-40 0 -50 -30h-45l20 170h160v-50h-114l-6 -55q15 10 45 10z" />
    <glyph glyph-name="six.dnom" horiz-adv-x="260" 
d="M200 290l-65 -95q45 0 72.5 -27.5t27.5 -72.5t-27.5 -72.5t-72.5 -27.5t-72.5 27.5t-27.5 72.5q0 22 10 47t20 39l10 14l65 95h60zM135 145q-19 0 -32 -14t-13 -36t13 -36t32 -14t32 14t13 36t-13 36t-32 14z" />
    <glyph glyph-name="seven.dnom" horiz-adv-x="230" 
d="M40 240v50h190v-35l-120 -255h-55l115 240h-130z" />
    <glyph glyph-name="eight.dnom" horiz-adv-x="260" 
d="M130 -5q-44 0 -72 26t-28 64q0 22 10 39.5t20 23.5l10 7q-30 15 -30 55q0 34 26.5 59.5t63.5 25.5t63.5 -25.5t26.5 -59.5q0 -18 -7.5 -31.5t-14.5 -18.5l-8 -5q4 -2 11 -7t18 -23t11 -40q0 -38 -28 -64t-72 -26zM130 245q-18 0 -29 -10t-11 -25t11 -25t29 -10t29 10
t11 25t-11 25t-29 10zM130 130q-19 0 -32 -13t-13 -30t13 -29.5t32 -12.5t32 12.5t13 29.5t-13 30t-32 13z" />
    <glyph glyph-name="nine.dnom" horiz-adv-x="260" 
d="M60 0l65 95q-45 0 -72.5 27.5t-27.5 72.5t27.5 72.5t72.5 27.5t72.5 -27.5t27.5 -72.5q0 -22 -10 -47t-20 -39l-10 -14l-65 -95h-60zM125 145q19 0 32 14t13 36t-13 36t-32 14t-32 -14t-13 -36t13 -36t32 -14z" />
    <glyph glyph-name="zero.numr" horiz-adv-x="300" 
d="M85 485q0 -50 18.5 -75t46.5 -25t46.5 25t18.5 75t-18.5 75t-46.5 25t-46.5 -25t-18.5 -75zM270 485q0 -69 -34.5 -109.5t-85.5 -40.5t-85.5 40.5t-34.5 109.5t34.5 109.5t85.5 40.5t85.5 -40.5t34.5 -109.5z" />
    <glyph glyph-name="one.numr" horiz-adv-x="205" 
d="M20 580l80 50h40v-290h-55v220l-40 -20z" />
    <glyph glyph-name="two.numr" horiz-adv-x="255" 
d="M195 485l-88 -95h118v-50h-195v40l110 115q30 30 30 50q0 40 -45 40t-45 -45h-50q0 41 27 68t68 27q44 0 72 -26t28 -64q0 -30 -30 -60z" />
    <glyph glyph-name="three.numr" horiz-adv-x="265" 
d="M195 495q4 -2 11 -6t18 -22t11 -42q0 -38 -28 -64t-72 -26q-48 0 -76.5 26.5t-28.5 68.5h50q0 -19 14 -32t36 -13t36 12t14 28q0 19 -14 32t-36 13h-26v45h26q18 0 29 10t11 25t-11 25t-29 10q-45 0 -45 -40h-50q0 38 27 64t68 26q40 0 67.5 -25.5t27.5 -59.5
q0 -18 -7.5 -31.5t-15.5 -18.5z" />
    <glyph glyph-name="four.numr" horiz-adv-x="250" 
d="M185 630v-185h35v-50h-35v-55h-55v55h-125v40l120 195h60zM65 445h65v105z" />
    <glyph glyph-name="five.numr" horiz-adv-x="270" 
d="M145 535q42 0 68.5 -27.5t26.5 -72.5q0 -42 -30 -71t-75 -29q-44 0 -70.5 23t-34.5 62h55q9 -35 50 -35q23 0 36.5 13.5t13.5 36.5q0 26 -13.5 40.5t-36.5 14.5q-40 0 -50 -30h-45l20 170h160v-50h-114l-6 -55q15 10 45 10z" />
    <glyph glyph-name="six.numr" horiz-adv-x="260" 
d="M200 630l-65 -95q45 0 72.5 -27.5t27.5 -72.5t-27.5 -72.5t-72.5 -27.5t-72.5 27.5t-27.5 72.5q0 22 10 47t20 39l10 14l65 95h60zM135 485q-19 0 -32 -14t-13 -36t13 -36t32 -14t32 14t13 36t-13 36t-32 14z" />
    <glyph glyph-name="seven.numr" horiz-adv-x="230" 
d="M40 580v50h190v-35l-120 -255h-55l115 240h-130z" />
    <glyph glyph-name="eight.numr" horiz-adv-x="260" 
d="M130 335q-44 0 -72 26t-28 64q0 22 10 39.5t20 23.5l10 7q-30 15 -30 55q0 34 26.5 59.5t63.5 25.5t63.5 -25.5t26.5 -59.5q0 -18 -7.5 -31.5t-14.5 -18.5l-8 -5q4 -2 11 -7t18 -23t11 -40q0 -38 -28 -64t-72 -26zM130 585q-18 0 -29 -10t-11 -25t11 -25t29 -10t29 10
t11 25t-11 25t-29 10zM130 470q-19 0 -32 -13t-13 -30t13 -29.5t32 -12.5t32 12.5t13 29.5t-13 30t-32 13z" />
    <glyph glyph-name="nine.numr" horiz-adv-x="260" 
d="M60 340l65 95q-45 0 -72.5 27.5t-27.5 72.5t27.5 72.5t72.5 27.5t72.5 -27.5t27.5 -72.5q0 -22 -10 -47t-20 -39l-10 -14l-65 -95h-60zM125 485q19 0 32 14t13 36t-13 36t-32 14t-32 -14t-13 -36t13 -36t32 -14z" />
    <glyph glyph-name="zero.osf" horiz-adv-x="560" 
d="M135 225q0 -70 42 -115t103 -45t103 45t42 115t-42 115t-103 45t-103 -45t-42 -115zM505 225q0 -97 -65.5 -163.5t-159.5 -66.5t-159.5 66.5t-65.5 163.5t65.5 163.5t159.5 66.5t159.5 -66.5t65.5 -163.5z" />
    <glyph glyph-name="one.osf" horiz-adv-x="310" 
d="M180 450h50v-450h-80v340l-90 -60l-35 60z" />
    <glyph glyph-name="two.osf" horiz-adv-x="460" 
d="M205 70h205v-70h-360v50l205 145q37 26 53.5 50.5t16.5 59.5q0 34 -25 57t-65 23q-94 0 -110 -90h-80q12 73 61 116.5t129 43.5q70 0 120 -46t50 -104q0 -52 -24.5 -87t-75.5 -73z" />
    <glyph glyph-name="three.osf" horiz-adv-x="485" 
d="M65 380v70h355v-50l-155 -195q81 -12 130.5 -63t49.5 -132q0 -84 -58.5 -139.5t-151.5 -55.5q-91 0 -146.5 48t-63.5 122h80q8 -44 42 -72t88 -28q60 0 95 34t35 91q0 56 -35.5 90.5t-94.5 34.5q-16 0 -29.5 -2.5t-19.5 -4.5l-6 -3l-40 40l170 215h-245z" />
    <glyph glyph-name="four.osf" horiz-adv-x="485" 
d="M460 70v-70h-70v-180h-80v180h-285v60l275 390h90v-380h70zM115 70h195v280z" />
    <glyph glyph-name="five.osf" horiz-adv-x="500" 
d="M260 235q83 0 141.5 -60.5t58.5 -149.5q0 -90 -60 -150t-150 -60q-83 0 -138 47t-67 118h80q8 -40 41.5 -67.5t83.5 -27.5q56 0 93 38.5t37 101.5t-36.5 101.5t-93.5 38.5q-25 0 -46.5 -7.5t-34.5 -18.5t-22.5 -22.5t-12.5 -18.5l-4 -8h-70l40 360h320v-75h-250l-20 -180
q4 4 13 11t37.5 18t59.5 11z" />
    <glyph glyph-name="six.osf" 
d="M245 -5q-90 0 -152.5 62.5t-62.5 152.5q0 36 13.5 73.5t27.5 56.5l14 20l180 270h85l-140 -210q15 5 35 5q90 0 152.5 -62.5t62.5 -152.5t-62.5 -152.5t-152.5 -62.5zM110 210q0 -62 39 -103.5t96 -41.5t96 41t39 104q0 60 -39 100t-96 40t-96 -40t-39 -100z" />
    <glyph glyph-name="seven.osf" horiz-adv-x="440" 
d="M30 445h380v-55l-265 -575h-85l260 560h-290v70z" />
    <glyph glyph-name="eight.osf" 
d="M245 -5q-92 0 -151 54t-59 131q0 34 11.5 62.5t27.5 46t32 29.5t28 17l11 5q-3 1 -9 3.5t-20.5 13.5t-26 24t-20.5 37t-9 52q0 65 54 115t131 50t131 -50t54 -115q0 -44 -21.5 -76.5t-42.5 -43.5l-21 -10q4 -2 11.5 -5t26.5 -16.5t33.5 -30t26.5 -45.5t12 -63
q0 -77 -59 -131t-151 -54zM245 300q-59 0 -94.5 -32.5t-35.5 -82.5q0 -53 35.5 -86.5t94.5 -33.5t94.5 33.5t35.5 86.5q0 50 -35.5 82.5t-94.5 32.5zM245 370q44 0 74.5 28.5t30.5 66.5q0 42 -30 71t-75 29t-75 -29t-30 -71q0 -38 30.5 -66.5t74.5 -28.5z" />
    <glyph glyph-name="nine.osf" 
d="M245 452q90 0 152.5 -62.5t62.5 -152.5q0 -36 -14 -73.5t-28 -57.5l-13 -19l-180 -270h-85l140 210q-15 -5 -35 -5q-90 0 -152.5 62.5t-62.5 152.5t62.5 152.5t152.5 62.5zM380 237q0 62 -39 103.5t-96 41.5t-96 -41t-39 -104q0 -60 39 -100t96 -40t96 40t39 100z" />
    <glyph glyph-name="zero.osftab" 
d="M100 225q0 -70 42 -115t103 -45t103 45t42 115t-42 115t-103 45t-103 -45t-42 -115zM470 225q0 -97 -65.5 -163.5t-159.5 -66.5t-159.5 66.5t-65.5 163.5t65.5 163.5t159.5 66.5t159.5 -66.5t65.5 -163.5z" />
    <glyph glyph-name="one.osftab" 
d="M260 450h50v-380h130v-70h-340v70h130v270l-90 -60l-35 60z" />
    <glyph glyph-name="two.osftab" 
d="M225 70h205v-70h-360v50l205 145q37 26 53.5 50.5t16.5 59.5q0 34 -25 57t-65 23q-94 0 -110 -90h-80q12 73 61 116.5t129 43.5q70 0 120 -46t50 -104q0 -52 -24.5 -87t-75.5 -73z" />
    <glyph glyph-name="three.osftab" 
d="M70 380v70h355v-50l-155 -195q81 -12 130.5 -63t49.5 -132q0 -84 -58.5 -139.5t-151.5 -55.5q-91 0 -146.5 48t-63.5 122h80q8 -44 42 -72t88 -28q60 0 95 34t35 91q0 56 -35.5 90.5t-94.5 34.5q-16 0 -29.5 -2.5t-19.5 -4.5l-6 -3l-40 40l170 215h-245z" />
    <glyph glyph-name="four.osftab" 
d="M465 70v-70h-70v-180h-80v180h-285v60l275 390h90v-380h70zM120 70h195v280z" />
    <glyph glyph-name="five.osftab" 
d="M255 230q83 0 141.5 -60.5t58.5 -149.5q0 -90 -60 -150t-150 -60q-83 0 -138 47t-67 118h80q8 -40 41.5 -67.5t83.5 -27.5q56 0 93 38.5t37 101.5t-36.5 101.5t-93.5 38.5q-40 0 -70 -19t-40 -37l-10 -19h-70l40 360h320v-75h-250l-20 -180q4 4 13 11t37.5 18t59.5 11z
" />
    <glyph glyph-name="six.osftab" 
d="M245 -5q-90 0 -152.5 62.5t-62.5 152.5q0 36 13.5 73.5t27.5 56.5l14 20l180 270h85l-140 -210q15 5 35 5q90 0 152.5 -62.5t62.5 -152.5t-62.5 -152.5t-152.5 -62.5zM110 210q0 -62 39 -103.5t96 -41.5t96 41t39 104q0 60 -39 100t-96 40t-96 -40t-39 -100z" />
    <glyph glyph-name="seven.osftab" 
d="M55 444h380v-55l-265 -575h-85l260 560h-290v70z" />
    <glyph glyph-name="eight.osftab" 
d="M245 -5q-92 0 -151 54t-59 131q0 34 11.5 62.5t27.5 46t32 29.5t28 17l11 5q-3 1 -9 3.5t-20.5 13.5t-26 24t-20.5 37t-9 52q0 65 54 115t131 50t131 -50t54 -115q0 -44 -21.5 -76.5t-42.5 -43.5l-21 -10q4 -2 11.5 -5t26.5 -16.5t33.5 -30t26.5 -45.5t12 -63
q0 -77 -59 -131t-151 -54zM245 300q-59 0 -94.5 -32.5t-35.5 -82.5q0 -53 35.5 -86.5t94.5 -33.5t94.5 33.5t35.5 86.5q0 50 -35.5 82.5t-94.5 32.5zM245 370q44 0 74.5 28.5t30.5 66.5q0 42 -30 71t-75 29t-75 -29t-30 -71q0 -38 30.5 -66.5t74.5 -28.5z" />
    <glyph glyph-name="nine.osftab" 
d="M245 452q90 0 152.5 -62.5t62.5 -152.5q0 -36 -14 -73.5t-28 -57.5l-13 -19l-180 -270h-85l140 210q-15 -5 -35 -5q-90 0 -152.5 62.5t-62.5 152.5t62.5 152.5t152.5 62.5zM380 237q0 62 -39 103.5t-96 41.5t-96 -41t-39 -104q0 -60 39 -100t96 -40t96 40t39 100z" />
    <glyph glyph-name="plus.lf" horiz-adv-x="440" 
d="M255 110h-70v165h-155v65h155v165h70v-165h155v-65h-155v-165z" />
    <glyph glyph-name="less.lf" horiz-adv-x="440" 
d="M130 270l265 -140v-75l-350 190v50l350 190v-75z" />
    <glyph glyph-name="equal.lf" horiz-adv-x="435" 
d="M30 435h375v-70h-375v70zM30 180v70h375v-70h-375z" />
    <glyph glyph-name="greater.lf" horiz-adv-x="440" 
d="M45 130l265 140l-265 140v75l350 -190v-50l-350 -190v75z" />
    <glyph glyph-name="asciitilde.lf" horiz-adv-x="440" 
d="M115 320q-23 0 -39 -18t-16 -47h-60q0 63 31 96.5t84 33.5q38 0 112 -35t93 -35q27 0 43.5 17.5t16.5 47.5h60q0 -63 -31.5 -96.5t-88.5 -33.5q-34 0 -108 35t-97 35z" />
    <glyph glyph-name="logicalnot.lf" horiz-adv-x="440" 
d="M15 430h410v-200h-70v135h-340v65z" />
    <glyph glyph-name="plusminus.lf" horiz-adv-x="440" 
d="M410 80h-380v65h155v170h-155v65h155v165h70v-165h155v-65h-155v-170h155v-65z" />
    <glyph glyph-name="minus.lf" horiz-adv-x="430" 
d="M400 340v-65h-370v65h370z" />
    <glyph glyph-name="multiply.lf" horiz-adv-x="440" 
d="M265 304l115 -115l-45 -45l-115 115l-115 -115l-45 45l115 115l-115 115l45 45l115 -115l115 115l45 -45z" />
    <glyph glyph-name="divide.lf" horiz-adv-x="440" 
d="M405 340v-65h-370v65h370zM220 420q-22 0 -36 14t-14 36t14 36t36 14t36 -14t14 -36t-14 -36t-36 -14zM220 195q22 0 36 -13.5t14 -36.5t-14 -36.5t-36 -13.5t-36 13.5t-14 36.5t14 36.5t36 13.5z" />
    <glyph glyph-name="notequal.lf" horiz-adv-x="440" 
d="M25 435h210l50 120h75l-50 -120h105v-70h-135l-45 -115h180v-70h-210l-50 -125h-75l50 125h-105v70h135l45 115h-180v70z" />
    <glyph glyph-name="approxequal.lf" horiz-adv-x="440" 
d="M115 415q-23 0 -39 -18t-16 -47h-60q0 63 31 96.5t84 33.5q38 0 112 -35t93 -35q27 0 43.5 17.5t16.5 47.5h60q0 -63 -31.5 -96.5t-88.5 -33.5q-34 0 -108 35t-97 35zM115 220q-23 0 -39 -18t-16 -47h-60q0 63 31 96.5t84 33.5q38 0 112 -35t93 -35q27 0 43.5 17.5
t16.5 47.5h60q0 -63 -31.5 -96.5t-88.5 -33.5q-34 0 -108 35t-97 35z" />
    <glyph glyph-name="lessequal.lf" horiz-adv-x="435" 
d="M40 50v70h355v-70h-355zM150 370l245 -115v-75l-350 165v50l350 165v-75z" />
    <glyph glyph-name="greaterequal.lf" horiz-adv-x="435" 
d="M395 120v-70h-355v70h355zM40 255l245 115l-245 115v75l350 -165v-50l-350 -165v75z" />
    <glyph glyph-name="colon.lf" horiz-adv-x="170" 
d="M35 175q0 23 13.5 36.5t36.5 13.5t36.5 -13.5t13.5 -36.5t-13.5 -36.5t-36.5 -13.5t-36.5 13.5t-13.5 36.5zM35 435q0 23 13.5 36.5t36.5 13.5t36.5 -13.5t13.5 -36.5t-13.5 -36.5t-36.5 -13.5t-36.5 13.5t-13.5 36.5z" />
    <glyph glyph-name="a.smcp" horiz-adv-x="510" 
d="M380 130h-250l-45 -130h-85l210 550h90l210 -550h-85zM355 195l-100 275l-100 -275h200z" />
    <glyph glyph-name="agrave.smcp" horiz-adv-x="510" 
d="M380 130h-250l-45 -130h-85l210 550h90l210 -550h-85zM355 195l-100 275l-100 -275h200zM220 740l60 -120h-50l-85 120h75z" />
    <glyph glyph-name="aacute.smcp" horiz-adv-x="510" 
d="M380 130h-250l-45 -130h-85l210 550h90l210 -550h-85zM355 195l-100 275l-100 -275h200zM230 620l60 120h75l-85 -120h-50z" />
    <glyph glyph-name="abreve.smcp" horiz-adv-x="510" 
d="M380 130h-250l-45 -130h-85l210 550h90l210 -550h-85zM355 195l-100 275l-100 -275h200zM255 625q-47 0 -79.5 31.5t-40.5 78.5h60q4 -26 20.5 -43t39.5 -17t39.5 17t20.5 43h60q-8 -47 -40.5 -78.5t-79.5 -31.5z" />
    <glyph glyph-name="acircumflex.smcp" horiz-adv-x="510" 
d="M380 130h-250l-45 -130h-85l210 550h90l210 -550h-85zM355 195l-100 275l-100 -275h200zM290 735l90 -120h-75l-50 70l-50 -70h-75l90 120h70z" />
    <glyph glyph-name="adieresis.smcp" horiz-adv-x="510" 
d="M380 130h-250l-45 -130h-85l210 550h90l210 -550h-85zM355 195l-100 275l-100 -275h200zM180 645q-19 0 -32 13t-13 32t13 32t32 13t32 -13t13 -32t-13 -32t-32 -13zM330 645q-19 0 -32 13t-13 32t13 32t32 13t32 -13t13 -32t-13 -32t-32 -13z" />
    <glyph glyph-name="amacron.smcp" horiz-adv-x="510" 
d="M380 130h-250l-45 -130h-85l210 550h90l210 -550h-85zM355 195l-100 275l-100 -275h200zM375 705v-60h-240v60h240z" />
    <glyph glyph-name="aogonek.smcp" horiz-adv-x="510" 
d="M425 0l-45 130h-250l-45 -130h-85l210 550h90l210 -550h-35q-35 -40 -35 -85q0 -19 13 -32t32 -13l40 5v-40q-20 -5 -40 -5q-44 0 -69.5 23.5t-25.5 61.5q0 20 9 41.5t17 32.5zM355 195l-100 275l-100 -275h200z" />
    <glyph glyph-name="aring.smcp" horiz-adv-x="510" 
d="M380 130h-250l-45 -130h-85l210 550h90l210 -550h-85zM355 195l-100 275l-100 -275h200zM220 690q0 -15 10 -25t25 -10t25 10t10 25t-10 25t-25 10t-25 -10t-10 -25zM335 690q0 -34 -23 -57t-57 -23t-57 23t-23 57t23 57t57 23t57 -23t23 -57z" />
    <glyph glyph-name="atilde.smcp" horiz-adv-x="510" 
d="M380 130h-250l-45 -130h-85l210 550h90l210 -550h-85zM355 195l-100 275l-100 -275h200zM310 675q16 0 28 16t12 44h45q0 -54 -24.5 -84.5t-60.5 -30.5q-20 0 -37.5 10t-27 22.5t-22 22.5t-23.5 10q-16 0 -28 -16t-12 -44h-45q0 54 24.5 84.5t60.5 30.5q20 0 37.5 -10
t27 -22.5t22 -22.5t23.5 -10z" />
    <glyph glyph-name="ae.smcp" horiz-adv-x="740" 
d="M-10 0l305 550h395v-70h-260v-160h240v-70h-240v-181h270v-69h-350v130h-200l-70 -130h-90zM340 480l-150 -280h160v280h-10z" />
    <glyph glyph-name="b.smcp" horiz-adv-x="515" 
d="M380 290q4 -1 11 -3.5t24 -12.5t30 -23.5t24 -39t11 -56.5q0 -65 -49 -110t-126 -45h-235v550h225q73 0 116.5 -39.5t43.5 -100.5q0 -25 -7.5 -46.5t-18.5 -34.5t-22.5 -22.5t-18.5 -12.5zM305 250h-155v-180h155q41 0 68 26t27 64t-27 64t-68 26zM150 480v-160h145
q34 0 57 23t23 57t-23 57t-57 23h-145z" />
    <glyph glyph-name="c.smcp" horiz-adv-x="585" 
d="M305 485q-77 0 -133.5 -61t-56.5 -149t56.5 -149t133.5 -61q120 0 170 125h80q-20 -82 -88 -138.5t-162 -56.5q-110 0 -190 82.5t-80 197.5t80 197.5t190 82.5q97 0 161 -54.5t84 -140.5h-80q-20 56 -62 90.5t-103 34.5z" />
    <glyph glyph-name="cacute.smcp" horiz-adv-x="585" 
d="M305 485q-77 0 -133.5 -61t-56.5 -149t56.5 -149t133.5 -61q120 0 170 125h80q-20 -82 -88 -138.5t-162 -56.5q-110 0 -190 82.5t-80 197.5t80 197.5t190 82.5q97 0 161 -54.5t84 -140.5h-80q-20 56 -62 90.5t-103 34.5zM285 620l60 120h75l-85 -120h-50z" />
    <glyph glyph-name="ccaron.smcp" horiz-adv-x="585" 
d="M305 485q-77 0 -133.5 -61t-56.5 -149t56.5 -149t133.5 -61q120 0 170 125h80q-20 -82 -88 -138.5t-162 -56.5q-110 0 -190 82.5t-80 197.5t80 197.5t190 82.5q97 0 161 -54.5t84 -140.5h-80q-20 56 -62 90.5t-103 34.5zM425 735l-90 -120h-70l-90 120h75l50 -70l50 70
h75z" />
    <glyph glyph-name="ccedilla.smcp" horiz-adv-x="585" 
d="M305 485q-77 0 -133.5 -61t-56.5 -149t56.5 -149t133.5 -61q120 0 170 125h80q-18 -76 -78 -130.5t-144 -62.5l-18 -37q30 -4 47.5 -21.5t17.5 -43.5q0 -28 -23.5 -46.5t-66.5 -18.5l-45 5v40q20 -5 40 -5q21 0 33 9t12 21t-12 21t-33 9l-25 -5l29 71q-105 6 -179.5 87
t-74.5 192q0 115 80 197.5t190 82.5q97 0 161 -54.5t84 -140.5h-80q-20 56 -62 90.5t-103 34.5z" />
    <glyph glyph-name="ccircumflex.smcp" horiz-adv-x="585" 
d="M305 485q-77 0 -133.5 -61t-56.5 -149t56.5 -149t133.5 -61q120 0 170 125h80q-20 -82 -88 -138.5t-162 -56.5q-110 0 -190 82.5t-80 197.5t80 197.5t190 82.5q97 0 161 -54.5t84 -140.5h-80q-20 56 -62 90.5t-103 34.5zM335 735l90 -120h-75l-50 70l-50 -70h-75l90 120
h70z" />
    <glyph glyph-name="d.smcp" horiz-adv-x="545" 
d="M150 70h75q86 0 145.5 59.5t59.5 145.5t-59.5 145.5t-145.5 59.5h-75v-410zM510 275q0 -113 -83 -194t-202 -81h-155v550h155q119 0 202 -81t83 -194z" />
    <glyph glyph-name="dcaron.smcp" horiz-adv-x="545" 
d="M150 70h75q86 0 145.5 59.5t59.5 145.5t-59.5 145.5t-145.5 59.5h-75v-410zM510 275q0 -113 -83 -194t-202 -81h-155v550h155q119 0 202 -81t83 -194zM385 735l-90 -120h-70l-90 120h75l50 -70l50 70h75z" />
    <glyph glyph-name="dcroat.smcp" horiz-adv-x="560" 
d="M525 275q0 -113 -83 -194t-202 -81h-155v235h-70v70h70v245h155q119 0 202 -81t83 -194zM165 70h75q86 0 145.5 59.5t59.5 145.5t-59.5 145.5t-145.5 59.5h-75v-175h115v-70h-115v-165z" />
    <glyph glyph-name="eth.smcp" horiz-adv-x="560" 
d="M525 275q0 -113 -83 -194t-202 -81h-155v235h-70v70h70v245h155q119 0 202 -81t83 -194zM165 70h75q86 0 145.5 59.5t59.5 145.5t-59.5 145.5t-145.5 59.5h-75v-175h115v-70h-115v-165z" />
    <glyph glyph-name="e.smcp" horiz-adv-x="485" 
d="M150 70h295v-70h-375v550h365v-70h-285v-160h265v-70h-265v-180z" />
    <glyph glyph-name="eacute.smcp" horiz-adv-x="485" 
d="M150 70h295v-70h-375v550h365v-70h-285v-160h265v-70h-265v-180zM225 620l60 120h75l-85 -120h-50z" />
    <glyph glyph-name="ecaron.smcp" horiz-adv-x="485" 
d="M150 70h295v-70h-375v550h365v-70h-285v-160h265v-70h-265v-180zM375 735l-90 -120h-70l-90 120h75l50 -70l50 70h75z" />
    <glyph glyph-name="ecircumflex.smcp" horiz-adv-x="485" 
d="M150 70h295v-70h-375v550h365v-70h-285v-160h265v-70h-265v-180zM285 735l90 -120h-75l-50 70l-50 -70h-75l90 120h70z" />
    <glyph glyph-name="edieresis.smcp" horiz-adv-x="485" 
d="M150 70h295v-70h-375v550h365v-70h-285v-160h265v-70h-265v-180zM175 645q-19 0 -32 13t-13 32t13 32t32 13t32 -13t13 -32t-13 -32t-32 -13zM325 645q-19 0 -32 13t-13 32t13 32t32 13t32 -13t13 -32t-13 -32t-32 -13z" />
    <glyph glyph-name="edotaccent.smcp" horiz-adv-x="485" 
d="M150 70h295v-70h-375v550h365v-70h-285v-160h265v-70h-265v-180zM200 687q0 21 13.5 34.5t33.5 13.5q21 0 34.5 -13.5t13.5 -34.5q0 -20 -13.5 -33.5t-34.5 -13.5q-20 0 -33.5 13.5t-13.5 33.5z" />
    <glyph glyph-name="egrave.smcp" horiz-adv-x="485" 
d="M150 70h295v-70h-375v550h365v-70h-285v-160h265v-70h-265v-180zM230 740l60 -120h-50l-85 120h75z" />
    <glyph glyph-name="emacron.smcp" horiz-adv-x="485" 
d="M150 70h295v-70h-375v550h365v-70h-285v-160h265v-70h-265v-180zM375 705v-60h-240v60h240z" />
    <glyph glyph-name="eogonek.smcp" horiz-adv-x="485" 
d="M395 0h-325v550h365v-70h-285v-160h265v-70h-265v-180h295v-70q-35 -40 -35 -85q0 -19 13 -32t32 -13l40 5v-40q-20 -5 -40 -5q-44 0 -69.5 23.5t-25.5 61.5q0 20 9 41.5t17 32.5z" />
    <glyph glyph-name="f.smcp" horiz-adv-x="450" 
d="M150 0h-80v550h360v-70h-280v-175h230v-70h-230v-235z" />
    <glyph glyph-name="g.smcp" horiz-adv-x="615" 
d="M315 210v70h240v-280h-50l-15 80q-2 -3 -6.5 -9t-21.5 -20.5t-37 -26t-53.5 -20.5t-71.5 -9q-106 0 -185.5 82.5t-79.5 197.5t80 197.5t190 82.5q96 0 158 -49.5t82 -125.5h-80q-16 47 -57.5 76t-102.5 29q-77 0 -133.5 -61t-56.5 -149t56.5 -149t133.5 -61
q69 0 117.5 43.5t52.5 101.5h-160z" />
    <glyph glyph-name="gbreve.smcp" horiz-adv-x="615" 
d="M315 210v70h240v-280h-50l-15 80q-2 -3 -6.5 -9t-21.5 -20.5t-37 -26t-53.5 -20.5t-71.5 -9q-106 0 -185.5 82.5t-79.5 197.5t80 197.5t190 82.5q96 0 158 -49.5t82 -125.5h-80q-16 47 -57.5 76t-102.5 29q-77 0 -133.5 -61t-56.5 -149t56.5 -149t133.5 -61
q69 0 117.5 43.5t52.5 101.5h-160zM295 625q-47 0 -79.5 31.5t-40.5 78.5h60q4 -26 20.5 -43t39.5 -17t39.5 17t20.5 43h60q-8 -47 -40.5 -78.5t-79.5 -31.5z" />
    <glyph glyph-name="gcommaaccent.smcp" horiz-adv-x="615" 
d="M315 210v70h240v-280h-50l-15 80q-2 -3 -6.5 -9t-21.5 -20.5t-37 -26t-53.5 -20.5t-71.5 -9q-106 0 -185.5 82.5t-79.5 197.5t80 197.5t190 82.5q96 0 158 -49.5t82 -125.5h-80q-16 47 -57.5 76t-102.5 29q-77 0 -133.5 -61t-56.5 -149t56.5 -149t133.5 -61
q69 0 117.5 43.5t52.5 101.5h-160zM263 -115q0 21 14.5 35.5t35.5 14.5t35.5 -14.5t14.5 -35.5q0 -27 -7.5 -51t-18.5 -39.5t-22.5 -27.5t-18.5 -17l-8 -5l-15 20q35 30 40 70q-21 0 -35.5 14.5t-14.5 35.5z" />
    <glyph glyph-name="h.smcp" horiz-adv-x="565" 
d="M70 550h80v-230h265v230h80v-550h-80v250h-265v-250h-80v550z" />
    <glyph glyph-name="i.smcp" horiz-adv-x="220" 
d="M150 550v-550h-80v550h80z" />
    <glyph glyph-name="iacute.smcp" horiz-adv-x="220" 
d="M150 550v-550h-80v550h80zM85 620l60 120h75l-85 -120h-50z" />
    <glyph glyph-name="icircumflex.smcp" horiz-adv-x="220" 
d="M150 550v-550h-80v550h80zM145 735l90 -120h-75l-50 70l-50 -70h-75l90 120h70z" />
    <glyph glyph-name="idieresis.smcp" horiz-adv-x="220" 
d="M150 550v-550h-80v550h80zM35 645q-19 0 -32 13t-13 32t13 32t32 13t32 -13t13 -32t-13 -32t-32 -13zM185 645q-19 0 -32 13t-13 32t13 32t32 13t32 -13t13 -32t-13 -32t-32 -13z" />
    <glyph glyph-name="igrave.smcp" horiz-adv-x="220" 
d="M150 550v-550h-80v550h80zM75 740l60 -120h-50l-85 120h75z" />
    <glyph glyph-name="dotlessi.smcp" horiz-adv-x="220" 
d="M150 550v-550h-80v550h80zM63 687q0 21 13.5 34.5t33.5 13.5q21 0 34.5 -13.5t13.5 -34.5q0 -20 -13.5 -33.5t-34.5 -13.5q-20 0 -33.5 13.5t-13.5 33.5z" />
    <glyph glyph-name="imacron.smcp" horiz-adv-x="220" 
d="M150 550v-550h-80v550h80zM230 705v-60h-240v60h240z" />
    <glyph glyph-name="iogonek.smcp" horiz-adv-x="220" 
d="M70 0v550h80v-550h-30q-35 -40 -35 -85q0 -19 13 -32t32 -13l40 5v-40q-20 -5 -40 -5q-44 0 -69.5 23.5t-25.5 61.5q0 20 8.5 41.5t17.5 32.5z" />
    <glyph glyph-name="j.smcp" horiz-adv-x="445" 
d="M300 550h80v-365q0 -86 -51 -138t-134 -52q-81 0 -133 48t-52 117h80q0 -42 28.5 -68.5t76.5 -26.5q50 0 77.5 30.5t27.5 89.5v365z" />
    <glyph glyph-name="k.smcp" horiz-adv-x="470" 
d="M380 0l-230 280v-280h-80v550h80v-270l220 270h95l-225 -270l240 -280h-100z" />
    <glyph glyph-name="kcommaaccent.smcp" horiz-adv-x="470" 
d="M380 0l-230 280v-280h-80v550h80v-270l220 270h95l-225 -270l240 -280h-100zM195 -115q0 21 14.5 35.5t35.5 14.5t35.5 -14.5t14.5 -35.5q0 -27 -7.5 -51t-18.5 -39.5t-22.5 -27.5t-18.5 -17l-8 -5l-15 20q35 30 40 70q-21 0 -35.5 14.5t-14.5 35.5z" />
    <glyph glyph-name="l.smcp" horiz-adv-x="440" 
d="M150 70h275v-70h-355v550h80v-480z" />
    <glyph glyph-name="lacute.smcp" horiz-adv-x="440" 
d="M150 70h275v-70h-355v550h80v-480zM85 620l60 120h75l-85 -120h-50z" />
    <glyph glyph-name="lcaron.smcp" horiz-adv-x="440" 
d="M200 420l50 130h80l-80 -130h-50zM150 70h275v-70h-355v550h80v-480z" />
    <glyph glyph-name="lcommaaccent.smcp" horiz-adv-x="440" 
d="M150 70h275v-70h-355v550h80v-480zM200 -115q0 21 14.5 35.5t35.5 14.5t35.5 -14.5t14.5 -35.5q0 -42 -19 -77t-37 -49l-19 -14l-15 20q35 30 40 70q-21 0 -35.5 14.5t-14.5 35.5z" />
    <glyph glyph-name="lslash.smcp" horiz-adv-x="450" 
d="M15 130v75l65 40v305h80v-260l135 80v-75l-135 -80v-145h275v-70h-355v170z" />
    <glyph glyph-name="m.smcp" horiz-adv-x="700" 
d="M550 390l-175 -390h-50l-175 390v-390h-80v550h90l190 -425l190 425h90v-550h-80v390z" />
    <glyph glyph-name="n.smcp" horiz-adv-x="575" 
d="M425 550h80v-550h-75l-280 410v-410h-80v550h75l280 -410v410z" />
    <glyph glyph-name="nacute.smcp" horiz-adv-x="575" 
d="M425 550h80v-550h-75l-280 410v-410h-80v550h75l280 -410v410zM250 620l60 120h75l-85 -120h-50z" />
    <glyph glyph-name="ncaron.smcp" horiz-adv-x="575" 
d="M425 550h80v-550h-75l-280 410v-410h-80v550h75l280 -410v410zM410 735l-90 -120h-70l-90 120h75l50 -70l50 70h75z" />
    <glyph glyph-name="ncommaaccent.smcp" horiz-adv-x="575" 
d="M425 550h80v-550h-75l-280 410v-410h-80v550h75l280 -410v410zM240 -115q0 21 14.5 35.5t35.5 14.5t35.5 -14.5t14.5 -35.5q0 -42 -19 -77t-37 -49l-19 -14l-15 20q35 30 40 70q-21 0 -35.5 14.5t-14.5 35.5z" />
    <glyph glyph-name="ntilde.smcp" horiz-adv-x="575" 
d="M425 550h80v-550h-75l-280 410v-410h-80v550h75l280 -410v410zM340 675q16 0 28 16t12 44h45q0 -54 -24.5 -84.5t-60.5 -30.5q-20 0 -37.5 10t-27 22.5t-22 22.5t-23.5 10q-16 0 -28 -16t-12 -44h-45q0 54 24.5 84.5t60.5 30.5q20 0 37.5 -10t27 -22.5t22 -22.5t23.5 -10
z" />
    <glyph glyph-name="o.smcp" horiz-adv-x="610" 
d="M115 275q0 -89 56.5 -149.5t133.5 -60.5t133.5 60.5t56.5 149.5t-56.5 149.5t-133.5 60.5t-133.5 -60.5t-56.5 -149.5zM575 275q0 -115 -80 -197.5t-190 -82.5t-190 82.5t-80 197.5t80 197.5t190 82.5t190 -82.5t80 -197.5z" />
    <glyph glyph-name="oacute.smcp" horiz-adv-x="610" 
d="M115 275q0 -89 56.5 -149.5t133.5 -60.5t133.5 60.5t56.5 149.5t-56.5 149.5t-133.5 60.5t-133.5 -60.5t-56.5 -149.5zM575 275q0 -115 -80 -197.5t-190 -82.5t-190 82.5t-80 197.5t80 197.5t190 82.5t190 -82.5t80 -197.5zM275 620l60 120h75l-85 -120h-50z" />
    <glyph glyph-name="ocircumflex.smcp" horiz-adv-x="610" 
d="M115 275q0 -89 56.5 -149.5t133.5 -60.5t133.5 60.5t56.5 149.5t-56.5 149.5t-133.5 60.5t-133.5 -60.5t-56.5 -149.5zM575 275q0 -115 -80 -197.5t-190 -82.5t-190 82.5t-80 197.5t80 197.5t190 82.5t190 -82.5t80 -197.5zM340 735l90 -120h-75l-50 70l-50 -70h-75
l90 120h70z" />
    <glyph glyph-name="odieresis.smcp" horiz-adv-x="610" 
d="M115 275q0 -89 56.5 -149.5t133.5 -60.5t133.5 60.5t56.5 149.5t-56.5 149.5t-133.5 60.5t-133.5 -60.5t-56.5 -149.5zM575 275q0 -115 -80 -197.5t-190 -82.5t-190 82.5t-80 197.5t80 197.5t190 82.5t190 -82.5t80 -197.5zM230 645q-19 0 -32 13t-13 32t13 32t32 13
t32 -13t13 -32t-13 -32t-32 -13zM380 645q-19 0 -32 13t-13 32t13 32t32 13t32 -13t13 -32t-13 -32t-32 -13z" />
    <glyph glyph-name="ograve.smcp" horiz-adv-x="610" 
d="M115 275q0 -89 56.5 -149.5t133.5 -60.5t133.5 60.5t56.5 149.5t-56.5 149.5t-133.5 60.5t-133.5 -60.5t-56.5 -149.5zM575 275q0 -115 -80 -197.5t-190 -82.5t-190 82.5t-80 197.5t80 197.5t190 82.5t190 -82.5t80 -197.5zM275 740l60 -120h-50l-85 120h75z" />
    <glyph glyph-name="ohungarumlaut.smcp" horiz-adv-x="610" 
d="M115 275q0 -89 56.5 -149.5t133.5 -60.5t133.5 60.5t56.5 149.5t-56.5 149.5t-133.5 60.5t-133.5 -60.5t-56.5 -149.5zM575 275q0 -115 -80 -197.5t-190 -82.5t-190 82.5t-80 197.5t80 197.5t190 82.5t190 -82.5t80 -197.5zM215 620l65 120h75l-90 -120h-50zM355 620
l65 120h75l-90 -120h-50z" />
    <glyph glyph-name="omacron.smcp" horiz-adv-x="610" 
d="M115 275q0 -89 56.5 -149.5t133.5 -60.5t133.5 60.5t56.5 149.5t-56.5 149.5t-133.5 60.5t-133.5 -60.5t-56.5 -149.5zM575 275q0 -115 -80 -197.5t-190 -82.5t-190 82.5t-80 197.5t80 197.5t190 82.5t190 -82.5t80 -197.5zM425 705v-60h-240v60h240z" />
    <glyph glyph-name="oslash.smcp" horiz-adv-x="610" 
d="M575 275q0 -115 -80 -197.5t-190 -82.5q-97 0 -174 67l-51 -47l-55 55l55 51q-45 71 -45 154q0 115 80 197.5t190 82.5q96 0 173 -67l52 47l55 -55l-56 -51q46 -70 46 -154zM495 275q0 55 -23 101l-287 -264q53 -47 120 -47q77 0 133.5 60.5t56.5 149.5zM115 275
q0 -57 23 -101l286 264q-53 47 -119 47q-77 0 -133.5 -60.5t-56.5 -149.5z" />
    <glyph glyph-name="otilde.smcp" horiz-adv-x="610" 
d="M115 275q0 -89 56.5 -149.5t133.5 -60.5t133.5 60.5t56.5 149.5t-56.5 149.5t-133.5 60.5t-133.5 -60.5t-56.5 -149.5zM575 275q0 -115 -80 -197.5t-190 -82.5t-190 82.5t-80 197.5t80 197.5t190 82.5t190 -82.5t80 -197.5zM360 675q16 0 28 16t12 44h45
q0 -54 -24.5 -84.5t-60.5 -30.5q-20 0 -37.5 10t-27 22.5t-22 22.5t-23.5 10q-16 0 -28 -16t-12 -44h-45q0 54 24.5 84.5t60.5 30.5q20 0 37.5 -10t27 -22.5t22 -22.5t23.5 -10z" />
    <glyph glyph-name="oe.smcp" horiz-adv-x="770" 
d="M455 70h275v-70h-405q-126 0 -208 79t-82 196t82 196t208 79h395v-70h-265v-160h245v-70h-245v-180zM325 70h50v410h-50q-93 0 -151.5 -57.5t-58.5 -147.5t58.5 -147.5t151.5 -57.5z" />
    <glyph glyph-name="p.smcp" 
d="M70 550h200q81 0 135.5 -51.5t54.5 -123.5t-54.5 -123.5t-135.5 -51.5h-120v-200h-80v550zM150 270h120q48 0 79 30t31 75t-31 75t-79 30h-120v-210z" />
    <glyph glyph-name="q.smcp" horiz-adv-x="610" 
d="M575 275q0 -101 -65 -181l75 -74l-50 -50l-76 76q-68 -51 -154 -51q-110 0 -190 82.5t-80 197.5t80 197.5t190 82.5t190 -82.5t80 -197.5zM115 275q0 -89 56.5 -149.5t133.5 -60.5q55 0 102 33l-67 67l50 50l66 -67q39 57 39 127q0 89 -56.5 149.5t-133.5 60.5
t-133.5 -60.5t-56.5 -149.5z" />
    <glyph glyph-name="r.smcp" horiz-adv-x="515" 
d="M150 480v-200h135q48 0 76.5 27.5t28.5 72.5t-28.5 72.5t-76.5 27.5h-135zM355 225l140 -225h-90l-130 210h-125v-210h-80v550h215q81 0 133 -49t52 -121q0 -35 -12 -64t-29 -45t-33.5 -27t-28.5 -15z" />
    <glyph glyph-name="racute.smcp" horiz-adv-x="515" 
d="M150 480v-200h135q48 0 76.5 27.5t28.5 72.5t-28.5 72.5t-76.5 27.5h-135zM355 225l140 -225h-90l-130 210h-125v-210h-80v550h215q81 0 133 -49t52 -121q0 -35 -12 -64t-29 -45t-33.5 -27t-28.5 -15zM225 620l60 120h75l-85 -120h-50z" />
    <glyph glyph-name="rcaron.smcp" horiz-adv-x="515" 
d="M150 480v-200h135q48 0 76.5 27.5t28.5 72.5t-28.5 72.5t-76.5 27.5h-135zM355 225l140 -225h-90l-130 210h-125v-210h-80v550h215q81 0 133 -49t52 -121q0 -35 -12 -64t-29 -45t-33.5 -27t-28.5 -15zM375 735l-90 -120h-70l-90 120h75l50 -70l50 70h75z" />
    <glyph glyph-name="rcommaaccent.smcp" horiz-adv-x="515" 
d="M150 480v-200h135q48 0 76.5 27.5t28.5 72.5t-28.5 72.5t-76.5 27.5h-135zM355 225l140 -225h-90l-130 210h-125v-210h-80v550h215q81 0 133 -49t52 -121q0 -35 -12 -64t-29 -45t-33.5 -27t-28.5 -15zM213 -115q0 21 14.5 35.5t35.5 14.5t35.5 -14.5t14.5 -35.5
q0 -27 -7.5 -51t-18.5 -39.5t-22.5 -27.5t-18.5 -17l-8 -5l-15 20q35 30 40 70q-21 0 -35.5 14.5t-14.5 35.5z" />
    <glyph glyph-name="s.smcp" horiz-adv-x="460" 
d="M50 405q0 62 50 106t130 44q84 0 135 -45t55 -115h-80q-4 39 -33.5 64.5t-76.5 25.5q-43 0 -71.5 -24.5t-28.5 -55.5q0 -33 31 -52t75 -29.5t88 -25.5t75 -50.5t31 -92.5q0 -70 -51 -115t-139 -45q-91 0 -144 46.5t-61 123.5h80q17 -100 125 -100q51 0 80.5 25.5
t29.5 64.5q0 37 -31 58.5t-75 32.5t-88 25t-75 47t-31 87z" />
    <glyph glyph-name="sacute.smcp" horiz-adv-x="460" 
d="M50 405q0 62 50 106t130 44q84 0 135 -45t55 -115h-80q-4 39 -33.5 64.5t-76.5 25.5q-43 0 -71.5 -24.5t-28.5 -55.5q0 -33 31 -52t75 -29.5t88 -25.5t75 -50.5t31 -92.5q0 -70 -51 -115t-139 -45q-91 0 -144 46.5t-61 123.5h80q17 -100 125 -100q51 0 80.5 25.5
t29.5 64.5q0 37 -31 58.5t-75 32.5t-88 25t-75 47t-31 87zM206 620l60 120h75l-85 -120h-50z" />
    <glyph glyph-name="scaron.smcp" horiz-adv-x="460" 
d="M50 405q0 62 50 106t130 44q84 0 135 -45t55 -115h-80q-4 39 -33.5 64.5t-76.5 25.5q-43 0 -71.5 -24.5t-28.5 -55.5q0 -33 31 -52t75 -29.5t88 -25.5t75 -50.5t31 -92.5q0 -70 -51 -115t-139 -45q-91 0 -144 46.5t-61 123.5h80q17 -100 125 -100q51 0 80.5 25.5
t29.5 64.5q0 37 -31 58.5t-75 32.5t-88 25t-75 47t-31 87zM361 735l-90 -120h-70l-90 120h75l50 -70l50 70h75z" />
    <glyph glyph-name="scedilla.smcp" horiz-adv-x="460" 
d="M50 405q0 62 50 106t130 44q84 0 135 -45t55 -115h-80q-4 39 -33.5 64.5t-76.5 25.5q-43 0 -71.5 -24.5t-28.5 -55.5q0 -33 31 -52t75 -29.5t88 -25.5t75 -50.5t31 -92.5q0 -66 -46 -110.5t-126 -48.5l-18 -36q30 -4 47.5 -21.5t17.5 -43.5q0 -28 -23.5 -46.5
t-66.5 -18.5l-45 5v40q20 -5 40 -5q21 0 33 9t12 21t-12 21t-33 9l-25 -5l29 71q-80 7 -126 52t-53 117h80q17 -100 125 -100q51 0 80.5 25.5t29.5 64.5q0 37 -31 58.5t-75 32.5t-88 25t-75 47t-31 87z" />
    <glyph glyph-name="scommaaccent.smcp" horiz-adv-x="460" 
d="M50 405q0 62 50 106t130 44q84 0 135 -45t55 -115h-80q-4 39 -33.5 64.5t-76.5 25.5q-43 0 -71.5 -24.5t-28.5 -55.5q0 -33 31 -52t75 -29.5t88 -25.5t75 -50.5t31 -92.5q0 -70 -51 -115t-139 -45q-91 0 -144 46.5t-61 123.5h80q17 -100 125 -100q51 0 80.5 25.5
t29.5 64.5q0 37 -31 58.5t-75 32.5t-88 25t-75 47t-31 87zM187 -115q0 21 14.5 35.5t35.5 14.5t35.5 -14.5t14.5 -35.5q0 -27 -7.5 -51t-18.5 -39.5t-22.5 -27.5t-18.5 -17l-8 -5l-15 20q35 30 40 70q-21 0 -35.5 14.5t-14.5 35.5z" />
    <glyph glyph-name="t.smcp" horiz-adv-x="460" 
d="M15 480v70h430v-70h-175v-480h-80v480h-175z" />
    <glyph glyph-name="tcaron.smcp" horiz-adv-x="460" 
d="M15 480v70h430v-70h-175v-480h-80v480h-175zM355 735l-90 -120h-70l-90 120h75l50 -70l50 70h75z" />
    <glyph glyph-name="tcommaaccent.smcp" horiz-adv-x="460" 
d="M15 480v70h430v-70h-175v-480h-80v480h-175zM180 -115q0 21 14.5 35.5t35.5 14.5t35.5 -14.5t14.5 -35.5q0 -42 -19 -77t-37 -49l-19 -14l-15 20q35 30 40 70q-21 0 -35.5 14.5t-14.5 35.5z" />
    <glyph glyph-name="uni021B.smcp" horiz-adv-x="460" 
d="M15 480v70h430v-70h-175v-480h-80v480h-175zM180 -115q0 21 14.5 35.5t35.5 14.5t35.5 -14.5t14.5 -35.5q0 -42 -19 -77t-37 -49l-19 -14l-15 20q35 30 40 70q-21 0 -35.5 14.5t-14.5 35.5z" />
    <glyph glyph-name="u.smcp" horiz-adv-x="570" 
d="M285 -5q-98 0 -159 61.5t-61 161.5v332h80v-332q0 -73 37.5 -113t102.5 -40t102.5 40t37.5 113v332h80v-332q0 -100 -61 -161.5t-159 -61.5z" />
    <glyph glyph-name="uacute.smcp" horiz-adv-x="570" 
d="M285 -5q-98 0 -159 61.5t-61 161.5v332h80v-332q0 -73 37.5 -113t102.5 -40t102.5 40t37.5 113v332h80v-332q0 -100 -61 -161.5t-159 -61.5zM245 620l60 120h75l-85 -120h-50z" />
    <glyph glyph-name="ucircumflex.smcp" horiz-adv-x="570" 
d="M285 -5q-98 0 -159 61.5t-61 161.5v332h80v-332q0 -73 37.5 -113t102.5 -40t102.5 40t37.5 113v332h80v-332q0 -100 -61 -161.5t-159 -61.5zM320 735l90 -120h-75l-50 70l-50 -70h-75l90 120h70z" />
    <glyph glyph-name="udieresis.smcp" horiz-adv-x="570" 
d="M285 -5q-98 0 -159 61.5t-61 161.5v332h80v-332q0 -73 37.5 -113t102.5 -40t102.5 40t37.5 113v332h80v-332q0 -100 -61 -161.5t-159 -61.5zM210 645q-19 0 -32 13t-13 32t13 32t32 13t32 -13t13 -32t-13 -32t-32 -13zM360 645q-19 0 -32 13t-13 32t13 32t32 13t32 -13
t13 -32t-13 -32t-32 -13z" />
    <glyph glyph-name="ugrave.smcp" horiz-adv-x="570" 
d="M285 -5q-98 0 -159 61.5t-61 161.5v332h80v-332q0 -73 37.5 -113t102.5 -40t102.5 40t37.5 113v332h80v-332q0 -100 -61 -161.5t-159 -61.5zM265 740l60 -120h-50l-85 120h75z" />
    <glyph glyph-name="uhungarumlaut.smcp" horiz-adv-x="570" 
d="M285 -5q-98 0 -159 61.5t-61 161.5v332h80v-332q0 -73 37.5 -113t102.5 -40t102.5 40t37.5 113v332h80v-332q0 -100 -61 -161.5t-159 -61.5zM185 620l65 120h75l-90 -120h-50zM325 620l65 120h75l-90 -120h-50z" />
    <glyph glyph-name="umacron.smcp" horiz-adv-x="570" 
d="M285 -5q-98 0 -159 61.5t-61 161.5v332h80v-332q0 -73 37.5 -113t102.5 -40t102.5 40t37.5 113v332h80v-332q0 -100 -61 -161.5t-159 -61.5zM405 710v-60h-240v60h240z" />
    <glyph glyph-name="uogonek.smcp" horiz-adv-x="570" 
d="M505 218q0 -91 -51.5 -150.5t-136.5 -70.5q-32 -41 -32 -82q0 -19 13 -32t32 -13l40 5v-40q-20 -5 -40 -5q-44 0 -69.5 23.5t-25.5 61.5q0 40 31 81q-90 6 -145.5 66.5t-55.5 155.5v332h80v-332q0 -73 37.5 -113t102.5 -40t102.5 40t37.5 113v332h80v-332z" />
    <glyph glyph-name="uring.smcp" horiz-adv-x="570" 
d="M285 -5q-98 0 -159 61.5t-61 161.5v332h80v-332q0 -73 37.5 -113t102.5 -40t102.5 40t37.5 113v332h80v-332q0 -100 -61 -161.5t-159 -61.5zM250 690q0 -15 10 -25t25 -10t25 10t10 25t-10 25t-25 10t-25 -10t-10 -25zM365 690q0 -34 -23 -57t-57 -23t-57 23t-23 57
t23 57t57 23t57 -23t23 -57z" />
    <glyph glyph-name="v.smcp" horiz-adv-x="510" 
d="M300 0h-90l-200 550h85l160 -455l160 455h85z" />
    <glyph glyph-name="w.smcp" horiz-adv-x="740" 
d="M335 550h70l125 -430l115 430h85l-160 -550h-75l-125 430l-125 -430h-75l-160 550h85l115 -430z" />
    <glyph glyph-name="x.smcp" horiz-adv-x="480" 
d="M380 0l-140 225l-140 -225h-95l185 280l-175 270h95l130 -215l130 215h95l-175 -270l185 -280h-95z" />
    <glyph glyph-name="y.smcp" horiz-adv-x="500" 
d="M485 550l-195 -335v-215h-80v215l-195 335h95l140 -260l140 260h95z" />
    <glyph glyph-name="yacute.smcp" horiz-adv-x="500" 
d="M485 550l-195 -335v-215h-80v215l-195 335h95l140 -260l140 260h95zM225 620l60 120h75l-85 -120h-50z" />
    <glyph glyph-name="ydieresis.smcp" horiz-adv-x="500" 
d="M485 550l-195 -335v-215h-80v215l-195 335h95l140 -260l140 260h95zM175 645q-19 0 -32 13t-13 32t13 32t32 13t32 -13t13 -32t-13 -32t-32 -13zM325 645q-19 0 -32 13t-13 32t13 32t32 13t32 -13t13 -32t-13 -32t-32 -13z" />
    <glyph glyph-name="z.smcp" horiz-adv-x="460" 
d="M45 480v70h375v-60l-290 -420h300v-70h-400v55l290 425h-275z" />
    <glyph glyph-name="zacute.smcp" horiz-adv-x="460" 
d="M45 480v70h375v-60l-290 -420h300v-70h-400v55l290 425h-275zM205 620l60 120h75l-85 -120h-50z" />
    <glyph glyph-name="zcaron.smcp" horiz-adv-x="460" 
d="M45 480v70h375v-60l-290 -420h300v-70h-400v55l290 425h-275zM360 735l-90 -120h-70l-90 120h75l50 -70l50 70h75z" />
    <glyph glyph-name="zdotaccent.smcp" horiz-adv-x="460" 
d="M45 480v70h375v-60l-290 -420h300v-70h-400v55l290 425h-275zM190 687q0 21 13.5 34.5t33.5 13.5q21 0 34.5 -13.5t13.5 -34.5q0 -20 -13.5 -33.5t-34.5 -13.5q-20 0 -33.5 13.5t-13.5 33.5z" />
    <glyph glyph-name="thorn.smcp" horiz-adv-x="550" 
d="M70 550h80v-90h175q81 0 135.5 -51.5t54.5 -123.5t-54.5 -123.5t-135.5 -51.5h-175v-110h-80v550zM150 180h175q48 0 79 30t31 75t-31 75t-79 30h-175v-210z" />
    <glyph glyph-name="germandbls.smcp" horiz-adv-x="545" 
d="M480 490l-120 -165q68 -11 109 -54t41 -106q0 -68 -50.5 -116.5t-124.5 -48.5h-75v70h75q45 0 70 25t25 70q0 42 -25 66t-70 24h-60v65l110 160h-140q-45 0 -70 -26t-25 -74v-380h-80v380q0 72 50 121t125 49h235v-60z" />
    <glyph glyph-name="uni1E9E.smcp" horiz-adv-x="545" 
d="M480 490l-120 -165q68 -11 109 -54t41 -106q0 -68 -50.5 -116.5t-124.5 -48.5h-75v70h75q45 0 70 25t25 70q0 42 -25 66t-70 24h-60v65l110 160h-140q-45 0 -70 -26t-25 -74v-380h-80v380q0 72 50 121t125 49h235v-60z" />
    <glyph glyph-name="afii10065.smcp" horiz-adv-x="510" 
d="M380 130h-250l-45 -130h-85l210 550h90l210 -550h-85zM355 195l-100 275l-100 -275h200z" />
    <glyph glyph-name="afii10066.smcp" horiz-adv-x="505" 
d="M70 0v550h365v-70h-285v-140h145q74 0 127 -51t53 -119t-53 -119t-127 -51h-225zM295 270h-145v-200h145q41 0 70.5 29.5t29.5 70.5t-29.5 70.5t-70.5 29.5z" />
    <glyph glyph-name="afii10067.smcp" horiz-adv-x="515" 
d="M380 290q4 -1 11 -3.5t24 -12.5t30 -23.5t24 -39t11 -56.5q0 -65 -49 -110t-126 -45h-235v550h225q73 0 116.5 -39.5t43.5 -100.5q0 -25 -7.5 -46.5t-18.5 -34.5t-22.5 -22.5t-18.5 -12.5zM305 250h-155v-180h155q41 0 68 26t27 64t-27 64t-68 26zM150 480v-160h145
q34 0 57 23t23 57t-23 57t-57 23h-145z" />
    <glyph glyph-name="afii10068.smcp" horiz-adv-x="420" 
d="M410 480h-260v-480h-80v550h340v-70z" />
    <glyph glyph-name="afii10069.smcp" horiz-adv-x="555" 
d="M-10 -120v190h40q2 1 5.5 3.5t13 11.5t17 19.5t15 28t9.5 37.5l45 380h335v-480h65v-190h-80v120h-385v-120h-80zM205 480l-35 -310q-4 -31 -15 -56t-21 -34l-9 -10h265v410h-185z" />
    <glyph glyph-name="afii10070.smcp" horiz-adv-x="485" 
d="M150 70h295v-70h-375v550h365v-70h-285v-160h265v-70h-265v-180z" />
    <glyph glyph-name="afii10071.smcp" horiz-adv-x="485" 
d="M150 70h295v-70h-375v550h365v-70h-285v-160h265v-70h-265v-180zM175 645q-19 0 -32 13t-13 32t13 32t32 13t32 -13t13 -32t-13 -32t-32 -13zM325 645q-19 0 -32 13t-13 32t13 32t32 13t32 -13t13 -32t-13 -32t-32 -13z" />
    <glyph glyph-name="afii10072.smcp" horiz-adv-x="680" 
d="M380 0h-80v280l-210 -280h-100l220 280l-205 270h95l200 -270v270h80v-270l200 270h95l-205 -270l220 -280h-100l-210 280v-280z" />
    <glyph glyph-name="afii10073.smcp" horiz-adv-x="470" 
d="M120 400h-80q12 67 63.5 111t130.5 44q84 0 135 -44t51 -106q0 -27 -9.5 -49.5t-22.5 -35t-26 -21t-22 -11.5l-10 -3q4 -1 11 -3.5t25.5 -12.5t32 -23.5t25 -39t11.5 -56.5q0 -63 -55 -109t-145 -46q-87 0 -142 47.5t-63 117.5h80q8 -40 41.5 -67.5t83.5 -27.5
q54 0 87 27t33 63t-33 63t-87 27h-55v70h55q47 0 76 25t29 60t-29 60t-76 25q-46 0 -76.5 -24.5t-38.5 -60.5z" />
    <glyph glyph-name="afii10074.smcp" horiz-adv-x="575" 
d="M505 0h-80v420l-285 -420h-70v550h80v-420l285 420h70v-550z" />
    <glyph glyph-name="afii10075.smcp" horiz-adv-x="575" 
d="M505 0h-80v420l-285 -420h-70v550h80v-420l285 420h70v-550zM285 620q-51 0 -84 30t-41 80h60q4 -27 21.5 -43.5t43.5 -16.5t43.5 16.5t21.5 43.5h60q-8 -50 -41 -80t-84 -30z" />
    <glyph glyph-name="afii10076.smcp" horiz-adv-x="470" 
d="M380 0l-230 280v-280h-80v550h80v-270l220 270h95l-225 -270l240 -280h-100z" />
    <glyph glyph-name="afii10077.smcp" horiz-adv-x="555" 
d="M135 550h350v-550h-80v480h-195l-25 -305q-7 -87 -47 -133.5t-98 -46.5l-45 5v65h25q35 0 58 28t27 82z" />
    <glyph glyph-name="afii10078.smcp" horiz-adv-x="700" 
d="M550 390l-175 -390h-50l-175 390v-390h-80v550h90l190 -425l190 425h90v-550h-80v390z" />
    <glyph glyph-name="afii10079.smcp" horiz-adv-x="565" 
d="M70 550h80v-230h265v230h80v-550h-80v250h-265v-250h-80v550z" />
    <glyph glyph-name="afii10080.smcp" horiz-adv-x="610" 
d="M115 275q0 -89 56.5 -149.5t133.5 -60.5t133.5 60.5t56.5 149.5t-56.5 149.5t-133.5 60.5t-133.5 -60.5t-56.5 -149.5zM575 275q0 -115 -80 -197.5t-190 -82.5t-190 82.5t-80 197.5t80 197.5t190 82.5t190 -82.5t80 -197.5z" />
    <glyph glyph-name="afii10081.smcp" horiz-adv-x="565" 
d="M70 550h425v-550h-80v480h-265v-480h-80v550z" />
    <glyph glyph-name="afii10082.smcp" 
d="M70 550h200q81 0 135.5 -51.5t54.5 -123.5t-54.5 -123.5t-135.5 -51.5h-120v-200h-80v550zM150 270h120q48 0 79 30t31 75t-31 75t-79 30h-120v-210z" />
    <glyph glyph-name="afii10083.smcp" horiz-adv-x="585" 
d="M305 485q-77 0 -133.5 -61t-56.5 -149t56.5 -149t133.5 -61q120 0 170 125h80q-20 -82 -88 -138.5t-162 -56.5q-110 0 -190 82.5t-80 197.5t80 197.5t190 82.5q97 0 161 -54.5t84 -140.5h-80q-20 56 -62 90.5t-103 34.5z" />
    <glyph glyph-name="afii10084.smcp" horiz-adv-x="460" 
d="M15 480v70h430v-70h-175v-480h-80v480h-175z" />
    <glyph glyph-name="afii10085.smcp" horiz-adv-x="475" 
d="M385 550h90l-195 -435q-29 -64 -66.5 -94.5t-98.5 -30.5q-13 0 -25.5 2.5t-18.5 5.5l-6 2v70q15 -10 50 -10q28 0 44 13t31 42l25 50l-205 385h90l155 -295h5z" />
    <glyph glyph-name="afii10086.smcp" horiz-adv-x="670" 
d="M295 130v300q-88 -4 -134 -44t-46 -106t46 -106t134 -44zM375 430v-300q88 4 134 44t46 106t-46 106t-134 44zM375 60v-65h-80v65q-121 4 -190.5 65.5t-69.5 154.5t69.5 154.5t190.5 65.5v60h80v-60q121 -4 190.5 -65.5t69.5 -154.5t-69.5 -154.5t-190.5 -65.5z" />
    <glyph glyph-name="afii10087.smcp" horiz-adv-x="480" 
d="M380 0l-140 225l-140 -225h-95l185 280l-175 270h95l130 -215l130 215h95l-175 -270l185 -280h-95z" />
    <glyph glyph-name="afii10088.smcp" horiz-adv-x="565" 
d="M400 550h80v-480h65v-190h-80v120h-395v550h80v-480h250v480z" />
    <glyph glyph-name="afii10089.smcp" horiz-adv-x="535" 
d="M385 550h80v-550h-80v210q-6 -5 -16.5 -12.5t-45.5 -20t-73 -12.5q-86 0 -138 52t-52 138v195h80v-195q0 -120 110 -120q40 0 74 12.5t48 24.5l13 13v265z" />
    <glyph glyph-name="afii10090.smcp" horiz-adv-x="770" 
d="M70 550h80v-480h195v480h80v-480h195v480h80v-550h-630v550z" />
    <glyph glyph-name="afii10091.smcp" horiz-adv-x="785" 
d="M70 550h80v-480h195v480h80v-480h195v480h80v-480h65v-190h-80v120h-615v550z" />
    <glyph glyph-name="afii10092.smcp" horiz-adv-x="535" 
d="M320 0h-190v480h-130v70h210v-200h110q81 0 135.5 -51.5t54.5 -123.5t-54.5 -123.5t-135.5 -51.5zM320 280h-110v-210h110q48 0 79 30t31 75t-31 75t-79 30z" />
    <glyph glyph-name="afii10093.smcp" horiz-adv-x="680" 
d="M530 0v550h80v-550h-80zM260 0h-190v550h80v-200h110q81 0 135.5 -51.5t54.5 -123.5t-54.5 -123.5t-135.5 -51.5zM260 280h-110v-210h110q48 0 79 30t31 75t-31 75t-79 30z" />
    <glyph glyph-name="afii10094.smcp" horiz-adv-x="485" 
d="M270 0h-200v550h80v-200h120q81 0 135.5 -51.5t54.5 -123.5t-54.5 -123.5t-135.5 -51.5zM270 280h-120v-210h120q48 0 79 30t31 75t-31 75t-79 30z" />
    <glyph glyph-name="afii10095.smcp" horiz-adv-x="580" 
d="M240 240v70h225q-8 69 -64 122t-126 53q-61 0 -103 -34.5t-62 -90.5h-80q20 86 84 140.5t161 54.5q110 0 190 -82.5t80 -197.5t-80 -197.5t-190 -82.5q-94 0 -162 56.5t-88 138.5h80q50 -125 170 -125q70 0 126 53t64 122h-225z" />
    <glyph glyph-name="afii10096.smcp" horiz-adv-x="780" 
d="M745 275q0 -122 -75 -201t-185 -79q-104 0 -176.5 69.5t-83.5 175.5h-75v-240h-80v550h80v-240h75q15 110 85.5 177.5t174.5 67.5q110 0 185 -79t75 -201zM665 275q0 95 -51.5 152.5t-128.5 57.5t-128.5 -57.5t-51.5 -152.5t51.5 -152.5t128.5 -57.5t128.5 57.5
t51.5 152.5z" />
    <glyph glyph-name="afii10097.smcp" horiz-adv-x="515" 
d="M365 280v200h-135q-48 0 -76.5 -27.5t-28.5 -72.5t28.5 -72.5t76.5 -27.5h135zM20 0l140 225q-5 1 -12.5 4t-27.5 15t-35 27.5t-27.5 44.5t-12.5 64q0 72 52 121t133 49h215v-550h-80v210h-125l-130 -210h-90z" />
    <glyph glyph-name="afii10098.smcp" horiz-adv-x="420" 
d="M410 480h-260v-480h-80v550h260v95h80v-165z" />
    <glyph glyph-name="afii10099.smcp" horiz-adv-x="580" 
d="M0 480v70h365v-70h-145v-190h5q1 3 3.5 7t13.5 15.5t24 20t37 15.5t52 7q75 0 130 -56t55 -134q0 -87 -61 -146.5t-154 -63.5v70q64 4 99.5 40.5t35.5 99.5q0 52 -33 86t-82 34q-56 0 -90.5 -33.5t-34.5 -86.5v-165h-80v480h-140z" />
    <glyph glyph-name="afii10100.smcp" horiz-adv-x="420" 
d="M410 480h-260v-480h-80v550h340v-70zM205 620l60 120h75l-85 -120h-50z" />
    <glyph glyph-name="afii10101.smcp" horiz-adv-x="585" 
d="M340 310v-70h-225q8 -69 64 -122t126 -53q120 0 170 125h80q-20 -82 -88 -138.5t-162 -56.5q-110 0 -190 82.5t-80 197.5t80 197.5t190 82.5q97 0 161 -54.5t84 -140.5h-80q-20 56 -62 90.5t-103 34.5q-70 0 -126 -53t-64 -122h225z" />
    <glyph glyph-name="afii10102.smcp" horiz-adv-x="460" 
d="M50 405q0 62 50 106t130 44q84 0 135 -45t55 -115h-80q-4 39 -33.5 64.5t-76.5 25.5q-43 0 -71.5 -24.5t-28.5 -55.5q0 -33 31 -52t75 -29.5t88 -25.5t75 -50.5t31 -92.5q0 -70 -51 -115t-139 -45q-91 0 -144 46.5t-61 123.5h80q17 -100 125 -100q51 0 80.5 25.5
t29.5 64.5q0 37 -31 58.5t-75 32.5t-88 25t-75 47t-31 87z" />
    <glyph glyph-name="afii10103.smcp" horiz-adv-x="220" 
d="M150 550v-550h-80v550h80z" />
    <glyph glyph-name="afii10104.smcp" horiz-adv-x="220" 
d="M150 550v-550h-80v550h80zM35 645q-19 0 -32 13t-13 32t13 32t32 13t32 -13t13 -32t-13 -32t-32 -13zM185 645q-19 0 -32 13t-13 32t13 32t32 13t32 -13t13 -32t-13 -32t-32 -13z" />
    <glyph glyph-name="afii10105.smcp" horiz-adv-x="445" 
d="M300 550h80v-365q0 -86 -51 -138t-134 -52q-81 0 -133 48t-52 117h80q0 -42 28.5 -68.5t76.5 -26.5q50 0 77.5 30.5t27.5 89.5v365z" />
    <glyph glyph-name="afii10106.smcp" horiz-adv-x="800" 
d="M585 0h-190v480h-185l-25 -305q-7 -87 -47 -133.5t-98 -46.5l-45 5v65h25q35 0 58 28t27 82l30 375h340v-200h110q81 0 135.5 -51.5t54.5 -123.5t-54.5 -123.5t-135.5 -51.5zM585 280h-110v-210h110q48 0 79 30t31 75t-31 75t-79 30z" />
    <glyph glyph-name="afii10107.smcp" horiz-adv-x="810" 
d="M595 0h-190v280h-255v-280h-80v550h80v-200h255v200h80v-200h110q81 0 135.5 -51.5t54.5 -123.5t-54.5 -123.5t-135.5 -51.5zM595 280h-110v-210h110q48 0 79 30t31 75t-31 75t-79 30z" />
    <glyph glyph-name="afii10108.smcp" horiz-adv-x="590" 
d="M0 480v70h365v-70h-145v-190h5q1 3 3.5 7t13.5 15.5t24 20t37 15.5t52 7q75 0 130 -55t55 -130v-170h-80v170q0 49 -33 82t-82 33q-56 0 -90.5 -33.5t-34.5 -86.5v-165h-80v480h-140z" />
    <glyph glyph-name="afii10109.smcp" horiz-adv-x="470" 
d="M380 0l-230 280v-280h-80v550h80v-270l220 270h95l-225 -270l240 -280h-100zM225 620l60 120h75l-85 -120h-50z" />
    <glyph glyph-name="afii10110.smcp" horiz-adv-x="475" 
d="M250 620q-47 0 -79.5 31.5t-40.5 78.5h60q4 -26 21 -43t39 -17t39 17t21 43h60q-8 -47 -40.5 -78.5t-79.5 -31.5zM385 550h90l-195 -435q-29 -64 -66.5 -94.5t-98.5 -30.5q-13 0 -25.5 2.5t-18.5 5.5l-6 2v70q15 -10 50 -10q28 0 44 13t31 42l25 50l-205 385h90l155 -295
h5z" />
    <glyph glyph-name="afii10193.smcp" horiz-adv-x="565" 
d="M415 550h80v-550h-170v-120h-85v120h-170v550h80v-480h265v480z" />
    <glyph glyph-name="dollar.smcp" horiz-adv-x="460" 
d="M50 405q0 54 38 95t102 52v83h80v-83q67 -11 106.5 -53.5t43.5 -103.5h-80q-4 39 -33.5 64.5t-76.5 25.5q-43 0 -71.5 -24.5t-28.5 -55.5q0 -33 31 -52t75 -29.5t88 -25.5t75 -50.5t31 -92.5q0 -63 -43 -107t-117 -51v-87h-80v89q-69 12 -109 56t-46 110h80
q17 -100 125 -100q51 0 80.5 25.5t29.5 64.5q0 37 -31 58.5t-75 32.5t-88 25t-75 47t-31 87z" />
    <glyph glyph-name="Euro.smcp" horiz-adv-x="630" 
d="M350 304h-188q-2 -8 -2 -29l2 -30h188v-56h-174q23 -56 70.5 -90t103.5 -34q120 0 170 125h80q-20 -82 -88 -138.5t-162 -56.5q-87 0 -158.5 54.5t-98.5 139.5h-68v56h56q-1 10 -1 30l1 29h-56v56h68q26 85 98 140t159 55q97 0 161 -54.5t84 -140.5h-80q-20 56 -62 90.5
t-103 34.5q-56 0 -103.5 -34.5t-70.5 -90.5h174v-56z" />
    <glyph glyph-name="currency.smcp" horiz-adv-x="500" 
d="M175 280h110q45 0 75 29t30 71t-30 71t-75 29h-110v-200zM470 380q0 -72 -52 -121t-133 -49h-110v-45h175v-70h-175v-95h-80v95h-75v70h75v45h-75v70h75v270h190q81 0 133 -49t52 -121z" />
    <glyph glyph-name="uni20BD.smcp" horiz-adv-x="500" 
d="M175 280h110q45 0 75 29t30 71t-30 71t-75 29h-110v-200zM470 380q0 -72 -52 -121t-133 -49h-110v-45h175v-70h-175v-95h-80v95h-75v70h75v45h-75v70h75v270h190q81 0 133 -49t52 -121z" />
    <glyph glyph-name="sterling.smcp" horiz-adv-x="455" 
d="M175 220v-90q0 -18 -7.5 -33t-15.5 -21l-7 -6h285v-70h-390v70q55 8 55 60v90h-55v70h55v95q0 75 47.5 122.5t122.5 47.5q70 0 116 -43t54 -112h-80q-15 85 -90 85q-38 0 -64 -28t-26 -72v-95h140v-70h-140z" />
    <glyph glyph-name="uni20B4.smcp" horiz-adv-x="470" 
d="M380 360h60v-60h-410v60h255q4 3 11 8t18 22t11 35q0 28 -23.5 46.5t-66.5 18.5t-69.5 -21.5t-30.5 -53.5h-75q4 59 51.5 99.5t123.5 40.5q79 0 124.5 -37.5t45.5 -92.5q0 -20 -6.5 -36.5t-12.5 -22.5zM90 190h-60v60h410v-60h-255q-4 -3 -11 -8t-18 -22t-11 -35
q0 -28 23.5 -46.5t66.5 -18.5t69.5 21.5t30.5 53.5h75q-4 -59 -51.5 -99.5t-123.5 -40.5q-79 0 -124.5 37.5t-45.5 92.5q0 20 6.5 36.5t12.5 22.5z" />
    <glyph glyph-name="yen.smcp" horiz-adv-x="500" 
d="M80 155h130v55h-130v70h92l-157 270h95l140 -260l140 260h95l-157 -270h92v-70h-130v-55h130v-70h-130v-85h-80v85h-130v70z" />
    <glyph glyph-name="ampersand.smcp" horiz-adv-x="510" 
d="M35 125q0 79 75 135l40 30l-25 25q-50 50 -50 110q0 53 40 91.5t100 38.5q63 0 104 -38t41 -92q0 -65 -60 -115l-35 -30l100 -100l50 75h95l-95 -130l135 -125h-115l-70 70l-8 -8t-21.5 -18t-35 -23t-47.5 -18t-58 -8q-73 0 -116.5 37.5t-43.5 92.5zM155 425
q0 -29 30 -65l30 -35l35 35q30 30 30 65q0 27 -17.5 43.5t-47.5 16.5q-26 0 -43 -17t-17 -43zM115 130q0 -27 22 -46t58 -19q31 0 61 15t44 30l15 15l-115 115l-35 -25q-50 -35 -50 -85z" />
    <glyph glyph-name="afii61352.smcp" horiz-adv-x="835" 
d="M420 550h80v-550h-75l-275 415v-415h-80v550h75l275 -415v415zM560 255q0 53 34 86.5t86 33.5t86 -33.5t34 -86.5t-34 -86.5t-86 -33.5t-86 33.5t-34 86.5zM565 25v60h230v-60h-230zM740 255q0 26 -17 43t-43 17t-43 -17t-17 -43t17 -43t43 -17t43 17t17 43z" />
    <glyph glyph-name="I.sc_alt" horiz-adv-x="320" 
d="M290 480h-90v-410h90v-70h-260v70h90v410h-90v70h260v-70z" />
    <glyph glyph-name="Iacute.sc_alt" horiz-adv-x="320" 
d="M290 480h-90v-410h90v-70h-260v70h90v410h-90v70h260v-70zM140 620l60 120h75l-85 -120h-50z" />
    <glyph glyph-name="Icircumflex.sc_alt" horiz-adv-x="320" 
d="M290 480h-90v-410h90v-70h-260v70h90v410h-90v70h260v-70zM195 735l90 -120h-75l-50 70l-50 -70h-75l90 120h70z" />
    <glyph glyph-name="Idieresis.sc_alt" horiz-adv-x="320" 
d="M290 480h-90v-410h90v-70h-260v70h90v410h-90v70h260v-70zM85 645q-19 0 -32 13t-13 32t13 32t32 13t32 -13t13 -32t-13 -32t-32 -13zM235 645q-19 0 -32 13t-13 32t13 32t32 13t32 -13t13 -32t-13 -32t-32 -13z" />
    <glyph glyph-name="Idotaccent.sc_alt" horiz-adv-x="320" 
d="M290 480h-90v-410h90v-70h-260v70h90v410h-90v70h260v-70zM113 687q0 21 13.5 34.5t33.5 13.5q21 0 34.5 -13.5t13.5 -34.5q0 -20 -13.5 -33.5t-34.5 -13.5q-20 0 -33.5 13.5t-13.5 33.5z" />
    <glyph glyph-name="Igrave.sc_alt" horiz-adv-x="320" 
d="M290 480h-90v-410h90v-70h-260v70h90v410h-90v70h260v-70zM130 740l60 -120h-50l-85 120h75z" />
    <glyph glyph-name="Imacron.sc_alt" horiz-adv-x="320" 
d="M290 480h-90v-410h90v-70h-260v70h90v410h-90v70h260v-70zM280 705v-60h-240v60h240z" />
    <glyph glyph-name="Iogonek.sc_alt" horiz-adv-x="320" 
d="M240 0h-210v70h90v410h-90v70h260v-70h-90v-410h90v-70q-35 -40 -35 -85q0 -19 13 -32t32 -13l40 5v-40q-20 -5 -40 -5q-44 0 -69.5 23.5t-25.5 61.5q0 20 8.5 41.5t17.5 32.5z" />
    <glyph glyph-name="afii10055.alt" horiz-adv-x="350" 
d="M35 70h100v490h-100v70h280v-70h-100v-490h100v-70h-280v70z" />
    <glyph glyph-name="afii10056.alt" horiz-adv-x="350" 
d="M100 715q-19 0 -32 13t-13 32t13 32t32 13t32 -13t13 -32t-13 -32t-32 -13zM250 715q-19 0 -32 13t-13 32t13 32t32 13t32 -13t13 -32t-13 -32t-32 -13zM35 70h100v490h-100v70h280v-70h-100v-490h100v-70h-280v70z" />
    <glyph glyph-name="afii10103.sc_alt" horiz-adv-x="320" 
d="M290 480h-90v-410h90v-70h-260v70h90v410h-90v70h260v-70z" />
    <glyph glyph-name="afii10104.sc_alt" horiz-adv-x="320" 
d="M85 645q-19 0 -32 13t-13 32t13 32t32 13t32 -13t13 -32t-13 -32t-32 -13zM235 645q-19 0 -32 13t-13 32t13 32t32 13t32 -13t13 -32t-13 -32t-32 -13zM290 480h-90v-410h90v-70h-260v70h90v410h-90v70h260v-70z" />
    </font>
</defs>
</svg>
